<?xml version="1.0" standalone="no"?>
<!DOCTYPE svg PUBLIC "-//W3C//DTD SVG 1.1//EN" "http://www.w3.org/Graphics/SVG/1.1/DTD/svg11.dtd" >
<svg xmlns="http://www.w3.org/2000/svg" xmlns:xlink="http://www.w3.org/1999/xlink" version="1.1">
<metadata>
Created by FontForge 20201107 at Wed Jan 17 22:05:33 2024
 By 
Copyright 2018 Airbnb. All rights reserved.
</metadata>
<defs>
<font id="AirbnbCerealWMd" horiz-adv-x="0" >
  <font-face 
    font-family="AirbnbCereal_W_Md Med"
    font-weight="500"
    font-stretch="normal"
    units-per-em="2048"
    panose-1="2 11 6 2 2 2 3 2 2 4"
    ascent="1638"
    descent="-410"
    x-height="1071"
    cap-height="1454"
    bbox="-444 -549 2189 1972"
    underline-thickness="129"
    underline-position="-394"
    unicode-range="U+000D-FFFD"
  />
<missing-glyph horiz-adv-x="1024" 
d="M922 0h-820v1536h820v-1536zM205 102h614v1332h-614v-1332z" />
    <glyph glyph-name="f_i.liga" unicode="fi" horiz-adv-x="1277" 
d="M223 881h-188v190h188v76q0 168 97 282.5t264 114.5q54 0 104 -12q51 -16 84 -35l-53 -180q-65 26 -111 26q-149 0 -149 -208v-64h692v-1071h-236v881h-456v-881h-236v881zM909 1298q-20 33 -20 72t20 72q38 71 123 71q40 0 74 -18q33 -23 51 -53q19 -36 19 -72t-19 -72
q-46 -71 -125 -71q-42 0 -71 20q-35 18 -52 51z" />
    <glyph glyph-name="f_f.liga" unicode="ff" horiz-adv-x="1505" 
d="M35 1071h188v76q0 173 104 285t277 112q61 0 108 -12t101 -41l-53 -180q-57 32 -127 32q-174 0 -174 -208v-64h456v76q0 173 104 285t277 112q61 0 108 -12t101 -41l-53 -180q-57 32 -127 32q-174 0 -174 -208v-64h307v-190h-307v-881h-236v881h-456v-881h-236v881h-188
v190z" />
    <glyph glyph-name="f_f_i.liga" unicode="ffi" horiz-adv-x="1970" 
d="M223 881h-188v190h188v76q0 173 104 285t277 112q61 0 108 -12t101 -41l-53 -180q-57 32 -127 32q-174 0 -174 -208v-64h456v76q0 168 97 282.5t264 114.5q54 0 104 -12q51 -16 84 -35l-53 -180q-65 26 -111 26q-149 0 -149 -208v-64h692v-1071h-235v881h-457v-881h-236
v881h-456v-881h-236v881zM1581 1370q0 38 21 72q38 71 122 71q40 0 74 -18q33 -23 51 -53q19 -36 19 -72t-19 -72q-46 -71 -125 -71q-42 0 -71 20q-34 17 -51 51q-21 34 -21 72z" />
    <glyph glyph-name=".notdef" horiz-adv-x="1024" 
d="M922 0h-820v1536h820v-1536zM205 102h614v1332h-614v-1332z" />
    <glyph glyph-name="uni0000" 
 />
    <glyph glyph-name="uni0000" 
 />
    <glyph glyph-name="uni000D" unicode="&#xd;" horiz-adv-x="436" 
 />
    <glyph glyph-name="space" unicode=" " horiz-adv-x="436" 
 />
    <glyph glyph-name="exclam" unicode="!" horiz-adv-x="512" 
d="M129 1454h254l-12 -1028h-230zM104 143q0 62 44.5 107t107.5 45t107.5 -44t44.5 -108q0 -63 -44.5 -107t-107.5 -44q-62 0 -107 44t-45 107z" />
    <glyph glyph-name="quotedbl" unicode="&#x22;" horiz-adv-x="829" 
d="M115 1454h213l-11 -553h-192zM502 1454h213l-10 -553h-193z" />
    <glyph glyph-name="numbersign" unicode="#" horiz-adv-x="1353" 
d="M305 373h-199l15 174h198l25 321h-194l14 176h194l31 369h197l-31 -369h297l31 369h196l-30 -369h198l-14 -176h-199l-24 -321h194l-14 -174h-195l-30 -373h-197l31 373h-297l-31 -373h-197zM516 547h297l25 321h-297z" />
    <glyph glyph-name="dollar" unicode="$" horiz-adv-x="1216" 
d="M547 -16q-164 24 -280.5 117.5t-162.5 248.5l220 49q31 -88 88 -139q56 -56 135 -74v437q-83 14 -154 44.5t-129.5 78t-92.5 118t-34 156.5q0 170 117.5 282t292.5 130v247h137v-249q154 -19 264 -113.5t146 -245.5l-215 -49q-26 78 -76 135q-52 52 -119 66v-398l35 -6
q178 -31 286.5 -132t108.5 -273q0 -182 -121 -297.5t-309 -134.5v-269h-137v271zM684 596v-414q88 14 144.5 68t56.5 141q0 155 -201 205zM367 1040q0 -73 50.5 -119t129.5 -67v373q-79 -15 -129.5 -62.5t-50.5 -124.5z" />
    <glyph glyph-name="percent" unicode="%" horiz-adv-x="1521" 
d="M807 299q0 139 91.5 230.5t231.5 91.5q137 0 228.5 -90.5t91.5 -229.5q0 -138 -92 -228.5t-232 -90.5q-136 0 -227.5 90t-91.5 227zM391 793q-136 0 -227.5 89.5t-91.5 227.5q0 139 91.5 230.5t231.5 91.5q137 0 228.5 -90.5t91.5 -229.5q0 -138 -92 -228.5t-232 -90.5z
M418 0h-197l883 1413h196zM393 1272q-63 0 -101 -47t-38 -113q0 -65 37.5 -112.5t101.5 -47.5q63 0 101 47t38 113q0 65 -37.5 112.5t-101.5 47.5zM1128 461q-63 0 -101 -47.5t-38 -112.5q0 -64 38 -112t101 -48t101.5 47.5t38.5 112.5t-38 112.5t-102 47.5z" />
    <glyph glyph-name="ampersand" unicode="&#x26;" horiz-adv-x="1427" 
d="M571 -41q-94 0 -181.5 26.5t-159 76.5t-114 130.5t-42.5 180.5q0 131 73 236t195 167q-160 167 -160 334q0 165 112 270t281 105q102 0 188.5 -40.5t140.5 -120.5t54 -185q0 -231 -284 -389l321 -324q81 150 101 369l211 -19q-28 -292 -162 -497l276 -279h-315l-109 111
q-186 -152 -426 -152zM471 643q-67 -36 -110.5 -103.5t-43.5 -142.5q0 -66 35.5 -121t96.5 -81q64 -31 145 -31q143 0 260 90zM406 1118q0 -100 137 -237q83 41 139.5 104t56.5 143q0 72 -44.5 115t-116.5 43q-75 0 -123.5 -46.5t-48.5 -121.5z" />
    <glyph glyph-name="quotesingle" unicode="'" horiz-adv-x="442" 
d="M125 901l-10 553h213l-11 -553h-192z" />
    <glyph glyph-name="parenleft" unicode="(" horiz-adv-x="700" 
d="M436 -289q-168 205 -255 446.5t-87 506.5q0 535 342 952h232q-357 -439 -357 -952q0 -259 93 -501t264 -452h-232z" />
    <glyph glyph-name="parenright" unicode=")" horiz-adv-x="700" 
d="M264 -289h-231q170 210 263 452t93 501q0 515 -356 952h231q342 -417 342 -952q0 -265 -87 -506.5t-255 -446.5z" />
    <glyph glyph-name="asterisk" unicode="*" horiz-adv-x="845" 
d="M264 680l-153 108l190 232l-281 72l56 178l270 -109l-18 293h190l-18 -293l270 109l55 -178l-280 -72l190 -232l-153 -108l-160 252z" />
    <glyph glyph-name="plus" unicode="+" horiz-adv-x="1216" 
d="M170 664h336v340h205v-340h336v-199h-336v-352h-205v352h-336v199z" />
    <glyph glyph-name="comma" unicode="," horiz-adv-x="520" 
d="M102 168q0 57 45.5 96t104.5 39q58 0 108 -35q103 -82 103 -235q0 -141 -83.5 -242t-223.5 -145l-50 137q83 29 138 86.5t55 136.5q0 28 -6 49q-26 -20 -62 -20t-63 18q-31 16 -47 47q-19 32 -19 68z" />
    <glyph glyph-name="hyphen" unicode="-" horiz-adv-x="761" 
d="M94 459v209h574v-209h-574z" />
    <glyph glyph-name="period" unicode="." horiz-adv-x="520" 
d="M104 147q0 65 46 110.5t110 45.5q65 0 110.5 -45t45.5 -111q0 -65 -45 -110t-111 -45q-63 0 -109.5 45.5t-46.5 109.5z" />
    <glyph glyph-name="slash" unicode="/" horiz-adv-x="929" 
d="M20 -227l672 1781h217l-671 -1781h-218z" />
    <glyph glyph-name="zero" unicode="0" horiz-adv-x="1253" 
d="M92 700q0 107 16.5 208t57 200t101 172.5t155.5 118.5t213 45q83 0 154 -22.5t124 -62.5t95.5 -95.5t70.5 -119t47 -137t27 -146t8 -148.5q0 -108 -16 -208.5t-55.5 -199.5t-99 -172.5t-154 -118.5t-213.5 -45q-115 0 -207.5 43.5t-151.5 114.5t-99 167.5t-56.5 197
t-16.5 208.5zM336 707q0 -64 6 -126t25.5 -135.5t50 -128t84.5 -91t125 -36.5q61 0 109 24.5t78.5 68t52 94.5t32 113t15 113t4.5 104t-4 104t-14.5 113t-32 112.5t-52 94t-79 68t-109.5 24.5q-52 0 -95 -19t-72.5 -50.5t-52 -75.5t-36 -89.5t-21.5 -98t-11 -96t-3 -87.5z
" />
    <glyph glyph-name="one" unicode="1" horiz-adv-x="882" 
d="M430 0v1153l-307 -172l-84 199l428 233h201v-1413h-238z" />
    <glyph glyph-name="two" unicode="2" horiz-adv-x="1161" 
d="M88 1055q42 177 172 283t313 106q197 0 329 -124.5t132 -322.5q0 -93 -33 -172q-33 -80 -95 -165t-149.5 -171.5t-149.5 -141.5t-154 -132h606v-215h-963v180q131 108 212 177t188.5 174t187.5 202q52 69 80.5 129.5t28.5 128.5q0 66 -27 121t-80 88q-56 29 -119 29
q-98 0 -162 -59.5t-92 -159.5z" />
    <glyph glyph-name="three" unicode="3" horiz-adv-x="1157" 
d="M567 -31q-185 0 -324 98t-184 275l222 43q34 -99 106 -152t176 -53q109 0 185.5 59.5t76.5 166.5q0 109 -77.5 164t-192.5 55h-152v209h142q104 0 177 52.5t73 153.5q0 91 -65.5 142t-160.5 51t-165.5 -54t-96.5 -145l-221 43q37 170 175.5 268.5t318.5 98.5
q88 0 168.5 -24.5t145 -71t102.5 -121.5t38 -168q0 -108 -55 -190.5t-154 -127.5q114 -40 178 -130.5t64 -211.5q0 -98 -42.5 -180.5t-112.5 -136t-159.5 -83.5t-185.5 -30z" />
    <glyph glyph-name="four" unicode="4" horiz-adv-x="1212" 
d="M70 309v191l632 913h261v-901h167v-203h-167v-309h-234v309h-659zM305 512h424v608z" />
    <glyph glyph-name="five" unicode="5" horiz-adv-x="1138" 
d="M569 -31q-177 0 -316 99t-181 268l225 39q34 -92 105 -143.5t167 -51.5q114 0 189.5 73t75.5 187q0 113 -74 183.5t-189 70.5q-64 0 -124.5 -24t-104.5 -68l-192 21v790h821v-219h-596v-367q96 78 241 78q196 0 327.5 -131t131.5 -330q0 -136 -69 -245.5t-184.5 -169.5
t-252.5 -60z" />
    <glyph glyph-name="six" unicode="6" horiz-adv-x="1214" 
d="M94 659q0 118 25 230.5t78 213t128 176.5t183 120.5t235 44.5q184 0 326 -94l-72 -197q-112 72 -249 72q-102 0 -180 -41.5t-125.5 -114t-74 -157t-36.5 -185.5q112 180 348 180q128 0 235.5 -57.5t171.5 -162.5t64 -236q0 -137 -68 -248t-184 -172.5t-254 -61.5
q-137 0 -245 59t-173.5 158t-99 219.5t-33.5 253.5zM645 707q-112 0 -188 -72t-76 -186q0 -112 75 -191.5t187 -79.5q113 0 189.5 77t76.5 191t-74.5 187.5t-189.5 73.5z" />
    <glyph glyph-name="seven" unicode="7" horiz-adv-x="1130" 
d="M260 0l518 1194h-706v219h970v-184l-516 -1229h-266z" />
    <glyph glyph-name="eight" unicode="8" horiz-adv-x="1208" 
d="M602 -31q-77 0 -150.5 16t-140.5 49.5t-117.5 82t-80 119t-29.5 153.5q0 121 65 214t179 136q-93 45 -146 126.5t-53 183.5q0 93 41 169.5t108.5 124.5t152 74.5t175.5 26.5q89 0 171.5 -25t150 -72.5t108.5 -123.5t41 -170q0 -103 -50.5 -183.5t-143.5 -128.5
q115 -39 178 -130.5t63 -213.5q0 -84 -29 -154.5t-78.5 -120.5t-116.5 -85t-142.5 -51.5t-155.5 -16.5zM604 631q-113 0 -195.5 -58.5t-82.5 -169.5q0 -109 81.5 -168t196.5 -59q73 0 134.5 23t103 76t41.5 128q0 110 -82 169t-197 59zM604 1237q-96 0 -167.5 -54.5
t-71.5 -148.5t70.5 -148.5t168.5 -54.5q97 0 168.5 54t71.5 149q0 94 -71 148.5t-169 54.5z" />
    <glyph glyph-name="nine" unicode="9" horiz-adv-x="1208" 
d="M63 963q0 137 67.5 247.5t183 172t253.5 61.5q114 0 207.5 -40t155.5 -107.5t104.5 -159t61 -191.5t18.5 -209q0 -186 -45 -325q-67 -207 -223 -325t-373 -118q-197 0 -340 94l72 197q49 -32 119 -51q64 -21 143 -21q378 0 412 498q-112 -180 -349 -180
q-196 0 -331.5 130t-135.5 327zM567 1235q-112 0 -187 -77.5t-75 -190.5q0 -110 74 -185t186 -75t187 72.5t75 185.5t-73.5 191.5t-186.5 78.5z" />
    <glyph glyph-name="colon" unicode=":" horiz-adv-x="520" 
d="M104 924q0 64 45.5 109.5t110.5 45.5t110.5 -44.5t45.5 -110.5q0 -65 -45 -110.5t-111 -45.5q-63 0 -109.5 46t-46.5 110zM260 -8q-63 0 -109.5 45.5t-46.5 109.5q0 65 46 110.5t110 45.5q65 0 110.5 -45t45.5 -111q0 -65 -45 -110t-111 -45z" />
    <glyph glyph-name="semicolon" unicode=";" horiz-adv-x="520" 
d="M121 100q-19 32 -19 68q0 57 45.5 96t104.5 39q58 0 108 -35q103 -82 103 -235q0 -141 -83.5 -242t-223.5 -145l-50 137q83 29 138 86.5t55 136.5q0 28 -6 49q-26 -20 -62 -20t-63 18q-31 16 -47 47zM104 924q0 64 45.5 109.5t110.5 45.5t110.5 -44.5t45.5 -110.5
q0 -65 -45 -110.5t-111 -45.5q-63 0 -109.5 46t-46.5 110z" />
    <glyph glyph-name="less" unicode="&#x3c;" horiz-adv-x="1216" 
d="M195 469v188l774 334v-207l-539 -217l539 -217v-215z" />
    <glyph glyph-name="equal" unicode="=" horiz-adv-x="1216" 
d="M176 694v207h866v-207h-866zM1042 227h-866v207h866v-207z" />
    <glyph glyph-name="greater" unicode="&#x3e;" horiz-adv-x="1216" 
d="M788 559l-538 217v215l774 -334v-188l-774 -334v207z" />
    <glyph glyph-name="question" unicode="?" horiz-adv-x="1075" 
d="M262 1077l-221 53q39 163 175 259t308 96q125 0 232.5 -48.5t176 -146.5t68.5 -227q0 -164 -104.5 -278t-271.5 -167v-192h-230v317q51 12 97 28t95.5 43t85 59.5t58.5 79t23 100.5q0 98 -65.5 157.5t-166.5 59.5q-93 0 -162.5 -51.5t-97.5 -141.5zM510 -8q-62 0 -107 44
t-45 107q0 62 44.5 107t107.5 45t107.5 -44t44.5 -108q0 -63 -44.5 -107t-107.5 -44z" />
    <glyph glyph-name="at" unicode="@" horiz-adv-x="2070" 
d="M94 520q0 199 75 374t204 298.5t307.5 194.5t380.5 71q189 0 355.5 -60.5t291 -170t196.5 -273.5t72 -360q0 -76 -13 -149.5t-43 -144t-74 -123.5t-112.5 -85.5t-152.5 -32.5q-100 0 -175 48t-106 139q-47 -92 -127 -140.5t-184 -48.5q-125 0 -224 67t-150.5 174
t-51.5 232q0 90 30 176t83 153t134 108t175 41q92 0 169 -41.5t124 -118.5l6 135h203v-602q0 -61 31 -100q26 -39 77 -39q41 0 73 27t50.5 66.5t30.5 89.5t16 91t4 76q0 201 -90.5 356t-250.5 238.5t-365 83.5q-158 0 -297.5 -56t-240.5 -154t-159.5 -238.5t-58.5 -301.5
q0 -151 55.5 -286.5t151.5 -233.5t232 -155.5t290 -57.5q243 0 447 113l82 -168q-233 -133 -531 -133q-192 0 -365 69.5t-299.5 190t-201 292.5t-74.5 369zM786 535q0 -112 65 -193.5t177 -81.5q110 0 176 81t66 194q0 156 -117 239q-56 35 -125 35q-111 0 -176.5 -80
t-65.5 -194z" />
    <glyph glyph-name="A" unicode="A" horiz-adv-x="1505" 
d="M39 0l579 1454h267l581 -1454h-258l-137 360h-647l-137 -360h-248zM748 1202l-242 -629h483z" />
    <glyph glyph-name="B" unicode="B" horiz-adv-x="1255" 
d="M143 1454h504q91 0 171.5 -21.5t147.5 -64.5t106.5 -117.5t39.5 -171.5q0 -215 -186 -309q118 -41 183 -136.5t65 -221.5q0 -104 -43.5 -185.5t-117.5 -129.5t-164.5 -72.5t-191.5 -24.5h-514v1454zM385 213h262q55 0 102.5 12t87 37t62.5 68.5t23 101.5q0 115 -77.5 168
t-197.5 53h-262v-440zM385 856h240q106 0 171.5 46t65.5 147q0 99 -67 145.5t-170 46.5h-240v-385z" />
    <glyph glyph-name="C" unicode="C" horiz-adv-x="1501" 
d="M94 717q0 152 51 292.5t141 248.5t225.5 172.5t293.5 64.5q209 0 373 -107t235 -301l-239 -67q-53 117 -149 181.5t-222 64.5q-85 0 -158.5 -31t-126.5 -84.5t-91 -123.5t-56.5 -148.5t-18.5 -159.5q0 -102 30 -196.5t85.5 -169.5t143.5 -120t196 -45q128 0 225.5 64
t155.5 182l239 -67q-70 -193 -239.5 -300.5t-382.5 -107.5q-156 0 -289.5 59.5t-225.5 161.5t-144 241.5t-52 295.5z" />
    <glyph glyph-name="D" unicode="D" horiz-adv-x="1538" 
d="M143 1454h531q163 0 303.5 -48.5t244.5 -139t163 -229t59 -308.5q0 -219 -99 -385.5t-273 -255t-398 -88.5h-531v1454zM393 223h269q236 0 380 133t144 371q0 235 -141.5 369.5t-382.5 134.5h-269v-1008z" />
    <glyph glyph-name="E" unicode="E" horiz-adv-x="1163" 
d="M143 1454h881v-215h-635v-381h574v-215h-574v-428h655v-215h-901v1454z" />
    <glyph glyph-name="F" unicode="F" horiz-adv-x="1099" 
d="M143 1454h863v-219h-617v-418h553v-219h-553v-598h-246v1454z" />
    <glyph glyph-name="G" unicode="G" horiz-adv-x="1609" 
d="M94 723q0 157 54 298t149 246t234 166.5t300 61.5q201 0 367.5 -97.5t247.5 -275.5l-238 -80q-58 108 -156 166t-221 58q-107 0 -198 -44.5t-152 -119.5t-95 -172.5t-34 -202.5q0 -107 33.5 -204t94.5 -171.5t154 -119t204 -44.5q177 0 294 102.5t132 280.5h-398v209h654
v-137q0 -300 -193.5 -492t-499.5 -192q-158 0 -295 59t-232.5 161t-150.5 243.5t-55 300.5z" />
    <glyph glyph-name="H" unicode="H" horiz-adv-x="1497" 
d="M143 1454h250v-590h711v590h250v-1454h-250v641h-711v-641h-250v1454z" />
    <glyph glyph-name="I" unicode="I" horiz-adv-x="536" 
d="M143 0v1454h250v-1454h-250z" />
    <glyph glyph-name="J" unicode="J" horiz-adv-x="1110" 
d="M33 340l241 51q70 -196 238 -196q109 0 165 78.5t56 193.5v987h250v-981q0 -143 -54 -256t-163 -180.5t-256 -67.5q-176 0 -302.5 99.5t-174.5 271.5z" />
    <glyph glyph-name="K" unicode="K" horiz-adv-x="1384" 
d="M143 1454h250v-649l596 649h299l-635 -682l709 -772h-332l-637 711v-711h-250v1454z" />
    <glyph glyph-name="L" unicode="L" horiz-adv-x="1097" 
d="M143 0v1454h250v-1231h617v-223h-867z" />
    <glyph glyph-name="M" unicode="M" horiz-adv-x="1728" 
d="M143 1454h242l483 -891l486 891h231v-1454h-248v1004l-381 -701h-184l-381 701v-1004h-248v1454z" />
    <glyph glyph-name="N" unicode="N" horiz-adv-x="1476" 
d="M143 1454h222l725 -1040v1040h243v-1454h-221l-725 1044v-1044h-244v1454z" />
    <glyph glyph-name="O" unicode="O" horiz-adv-x="1658" 
d="M94 725q0 211 91 386t261 279.5t385 104.5q160 0 297.5 -59t233 -161t149.5 -243.5t54 -302.5q0 -157 -53.5 -298t-148 -245.5t-233.5 -165.5t-301 -61q-158 0 -295.5 59t-233.5 161.5t-151 244t-55 301.5zM352 727q0 -105 32.5 -202t92 -172t151 -120t201.5 -45
q145 0 255.5 75.5t166.5 197t56 266.5q0 106 -32 202.5t-91 172t-151 120t-204 44.5q-145 0 -255 -75t-166 -196.5t-56 -267.5z" />
    <glyph glyph-name="P" unicode="P" horiz-adv-x="1202" 
d="M143 0v1454h441q93 0 174.5 -17t152 -54t120.5 -92t79 -136t29 -180q0 -94 -30 -172.5t-82.5 -134t-124.5 -94t-154.5 -56.5t-174.5 -18q-77 0 -184 14v-514h-246zM389 1237v-506q100 -14 174 -14q68 0 124 13.5t101.5 43t71 81t25.5 122.5q0 132 -84 196t-221 64h-191z
" />
    <glyph glyph-name="Q" unicode="Q" horiz-adv-x="1658" 
d="M829 -41q-158 0 -295.5 59t-233.5 161.5t-151 244t-55 301.5q0 211 91 386t261 279.5t385 104.5q160 0 297.5 -59t233 -161t149.5 -243.5t54 -302.5q0 -156 -55 -301.5t-160 -253.5l174 -215l-168 -135l-178 221q-167 -86 -349 -86zM352 727q0 -105 32.5 -202t92 -172
t151 -120t201.5 -45q109 0 199 41l-248 310l166 133l248 -310q113 154 113 365q0 106 -32 202.5t-91 172t-151 120t-204 44.5q-145 0 -255 -75t-166 -196.5t-56 -267.5z" />
    <glyph glyph-name="R" unicode="R" horiz-adv-x="1265" 
d="M143 0v1454h439q112 0 209.5 -25.5t178 -78t127 -143t46.5 -210.5q0 -132 -69.5 -238t-192.5 -165l338 -594h-277l-280 528q-14 -2 -50 -2q-18 -2 -57 -2q-71 0 -166 15v-539h-246zM389 1237v-481q71 -15 180 -15q50 0 95.5 8t87 26.5t71.5 46.5t48 71t18 96
q0 66 -25.5 115t-70 77.5t-98.5 42t-117 13.5h-189z" />
    <glyph glyph-name="S" unicode="S" horiz-adv-x="1155" 
d="M59 328l236 57q34 -95 105.5 -146t172.5 -51q103 0 179.5 59.5t76.5 160.5q0 49 -19.5 86t-56 60t-72 36.5t-85.5 25.5l-76 17q-88 19 -161 51t-134 81.5t-95 123t-34 164.5q0 129 67.5 229t177 151.5t239.5 51.5q172 0 305.5 -94t175.5 -258l-234 -58q-33 91 -97 141
t-157 50q-90 0 -157.5 -53t-67.5 -142q0 -38 15.5 -69.5t38 -52t57 -37.5t64 -26t67.5 -18l76 -16q417 -94 417 -424q0 -138 -71 -244t-186.5 -160.5t-254.5 -54.5q-179 0 -322.5 95.5t-189.5 263.5z" />
    <glyph glyph-name="T" unicode="T" horiz-adv-x="1277" 
d="M90 1231v223h1098v-223h-424v-1231h-250v1231h-424z" />
    <glyph glyph-name="U" unicode="U" horiz-adv-x="1466" 
d="M127 1454h250v-866q0 -111 38.5 -200t120.5 -144.5t197 -55.5q169 0 263 112.5t94 287.5v866h249v-876q0 -276 -165 -447.5t-445 -171.5q-275 0 -438.5 168t-163.5 451v876z" />
    <glyph glyph-name="V" unicode="V" horiz-adv-x="1458" 
d="M39 1454h272l424 -1171l422 1171h262l-557 -1454h-266z" />
    <glyph glyph-name="W" unicode="W" horiz-adv-x="2107" 
d="M63 1454h267l299 -1122l307 1122h242l309 -1122l297 1122h260l-430 -1454h-254l-305 1106l-305 -1106h-256z" />
    <glyph glyph-name="X" unicode="X" horiz-adv-x="1370" 
d="M23 0l522 768l-465 686h285l323 -510l322 510h276l-461 -686l523 -768h-297l-371 575l-371 -575h-286z" />
    <glyph glyph-name="Y" unicode="Y" horiz-adv-x="1327" 
d="M29 1454h282l357 -651l354 651h276l-510 -881v-573h-249v573z" />
    <glyph glyph-name="Z" unicode="Z" horiz-adv-x="1290" 
d="M84 0v180l772 1061h-741v213h1050v-180l-772 -1061h817v-213h-1126z" />
    <glyph glyph-name="bracketleft" unicode="[" horiz-adv-x="733" 
d="M164 1616h487v-182h-278v-1540h278v-183h-487v1905z" />
    <glyph glyph-name="backslash" unicode="\" horiz-adv-x="929" 
d="M692 -227l-672 1781h218l671 -1781h-217z" />
    <glyph glyph-name="bracketright" unicode="]" horiz-adv-x="733" 
d="M360 1434h-278v182h487v-1905h-487v183h278v1540z" />
    <glyph glyph-name="asciicircum" unicode="^" horiz-adv-x="1216" 
d="M156 705l350 708h207l350 -708h-225l-232 479l-233 -479h-217z" />
    <glyph glyph-name="underscore" unicode="_" horiz-adv-x="1173" 
d="M61 -307v178h1051v-178h-1051z" />
    <glyph glyph-name="grave" unicode="`" horiz-adv-x="1202" 
d="M627 1231l-279 293h266l238 -293h-225z" />
    <glyph glyph-name="a" unicode="a" horiz-adv-x="1134" 
d="M76 305q0 87 37.5 154.5t100.5 107t139 60t159 20.5q140 0 262 -51v68q0 106 -58 173.5t-163 67.5q-74 0 -133.5 -39.5t-87.5 -107.5l-217 49q38 138 164.5 216.5t277.5 78.5q198 0 324.5 -124t126.5 -325v-653h-215l-9 141q-49 -86 -137 -129t-192 -43
q-100 0 -185.5 38.5t-139.5 116.5t-54 181zM313 315q0 -75 59 -116t138 -41q110 0 187 70t77 180v24q-60 24 -108 37q-58 12 -117 12q-57 0 -107.5 -14.5t-89.5 -53.5t-39 -98z" />
    <glyph glyph-name="b" unicode="b" horiz-adv-x="1294" 
d="M127 1524h235v-609q59 90 152 138.5t201 48.5q147 0 263 -79.5t176 -206.5t60 -275q0 -110 -36 -213t-100.5 -183t-162.5 -128t-213 -48q-110 0 -201 48.5t-149 140.5l-10 -158h-215v1524zM666 889q-140 0 -224 -103.5t-84 -248.5q0 -142 84.5 -248.5t223.5 -106.5
q140 0 223.5 105.5t83.5 249.5q0 145 -82.5 248.5t-224.5 103.5z" />
    <glyph glyph-name="c" unicode="c" horiz-adv-x="1148" 
d="M80 528q0 113 38.5 217.5t107 183.5t169.5 126t219 47q162 0 288 -85.5t169 -238.5l-223 -53q-33 76 -95 120t-143 44q-68 0 -124 -32t-91 -84t-54 -115t-19 -128q0 -89 30.5 -166.5t98 -129.5t159.5 -52q84 0 150 43t100 119l221 -51q-28 -99 -101.5 -174t-169.5 -112.5
t-200 -37.5q-152 0 -274 75t-189 202.5t-67 281.5z" />
    <glyph glyph-name="d" unicode="d" horiz-adv-x="1294" 
d="M580 -31q-110 0 -205 46.5t-159 124.5t-100 179.5t-36 210.5q0 148 61 277.5t180 212t271 82.5q104 0 192.5 -44t147.5 -128v594h235v-1524h-215l-10 172q-58 -97 -153 -150t-209 -53zM322 535q0 -91 35 -170.5t106.5 -131t165.5 -51.5q93 0 164.5 50.5t107 130
t35.5 172.5q0 146 -82 250t-225 104q-140 0 -223.5 -104.5t-83.5 -249.5z" />
    <glyph glyph-name="e" unicode="e" horiz-adv-x="1189" 
d="M80 537q0 150 64.5 278.5t186 207.5t275.5 79q155 0 272 -73t177.5 -198t60.5 -282v-70h-792q13 -131 92.5 -218t208.5 -87q167 0 262 150l207 -80q-59 -133 -187 -204t-282 -71q-158 0 -283 74t-193.5 203.5t-68.5 290.5zM606 911q-110 0 -181.5 -74.5t-94.5 -189.5h540
q-19 115 -85.5 189.5t-178.5 74.5z" />
    <glyph glyph-name="f" unicode="f" horiz-adv-x="813" 
d="M35 881v190h188v76q0 173 104 285t277 112q61 0 108 -12t101 -41l-53 -180q-57 32 -127 32q-174 0 -174 -208v-64h307v-190h-307v-881h-236v881h-188z" />
    <glyph glyph-name="g" unicode="g" horiz-adv-x="1284" 
d="M80 557q0 144 62 268t179 200.5t265 76.5q109 0 199.5 -46.5t148.5 -135.5l8 151h215v-958q0 -245 -147 -397t-396 -152q-157 0 -281.5 71t-197.5 207l223 78q93 -149 265 -149q140 0 219.5 89.5t79.5 233.5v103q-61 -85 -152.5 -131t-196.5 -46q-108 0 -201 43.5
t-156.5 117t-99.5 171.5t-36 205zM623 889q-132 0 -216.5 -96t-84.5 -232q0 -134 84.5 -231t216.5 -97q133 0 218 95.5t85 232.5t-84 232.5t-219 95.5z" />
    <glyph glyph-name="h" unicode="h" horiz-adv-x="1202" 
d="M127 0v1524h235v-582q53 78 136 119t180 41t174 -37t125 -101.5t73 -147.5t25 -179v-637h-235v610q0 77 -20.5 137.5t-72 101t-129.5 40.5q-113 0 -184.5 -75.5t-71.5 -190.5v-623h-235z" />
    <glyph glyph-name="i" unicode="i" horiz-adv-x="489" 
d="M362 0h-235v1071h235v-1071zM121 1298q-21 34 -21 72t21 72q17 32 51 53q34 18 72 18q36 0 71 -18q35 -21 54 -53q18 -34 18 -72t-18 -72q-20 -33 -54 -51q-33 -20 -71 -20q-39 0 -72 20q-34 17 -51 51z" />
    <glyph glyph-name="j" unicode="j" horiz-adv-x="499" 
d="M-63 -414q-51 16 -89 39l56 182q45 -26 98 -26q69 0 102 46t33 118v1126h236v-1141q0 -155 -90 -255.5t-246 -100.5q-53 0 -100 12zM111 1370q0 39 20 72q38 71 123 71q40 0 74 -18q33 -23 51 -53q18 -34 18 -72t-18 -72q-46 -71 -125 -71q-43 0 -72 20q-34 17 -51 51
q-20 33 -20 72z" />
    <glyph glyph-name="k" unicode="k" horiz-adv-x="1148" 
d="M127 1524h235v-895l439 442h286l-481 -475l531 -596h-310l-465 541v-541h-235v1524z" />
    <glyph glyph-name="l" unicode="l" horiz-adv-x="489" 
d="M127 0v1524h235v-1524h-235z" />
    <glyph glyph-name="m" unicode="m" horiz-adv-x="1873" 
d="M127 1071h215l8 -143q49 83 133 128.5t183 45.5q111 0 197.5 -55t133.5 -156q48 99 147 155t212 56q98 0 174 -36.5t122.5 -100.5t70.5 -147t24 -179v-639h-236v612q0 44 -6.5 82.5t-22.5 75t-40 62.5t-61.5 41.5t-84.5 15.5q-108 0 -174.5 -76t-66.5 -188v-625h-236v612
q0 44 -6.5 82.5t-22.5 75t-40 62.5t-61.5 41.5t-84.5 15.5q-108 0 -175 -76t-67 -188v-625h-235v1071z" />
    <glyph glyph-name="n" unicode="n" horiz-adv-x="1202" 
d="M127 1071h215l8 -147q48 86 136 132t192 46q97 0 174 -37t125 -101.5t73 -147.5t25 -179v-637h-235v610q0 77 -20.5 137.5t-72 101t-129.5 40.5q-113 0 -184.5 -75.5t-71.5 -190.5v-623h-235v1071z" />
    <glyph glyph-name="o" unicode="o" horiz-adv-x="1257" 
d="M80 537q0 158 68.5 286.5t195.5 203.5t289 75q157 0 282 -74t194 -203t69 -288q0 -158 -68.5 -287t-196 -205t-288.5 -76q-156 0 -281 75t-194.5 205t-69.5 288zM629 889q-140 0 -223.5 -103.5t-83.5 -248.5q0 -142 84 -248.5t223 -106.5q140 0 223.5 105.5t83.5 249.5
q0 145 -82.5 248.5t-224.5 103.5z" />
    <glyph glyph-name="p" unicode="p" horiz-adv-x="1294" 
d="M127 1071h215l10 -172q60 98 153.5 150.5t209.5 52.5q147 0 263 -79.5t176 -206.5t60 -275q0 -110 -36 -213t-100.5 -183t-162.5 -128t-213 -48q-104 0 -192.5 44t-147.5 128v-547h-235v1477zM666 889q-140 0 -224 -103.5t-84 -248.5q0 -142 84.5 -248.5t223.5 -106.5
q140 0 223.5 105.5t83.5 249.5q0 145 -82.5 248.5t-224.5 103.5z" />
    <glyph glyph-name="q" unicode="q" horiz-adv-x="1294" 
d="M580 -31q-110 0 -205 46.5t-159 124.5t-100 179.5t-36 210.5q0 148 61 277.5t180 212t271 82.5q110 0 201 -48.5t149 -140.5l10 158h215v-1477h-235v562q-60 -90 -152 -138.5t-200 -48.5zM322 535q0 -91 35 -170.5t106.5 -131t165.5 -51.5q93 0 164.5 50.5t107 130
t35.5 172.5q0 146 -82 250t-225 104q-140 0 -223.5 -104.5t-83.5 -249.5z" />
    <glyph glyph-name="r" unicode="r" horiz-adv-x="794" 
d="M127 1071h215l10 -176q40 90 114 140t171 50q66 0 111 -18l-27 -229q-36 14 -96 14q-131 0 -197 -87t-66 -222v-543h-235v1071z" />
    <glyph glyph-name="s" unicode="s" horiz-adv-x="980" 
d="M59 256l213 55q27 -71 86.5 -109t137.5 -38q71 0 126.5 34.5t55.5 100.5q0 110 -174 137l-68 13q-55 10 -103 25.5t-93.5 41t-78 59.5t-52 82.5t-19.5 106.5q0 106 57.5 184.5t146.5 116t195 37.5q145 0 257.5 -74t150.5 -209l-211 -51q-55 141 -199 141
q-64 0 -114.5 -33t-50.5 -94q0 -95 184 -127l67 -12q69 -11 127.5 -35t107.5 -62t77 -95.5t28 -128.5q0 -110 -60.5 -192t-154.5 -121.5t-204 -39.5q-150 0 -271 75t-164 212z" />
    <glyph glyph-name="t" unicode="t" horiz-adv-x="872" 
d="M35 1071h188v363h236v-363h311v-190h-311v-527q0 -77 34 -127.5t107 -50.5q36 0 80 12q39 8 80 31l53 -178q-40 -30 -108 -53q-68 -19 -136 -19q-166 0 -256 96.5t-90 264.5v551h-188v190z" />
    <glyph glyph-name="u" unicode="u" horiz-adv-x="1200" 
d="M127 473v598h235v-602q0 -79 23.5 -141.5t79 -104t135.5 -41.5t135.5 41.5t79 104t23.5 141.5v602h235v-598q0 -222 -125.5 -363t-349.5 -141q-219 0 -345 139.5t-126 364.5z" />
    <glyph glyph-name="v" unicode="v" horiz-adv-x="1116" 
d="M29 1071h258l274 -825l277 825h249l-409 -1071h-240z" />
    <glyph glyph-name="w" unicode="w" horiz-adv-x="1687" 
d="M385 0l-356 1071h245l228 -782l239 782h211l238 -782l231 782h238l-359 -1071h-221l-235 778l-238 -778h-221z" />
    <glyph glyph-name="x" unicode="x" horiz-adv-x="1134" 
d="M29 0l407 565l-362 506h266l229 -358l236 358h256l-363 -506l408 -565h-277l-264 410l-268 -410h-268z" />
    <glyph glyph-name="y" unicode="y" horiz-adv-x="1116" 
d="M29 1071h258l288 -801l263 801h249l-454 -1200q-55 -141 -140.5 -219t-222.5 -78q-101 0 -180 43l51 186q7 -3 52 -18q27 -6 55 -6q69 0 112 38t72 109l33 84z" />
    <glyph glyph-name="z" unicode="z" horiz-adv-x="1050" 
d="M84 0v156l557 725h-543v190h834v-156l-557 -725h592v-190h-883z" />
    <glyph glyph-name="braceleft" unicode="{" horiz-adv-x="751" 
d="M92 578h-31v172h31q71 0 108.5 40.5t37.5 110.5q0 43 -9 105q-22 135 -22 262q0 170 104 259t281 89h78v-182h-64q-184 0 -184 -193q0 -59 8 -111q23 -142 23 -221t-36 -149t-104 -96q75 -29 121 -134q19 -55 19 -112q0 -81 -23 -219q-8 -52 -8 -113q0 -192 184 -192h64
v-183h-78q-175 0 -280 87t-105 261q0 107 22 265q9 58 9 102q0 70 -37.5 111t-108.5 41z" />
    <glyph glyph-name="bar" unicode="|" horiz-adv-x="536" 
d="M164 -227v1781h209v-1781h-209z" />
    <glyph glyph-name="braceright" unicode="}" horiz-adv-x="751" 
d="M160 -289h-78v183h63q88 0 138 47q47 50 47 145q0 81 -23 227q-8 52 -8 105q0 78 36 148t103 98q-41 18 -72 54.5t-47 80.5q-20 47 -20 110q0 53 8 105q23 146 23 227q0 95 -47 145q-51 48 -138 48h-63v182h78q175 0 280 -87t105 -261q0 -73 -8 -133q-9 -71 -15 -129
q-8 -55 -8 -105q0 -70 38 -110.5t107 -40.5h31v-172h-31q-69 0 -107 -41t-38 -111q0 -50 8 -102q6 -62 15 -129q8 -63 8 -136q0 -170 -104 -259t-281 -89z" />
    <glyph glyph-name="asciitilde" unicode="~" horiz-adv-x="1216" 
d="M135 389q8 67 27.5 127t53 114t88 86t124.5 32q81 0 166 -56q12 -8 33 -24t30 -23q65 -57 115 -57q82 0 109 145h200q-8 -69 -27 -128t-52 -113t-88 -85.5t-126 -31.5q-86 0 -165 57q-29 18 -62 47q-51 36 -57 39q-31 17 -60 17q-81 0 -108 -146h-201z" />
    <glyph glyph-name="uni00A0" unicode="&#xa0;" horiz-adv-x="436" 
 />
    <glyph glyph-name="exclamdown" unicode="&#xa1;" horiz-adv-x="512" 
d="M383 -383h-254l12 1028h230zM104 928q0 63 44 107t108 44q63 0 107.5 -43.5t44.5 -107.5q0 -63 -44.5 -107.5t-107.5 -44.5q-62 0 -107 44.5t-45 107.5z" />
    <glyph glyph-name="cent" unicode="&#xa2;" horiz-adv-x="1216" 
d="M559 -14q-202 32 -325 182.5t-123 359.5q0 135 53.5 253.5t157 200.5t237.5 103v246h137v-241q146 -14 255 -94.5t151 -217.5l-223 -53q-53 123 -183 158v-695q63 12 116 54t79 102l221 -51q-40 -131 -156.5 -215t-259.5 -96v-265h-137v269zM352 530q0 -84 27 -151
q23 -65 70.5 -115.5t109.5 -68.5v682q-66 -23 -114.5 -80.5t-70.5 -126t-22 -140.5z" />
    <glyph glyph-name="sterling" unicode="&#xa3;" horiz-adv-x="1216" 
d="M61 776h172l19 213q12 199 131 327t317 128q176 0 291 -97t152 -272l-225 -45q-43 199 -216 199q-101 0 -154 -68t-61 -174l-16 -211h375v-188h-391l-29 -373h715v-215h-1078v215h125l31 373h-158v188z" />
    <glyph glyph-name="currency" unicode="&#xa4;" horiz-adv-x="1216" 
d="M96 1126l137 138l162 -162q98 59 213 59q112 0 213 -59l162 162l137 -138l-162 -161q64 -94 64 -220q0 -127 -64 -221l162 -162l-137 -137l-162 162q-95 -59 -215 -59q-114 0 -211 59l-162 -162l-137 137l162 162q-63 92 -63 219q0 125 63 222zM406 743q0 -92 56 -158.5
t146 -66.5q91 0 146 65.5t55 159.5t-54 159t-147 65q-91 0 -146.5 -65t-55.5 -159z" />
    <glyph glyph-name="yen" unicode="&#xa5;" horiz-adv-x="1216" 
d="M43 1413h264l305 -629l306 629h256l-373 -688h227v-154h-301v-163h301v-154h-301v-254h-238v254h-301v154h301v163h-301v154h228z" />
    <glyph glyph-name="section" unicode="&#xa7;" horiz-adv-x="1036" 
d="M510 -195q-156 0 -274.5 70.5t-172.5 210.5l216 53q71 -141 235 -141q48 0 90 12t74.5 44t32.5 81q0 35 -17.5 60.5t-49 41t-58.5 23t-64 14.5l-98 19q-69 13 -127.5 37.5t-109 62.5t-79 95.5t-28.5 129.5q0 93 48.5 168t133.5 115q-156 86 -156 248q0 80 36.5 145.5
t96.5 106t133 62.5t150 22q152 0 263 -69t155 -208l-215 -53q-59 135 -211 135q-42 0 -80 -11t-67 -40t-29 -72q0 -106 194 -137l103 -16q69 -11 127.5 -34.5t107 -61t76 -95t27.5 -129.5q0 -98 -50 -172t-141 -116q164 -86 164 -256q0 -84 -38 -151.5t-101 -109t-139.5 -63
t-157.5 -21.5zM473 821q-74 0 -122 -43.5t-48 -115.5q0 -124 174 -160l47 -10q32 -7 54 -7q73 0 121.5 44t48.5 116q0 124 -175 160l-47 10q-27 6 -53 6z" />
    <glyph glyph-name="dieresis" unicode="&#xa8;" horiz-adv-x="1202" 
d="M393 1237q-54 0 -93.5 39.5t-39.5 93.5t39.5 93.5t93.5 39.5q72 0 117 -65q16 -32 16 -68q0 -56 -39 -94.5t-94 -38.5zM692 1305q-18 27 -18 65q0 56 39 94.5t94 38.5q54 0 93.5 -39t39.5 -94q0 -54 -39.5 -93.5t-93.5 -39.5q-36 0 -68 18.5t-47 49.5z" />
    <glyph glyph-name="copyright" unicode="&#xa9;" horiz-adv-x="1748" 
d="M104 727q0 213 100 389t277 277.5t393 101.5q160 0 302.5 -58.5t245.5 -159.5t163 -244t60 -306q0 -160 -59 -302.5t-160.5 -245t-245 -162.5t-306.5 -60q-213 0 -389.5 100t-278.5 277t-102 393zM264 727q0 -166 80.5 -308t221 -226t308.5 -84q125 0 238 49t194.5 131.5
t130 197t48.5 240.5q0 124 -47.5 237.5t-128.5 196.5t-195 132.5t-240 49.5q-166 0 -306.5 -82t-222 -224t-81.5 -310zM883 313q-172 0 -284 120t-112 296q0 113 49.5 210.5t142.5 157.5t208 60q125 0 218 -68t126 -188l-178 -43q-23 55 -66.5 89t-99.5 34q-93 0 -147 -75.5
t-54 -172.5q0 -99 53 -171.5t148 -72.5q58 0 106 33.5t68 87.5l178 -43q-32 -114 -133 -184t-223 -70z" />
    <glyph glyph-name="ordfeminine" unicode="&#xaa;" horiz-adv-x="817" 
d="M190 670q-61 28 -96 82t-35 122q0 81 47 137.5t115 80.5t148 24q92 0 170 -35v45q0 64 -37.5 107t-100.5 43q-45 0 -86 -23q-36 -23 -51 -63l-178 35q29 97 121 153t199 56q145 0 235 -85.5t90 -232.5v-459h-178l-6 93q-32 -54 -92.5 -82.5t-128.5 -28.5q-76 0 -136 31z
M254 883q0 -48 36 -73.5t85 -25.5q68 0 116 47t48 115v12q-78 29 -138 29q-61 0 -104 -24t-43 -80z" />
    <glyph glyph-name="guillemotleft" unicode="&#xab;" horiz-adv-x="1038" 
d="M752 195l-279 389l279 389h215l-271 -389l271 -389h-215zM41 584l278 389h216l-271 -389l271 -389h-216z" />
    <glyph glyph-name="logicalnot" unicode="&#xac;" horiz-adv-x="1216" 
d="M164 555v199h848v-549h-205v350h-643z" />
    <glyph glyph-name="registered" unicode="&#xae;" horiz-adv-x="1097" 
d="M82 1014q0 197 133 329t334 132q130 0 236.5 -58.5t168.5 -164.5t62 -238q0 -197 -134 -329t-333 -132q-197 0 -332 131t-135 330zM549 1368q-148 0 -251 -102t-103 -252q0 -149 102 -252t252 -103q148 0 251 102.5t103 252.5t-101 252t-253 102zM377 1260h170
q87 0 144 -38.5t57 -121.5q0 -86 -78 -135l102 -189h-129l-76 156q-10 -2 -26 -2q-11 0 -47 4v-158h-117v484zM543 1159h-49v-127q28 -4 49 -4q35 0 59.5 17.5t24.5 50.5q0 27 -23 47q-22 16 -61 16z" />
    <glyph glyph-name="macron" unicode="&#xaf;" horiz-adv-x="1202" 
d="M287 1249v170h626v-170h-626z" />
    <glyph glyph-name="degree" unicode="&#xb0;" horiz-adv-x="761" 
d="M379 885q-137 0 -233.5 94t-96.5 233q0 136 98.5 232t235.5 96t233.5 -94.5t96.5 -233.5q0 -137 -97.5 -232t-236.5 -95zM227 1212q0 -65 44 -115t110 -50q65 0 109.5 49.5t44.5 115.5t-44 116t-110 50q-65 0 -109.5 -50t-44.5 -116z" />
    <glyph glyph-name="plusminus" unicode="&#xb1;" horiz-adv-x="1216" 
d="M510 649h-330v187h330v321h197v-321h331v-187h-331v-334h-197v334zM201 0v197h817v-197h-817z" />
    <glyph glyph-name="acute" unicode="&#xb4;" horiz-adv-x="1202" 
d="M348 1231l238 293h266l-279 -293h-225z" />
    <glyph glyph-name="paragraph" unicode="&#xb6;" horiz-adv-x="1202" 
d="M84 981q0 119 43.5 211t120.5 148.5t176 85t217 28.5h82v-1642h-164v692q-212 23 -343.5 145.5t-131.5 331.5zM1044 -188h-163v1642h163v-1642z" />
    <glyph glyph-name="periodcentered" unicode="&#xb7;" horiz-adv-x="520" 
d="M104 563q0 65 46 110.5t110 45.5q65 0 110.5 -45t45.5 -111q0 -65 -45 -110t-111 -45q-63 0 -109.5 45.5t-46.5 109.5z" />
    <glyph glyph-name="cedilla" unicode="&#xb8;" horiz-adv-x="1202" 
d="M549 -459q-83 0 -162 31l29 133q8 -2 21 -5.5t22.5 -6t17.5 -4.5q36 -4 49 -4q38 0 67.5 16t29.5 51q0 72 -138 72l64 199h151l-34 -117q63 -14 105 -60t42 -108q0 -67 -41.5 -113t-99 -65t-123.5 -19z" />
    <glyph glyph-name="ordmasculine" unicode="&#xba;" horiz-adv-x="901" 
d="M451 639q-168 0 -282 113.5t-114 283.5q0 169 112.5 283.5t283.5 114.5q169 0 282 -113.5t113 -284.5q0 -169 -112 -283t-283 -114zM258 1036q0 -89 52.5 -153t140.5 -64q87 0 139.5 63.5t52.5 153.5t-52 153.5t-140 63.5t-140.5 -63.5t-52.5 -153.5z" />
    <glyph glyph-name="guillemotright" unicode="&#xbb;" horiz-adv-x="1038" 
d="M774 584l-270 389h215l278 -389l-278 -389h-215zM72 195l270 389l-270 389h215l278 -389l-278 -389h-215z" />
    <glyph glyph-name="onequarter" unicode="&#xbc;" horiz-adv-x="1652" 
d="M967 293l336 485h192v-481h84v-141h-84v-156h-166v156h-362v137zM492 0h-187l893 1413h186zM117 1284l245 129h148v-778h-170v598l-170 -90zM1128 297h201v289z" />
    <glyph glyph-name="onehalf" unicode="&#xbd;" horiz-adv-x="1652" 
d="M455 0h-187l893 1413h187zM1163 543l-159 26q18 103 99 165.5t187 62.5q112 0 190.5 -69t78.5 -181q0 -52 -20.5 -103t-58 -96t-73.5 -78.5t-84 -70.5q-9 -7 -59 -47h309v-152h-561v125q47 35 92 74q18 16 47 40t37 31q37 34 55 49q141 122 141 224q0 44 -29 73t-73 29
q-40 0 -74 -24q-33 -26 -45 -78zM170 1143l-53 141l245 129h148v-778h-170v598z" />
    <glyph glyph-name="threequarters" unicode="&#xbe;" horiz-adv-x="1652" 
d="M967 156v137l336 485h192v-481h84v-141h-84v-156h-166v156h-362zM313 0l893 1413h187l-893 -1413h-187zM356 616q-108 0 -188.5 56t-106.5 157l158 27q13 -43 49 -66.5t82 -23.5q49 0 87 26t38 74q0 46 -36.5 70.5t-84.5 24.5h-84v147h72q50 0 84 27q33 23 33 63
q0 37 -31 62q-31 22 -76 22q-43 0 -75 -21t-44 -61l-157 27q24 98 102.5 151.5t183.5 53.5q106 0 186.5 -57.5t80.5 -160.5q0 -116 -115 -172q133 -52 133 -188q0 -74 -43.5 -130t-108.5 -82t-139 -26zM1329 586l-201 -289h201v289z" />
    <glyph glyph-name="questiondown" unicode="&#xbf;" horiz-adv-x="1017" 
d="M535 -414q-124 0 -232 49.5t-177 147.5t-69 225q0 163 104.5 277.5t272.5 167.5v192h230v-317q-51 -12 -97 -28t-95.5 -43t-85 -59.5t-58.5 -79t-23 -100.5q0 -98 66 -157.5t166 -59.5q95 0 163.5 51t96.5 142l221 -53q-44 -165 -175.5 -260t-307.5 -95zM549 776
q-62 0 -107 44.5t-45 107.5t44 107t108 44q63 0 107 -44t44 -107q0 -62 -44 -107t-107 -45z" />
    <glyph glyph-name="Agrave" unicode="&#xc0;" horiz-adv-x="1505" 
d="M39 0l579 1454h267l581 -1454h-258l-137 360h-647l-137 -360h-248zM506 573h483l-241 629zM711 1610l-334 262h303l281 -262h-250z" />
    <glyph glyph-name="Aacute" unicode="&#xc1;" horiz-adv-x="1505" 
d="M39 0l579 1454h267l581 -1454h-258l-137 360h-647l-137 -360h-248zM506 573h483l-241 629zM793 1610h-250l280 262h303z" />
    <glyph glyph-name="Acircumflex" unicode="&#xc2;" horiz-adv-x="1505" 
d="M39 0l579 1454h267l581 -1454h-258l-137 360h-647l-137 -360h-248zM748 1202l-242 -629h483zM584 1610h-244l297 262h229l297 -262h-250l-163 127z" />
    <glyph glyph-name="Atilde" unicode="&#xc3;" horiz-adv-x="1505" 
d="M39 0l579 1454h267l581 -1454h-258l-137 360h-647l-137 -360h-248zM506 573h483l-241 629zM365 1616q5 52 22 98.5t45.5 86t72.5 62.5t99 23q80 0 162 -53q71 -53 117 -53q35 0 59 24q22 26 31 70h168q-12 -112 -72.5 -191t-167.5 -79q-88 0 -160 53q-59 36 -61 37
q-29 16 -57 16q-37 0 -60 -27t-31 -67h-167z" />
    <glyph glyph-name="Adieresis" unicode="&#xc4;" horiz-adv-x="1505" 
d="M39 0l579 1454h267l581 -1454h-258l-137 360h-647l-137 -360h-248zM748 1202l-242 -629h483zM373 1735q0 60 40.5 99.5t100.5 39.5q61 0 101 -39t40 -100q0 -60 -40.5 -100t-100.5 -40q-59 0 -100 40t-41 100zM850 1735q0 60 40.5 99.5t100.5 39.5q59 0 100.5 -40
t41.5 -99t-41 -99.5t-101 -40.5q-59 0 -100 40t-41 100z" />
    <glyph glyph-name="Aring" unicode="&#xc5;" horiz-adv-x="1505" 
d="M39 0l579 1454h267l581 -1454h-258l-137 360h-647l-137 -360h-248zM526 1755q0 93 65.5 155t160.5 62q61 0 112.5 -27t83.5 -79q29 -56 29 -111q0 -93 -65 -155t-160 -62q-62 0 -115 28.5t-80 80.5q-31 51 -31 108zM506 573h483l-241 629zM659 1755q0 -36 28.5 -65
t64.5 -29q38 0 65 28t27 66q0 40 -26 67t-66 27q-38 0 -65.5 -28t-27.5 -66z" />
    <glyph glyph-name="AE" unicode="&#xc6;" horiz-adv-x="2078" 
d="M39 0l926 1454h974v-215h-614v-381h553v-215h-553v-428h635v-215h-881v360h-540l-222 -360h-278zM1079 1237l-409 -664h409v664z" />
    <glyph glyph-name="Ccedilla" unicode="&#xc7;" horiz-adv-x="1501" 
d="M94 717q0 152 51 292.5t141 248.5t225.5 172.5t293.5 64.5q209 0 373 -107t235 -301l-239 -67q-53 117 -149 181.5t-222 64.5q-85 0 -158.5 -31t-126.5 -84.5t-91 -123.5t-56.5 -148.5t-18.5 -159.5q0 -102 30 -196.5t85.5 -169.5t143.5 -120t196 -45q128 0 225.5 64
t155.5 182l239 -67q-62 -171 -208 -279t-332 -125l-21 -67q63 -18 105.5 -65t42.5 -110q0 -118 -127 -176q-61 -24 -142 -24q-89 0 -172 30l31 140q9 -2 30.5 -8.5t31.5 -8.5q36 -4 53 -4q43 0 72 19q24 18 24 49q0 72 -137 72l49 153q-141 12 -261.5 78.5t-201 169.5
t-125.5 234t-45 272z" />
    <glyph glyph-name="Egrave" unicode="&#xc8;" horiz-adv-x="1163" 
d="M143 1454h881v-215h-635v-381h574v-215h-574v-428h655v-215h-901v1454zM209 1872h303l281 -262h-250z" />
    <glyph glyph-name="Eacute" unicode="&#xc9;" horiz-adv-x="1163" 
d="M143 1454h881v-215h-635v-381h574v-215h-574v-428h655v-215h-901v1454zM625 1610h-250l280 262h303z" />
    <glyph glyph-name="Ecircumflex" unicode="&#xca;" horiz-adv-x="1163" 
d="M143 1454h881v-215h-635v-381h574v-215h-574v-428h655v-215h-901v1454zM416 1610h-244l297 262h229l297 -262h-250l-163 127z" />
    <glyph glyph-name="Edieresis" unicode="&#xcb;" horiz-adv-x="1163" 
d="M143 1454h881v-215h-635v-381h574v-215h-574v-428h655v-215h-901v1454zM346 1595q-59 0 -100 40t-41 100t40.5 99.5t100.5 39.5q61 0 101 -39t40 -100q0 -60 -40.5 -100t-100.5 -40zM823 1595q-59 0 -100 40t-41 100t40.5 99.5t100.5 39.5q59 0 100.5 -40t41.5 -99
t-41 -99.5t-101 -40.5z" />
    <glyph glyph-name="Igrave" unicode="&#xcc;" horiz-adv-x="536" 
d="M143 0v1454h250v-1454h-250zM227 1610l-333 262h303l280 -262h-250z" />
    <glyph glyph-name="Iacute" unicode="&#xcd;" horiz-adv-x="536" 
d="M143 0v1454h250v-1454h-250zM59 1610l281 262h303l-334 -262h-250z" />
    <glyph glyph-name="Icircumflex" unicode="&#xce;" horiz-adv-x="536" 
d="M393 0h-250v1454h250v-1454zM-143 1610l297 262h229l297 -262h-250l-164 127l-166 -127h-243z" />
    <glyph glyph-name="Idieresis" unicode="&#xcf;" horiz-adv-x="536" 
d="M393 0h-250v1454h250v-1454zM-111 1735q0 60 40.5 99.5t101.5 39.5t101 -39t40 -100q0 -60 -40.5 -100t-100.5 -40q-61 0 -101.5 39.5t-40.5 100.5zM508 1595q-59 0 -100 40t-41 100t40.5 99.5t100.5 39.5q59 0 100 -40t41 -99t-40.5 -99.5t-100.5 -40.5z" />
    <glyph glyph-name="Eth" unicode="&#xd0;" horiz-adv-x="1558" 
d="M164 649h-168v203h168v602h530q163 0 303.5 -48.5t244.5 -139t163 -229t59 -308.5q0 -219 -99 -385.5t-273 -255t-398 -88.5h-530v649zM682 1231h-268v-379h315v-203h-315v-426h268q236 0 380 133t144 371q0 235 -141.5 369.5t-382.5 134.5z" />
    <glyph glyph-name="Ntilde" unicode="&#xd1;" horiz-adv-x="1476" 
d="M143 0v1454h222l725 -1040v1040h243v-1454h-221l-725 1044v-1044h-244zM352 1616q7 71 33.5 129.5t80.5 99.5t126 41q80 0 162 -53q71 -53 116 -53q36 0 60 24q22 26 31 70h167q-12 -112 -72 -191t-167 -79q-88 0 -160 53q-59 36 -61 37q-29 16 -58 16q-37 0 -59 -27
t-31 -67h-168z" />
    <glyph glyph-name="Ograve" unicode="&#xd2;" horiz-adv-x="1658" 
d="M829 -41q-158 0 -295.5 59t-233.5 161.5t-151 244t-55 301.5q0 211 91 386t261 279.5t385 104.5q160 0 297.5 -59t233 -161t149.5 -243.5t54 -302.5q0 -157 -53.5 -298t-148 -245.5t-233.5 -165.5t-301 -61zM829 1266q-145 0 -255 -75t-166 -196.5t-56 -267.5
q0 -105 32.5 -202t92 -172t151 -120t201.5 -45q145 0 255.5 75.5t166.5 197t56 266.5q0 106 -32 202.5t-91 172t-151 120t-204 44.5zM788 1610l-333 262h303l280 -262h-250z" />
    <glyph glyph-name="Oacute" unicode="&#xd3;" horiz-adv-x="1658" 
d="M94 725q0 211 91 386t261 279.5t385 104.5q160 0 297.5 -59t233 -161t149.5 -243.5t54 -302.5q0 -157 -53.5 -298t-148 -245.5t-233.5 -165.5t-301 -61q-158 0 -295.5 59t-233.5 161.5t-151 244t-55 301.5zM352 727q0 -105 32.5 -202t92 -172t151 -120t201.5 -45
q145 0 255.5 75.5t166.5 197t56 266.5q0 106 -32 202.5t-91 172t-151 120t-204 44.5q-145 0 -255 -75t-166 -196.5t-56 -267.5zM621 1610l280 262h303l-334 -262h-249z" />
    <glyph glyph-name="Ocircumflex" unicode="&#xd4;" horiz-adv-x="1658" 
d="M829 -41q-158 0 -295.5 59t-233.5 161.5t-151 244t-55 301.5q0 211 91 386t261 279.5t385 104.5q160 0 297.5 -59t233 -161t149.5 -243.5t54 -302.5q0 -157 -53.5 -298t-148 -245.5t-233.5 -165.5t-301 -61zM352 727q0 -105 32.5 -202t92 -172t151 -120t201.5 -45
q145 0 255.5 75.5t166.5 197t56 266.5q0 106 -32 202.5t-91 172t-151 120t-204 44.5q-145 0 -255 -75t-166 -196.5t-56 -267.5zM662 1610h-244l297 262h229l297 -262h-250l-164 127z" />
    <glyph glyph-name="Otilde" unicode="&#xd5;" horiz-adv-x="1658" 
d="M829 -41q-158 0 -295.5 59t-233.5 161.5t-151 244t-55 301.5q0 211 91 386t261 279.5t385 104.5q160 0 297.5 -59t233 -161t149.5 -243.5t54 -302.5q0 -157 -53.5 -298t-148 -245.5t-233.5 -165.5t-301 -61zM829 1266q-145 0 -255 -75t-166 -196.5t-56 -267.5
q0 -105 32.5 -202t92 -172t151 -120t201.5 -45q145 0 255.5 75.5t166.5 197t56 266.5q0 106 -32 202.5t-91 172t-151 120t-204 44.5zM610 1616h-168q7 71 33.5 129.5t80.5 99.5t126 41q80 0 162 -53q71 -53 117 -53q35 0 59 24q22 26 31 70h168q-12 -112 -72.5 -191
t-167.5 -79q-88 0 -160 53q-59 36 -61 37q-29 16 -58 16q-37 0 -59 -27t-31 -67z" />
    <glyph glyph-name="Odieresis" unicode="&#xd6;" horiz-adv-x="1658" 
d="M94 725q0 211 91 386t261 279.5t385 104.5q160 0 297.5 -59t233 -161t149.5 -243.5t54 -302.5q0 -157 -53.5 -298t-148 -245.5t-233.5 -165.5t-301 -61q-158 0 -295.5 59t-233.5 161.5t-151 244t-55 301.5zM829 1266q-145 0 -255 -75t-166 -196.5t-56 -267.5
q0 -105 32.5 -202t92 -172t151 -120t201.5 -45q145 0 255.5 75.5t166.5 197t56 266.5q0 106 -32 202.5t-91 172t-151 120t-204 44.5zM451 1735q0 60 40.5 99.5t100.5 39.5q61 0 101 -39t40 -100q0 -60 -40.5 -100t-100.5 -40q-59 0 -100 40t-41 100zM1069 1595
q-59 0 -100 40t-41 100t40.5 99.5t100.5 39.5q59 0 100 -40t41 -99t-40.5 -99.5t-100.5 -40.5z" />
    <glyph glyph-name="multiply" unicode="&#xd7;" horiz-adv-x="1216" 
d="M324 150l-131 131l286 286l-272 273l131 131l272 -273l271 273l131 -131l-273 -273l287 -286l-131 -131l-285 286z" />
    <glyph glyph-name="Oslash" unicode="&#xd8;" horiz-adv-x="1658" 
d="M94 727q0 157 53.5 297.5t148.5 244.5t233.5 165t299.5 61q215 0 375 -100l99 131h241l-188 -252q103 -106 156 -249t53 -298q0 -209 -91 -383.5t-260.5 -279.5t-382.5 -105q-199 0 -376 100l-99 -131h-241l188 252q-103 106 -156 249t-53 298zM831 1272q-111 0 -204 -44
t-153.5 -119t-94 -174t-33.5 -210q0 -208 103 -348l618 833q-115 62 -236 62zM592 244q115 -62 235 -62q148 0 260 75.5t169 199t57 272.5q0 209 -103 348z" />
    <glyph glyph-name="Ugrave" unicode="&#xd9;" horiz-adv-x="1466" 
d="M127 578v876h250v-866q0 -111 38.5 -200t120.5 -144.5t197 -55.5q169 0 263 112.5t94 287.5v866h249v-876q0 -276 -165 -447.5t-445 -171.5q-275 0 -438.5 168t-163.5 451zM358 1872h304l280 -262h-250z" />
    <glyph glyph-name="Uacute" unicode="&#xda;" horiz-adv-x="1466" 
d="M729 -41q-275 0 -438.5 168t-163.5 451v876h250v-866q0 -111 38.5 -200t120.5 -144.5t197 -55.5q169 0 263 112.5t94 287.5v866h249v-876q0 -276 -165 -447.5t-445 -171.5zM774 1610h-250l281 262h303z" />
    <glyph glyph-name="Ucircumflex" unicode="&#xdb;" horiz-adv-x="1466" 
d="M729 -41q-275 0 -438.5 168t-163.5 451v876h250v-866q0 -111 38.5 -200t120.5 -144.5t197 -55.5q169 0 263 112.5t94 287.5v866h249v-876q0 -276 -165 -447.5t-445 -171.5zM322 1610l296 262h230l297 -262h-250l-164 127l-166 -127h-243z" />
    <glyph glyph-name="Udieresis" unicode="&#xdc;" horiz-adv-x="1466" 
d="M127 1454h250v-866q0 -111 38.5 -200t120.5 -144.5t197 -55.5q169 0 263 112.5t94 287.5v866h249v-876q0 -276 -165 -447.5t-445 -171.5q-275 0 -438.5 168t-163.5 451v876zM496 1595q-59 0 -100.5 40.5t-41.5 99.5q0 60 41 99.5t101 39.5q61 0 101 -39t40 -100
q0 -60 -40.5 -100t-100.5 -40zM973 1595q-59 0 -100.5 40.5t-41.5 99.5q0 60 41 99.5t101 39.5q59 0 100 -40t41 -99t-40.5 -99.5t-100.5 -40.5z" />
    <glyph glyph-name="Yacute" unicode="&#xdd;" horiz-adv-x="1327" 
d="M539 573l-510 881h282l357 -651l354 651h276l-510 -881v-573h-249v573zM702 1610h-249l280 262h303z" />
    <glyph glyph-name="Thorn" unicode="&#xde;" horiz-adv-x="1202" 
d="M143 1454h246v-246h195q93 0 174.5 -17t152 -54t120.5 -92t79 -136t29 -180q0 -94 -30 -172.5t-82.5 -134t-124.5 -94t-154.5 -56.5t-174.5 -18q-77 0 -184 14v-268h-246v1454zM389 991v-506q100 -14 174 -14q68 0 124 13.5t101.5 43t71 81t25.5 122.5q0 132 -84 196
t-221 64h-191z" />
    <glyph glyph-name="germandbls" unicode="&#xdf;" horiz-adv-x="1228" 
d="M362 0h-235v1063q0 212 131 348.5t346 136.5q122 0 226.5 -46.5t172.5 -141t68 -219.5q0 -101 -47 -184t-133 -136q124 -45 191 -148t67 -239q0 -198 -135 -326t-336 -128q-115 0 -193 32l35 201q33 -11 64 -16q34 -9 69 -9q110 0 182 69.5t72 180.5q0 119 -79.5 193
t-200.5 74h-66v198h45q96 0 162 60.5t66 156.5q0 94 -67 154.5t-163 60.5q-115 0 -178.5 -76.5t-63.5 -195.5v-1063z" />
    <glyph glyph-name="agrave" unicode="&#xe0;" horiz-adv-x="1134" 
d="M455 -31q-100 0 -185.5 38.5t-139.5 116.5t-54 181q0 87 37.5 154.5t100.5 107t139 60t159 20.5q140 0 262 -51v68q0 106 -58 173.5t-163 67.5q-74 0 -133.5 -39.5t-87.5 -107.5l-217 49q38 138 164.5 216.5t277.5 78.5q198 0 324.5 -124t126.5 -325v-653h-215l-9 141
q-49 -86 -137 -129t-192 -43zM549 481q-57 0 -107.5 -14.5t-89.5 -53.5t-39 -98q0 -75 59 -116t138 -41q110 0 187 70t77 180v24q-60 24 -108 37q-58 12 -117 12zM233 1524h267l237 -293h-225z" />
    <glyph glyph-name="aacute" unicode="&#xe1;" horiz-adv-x="1134" 
d="M76 305q0 87 37.5 154.5t100.5 107t139 60t159 20.5q140 0 262 -51v68q0 106 -58 173.5t-163 67.5q-74 0 -133.5 -39.5t-87.5 -107.5l-217 49q38 138 164.5 216.5t277.5 78.5q198 0 324.5 -124t126.5 -325v-653h-215l-9 141q-49 -86 -137 -129t-192 -43
q-100 0 -185.5 38.5t-139.5 116.5t-54 181zM313 315q0 -75 59 -116t138 -41q110 0 187 70t77 180v24q-60 24 -108 37q-58 12 -117 12q-57 0 -107.5 -14.5t-89.5 -53.5t-39 -98zM610 1231h-225l238 293h266z" />
    <glyph glyph-name="acircumflex" unicode="&#xe2;" horiz-adv-x="1134" 
d="M76 305q0 87 37.5 154.5t100.5 107t139 60t159 20.5q140 0 262 -51v68q0 106 -58 173.5t-163 67.5q-74 0 -133.5 -39.5t-87.5 -107.5l-217 49q38 138 164.5 216.5t277.5 78.5q198 0 324.5 -124t126.5 -325v-653h-215l-9 141q-49 -86 -137 -129t-192 -43
q-100 0 -185.5 38.5t-139.5 116.5t-54 181zM313 315q0 -75 59 -116t138 -41q110 0 187 70t77 180v24q-60 24 -108 37q-58 12 -117 12q-57 0 -107.5 -14.5t-89.5 -53.5t-39 -98zM203 1231l264 293h190l265 -293h-215l-146 145l-149 -145h-209z" />
    <glyph glyph-name="atilde" unicode="&#xe3;" horiz-adv-x="1134" 
d="M455 -31q-100 0 -185.5 38.5t-139.5 116.5t-54 181q0 87 37.5 154.5t100.5 107t139 60t159 20.5q140 0 262 -51v68q0 106 -58 173.5t-163 67.5q-74 0 -133.5 -39.5t-87.5 -107.5l-217 49q38 138 164.5 216.5t277.5 78.5q198 0 324.5 -124t126.5 -325v-653h-215l-9 141
q-49 -86 -137 -129t-192 -43zM383 1233h-164q5 50 18 95t37 86.5t64 66t92 24.5q77 0 143 -51q71 -51 101 -51q27 0 45 24q19 22 22 68h164q-4 -48 -17.5 -93t-37.5 -87t-64.5 -67t-91.5 -25q-77 0 -141 51q-25 20 -53 37q-22 14 -49 14q-26 0 -45 -22q-20 -27 -23 -70z
M313 315q0 -75 59 -116t138 -41q110 0 187 70t77 180v24q-60 24 -108 37q-58 12 -117 12q-57 0 -107.5 -14.5t-89.5 -53.5t-39 -98z" />
    <glyph glyph-name="adieresis" unicode="&#xe4;" horiz-adv-x="1134" 
d="M76 305q0 87 37.5 154.5t100.5 107t139 60t159 20.5q140 0 262 -51v68q0 106 -58 173.5t-163 67.5q-74 0 -133.5 -39.5t-87.5 -107.5l-217 49q38 138 164.5 216.5t277.5 78.5q198 0 324.5 -124t126.5 -325v-653h-215l-9 141q-49 -86 -137 -129t-192 -43
q-100 0 -185.5 38.5t-139.5 116.5t-54 181zM549 481q-57 0 -107.5 -14.5t-89.5 -53.5t-39 -98q0 -75 59 -116t138 -41q110 0 187 70t77 180v24q-60 24 -108 37q-58 12 -117 12zM354 1237q-54 0 -93.5 39.5t-39.5 93.5t39.5 93.5t93.5 39.5q72 0 117 -65q16 -32 16 -68
q0 -56 -38.5 -94.5t-94.5 -38.5zM653 1305q-18 27 -18 65q0 56 38.5 94.5t94.5 38.5q54 0 93.5 -39t39.5 -94q0 -54 -39.5 -93.5t-93.5 -39.5q-36 0 -68 18.5t-47 49.5z" />
    <glyph glyph-name="aring" unicode="&#xe5;" horiz-adv-x="1134" 
d="M455 -31q-100 0 -185.5 38.5t-139.5 116.5t-54 181q0 87 37.5 154.5t100.5 107t139 60t159 20.5q140 0 262 -51v68q0 106 -58 173.5t-163 67.5q-74 0 -133.5 -39.5t-87.5 -107.5l-217 49q38 138 164.5 216.5t277.5 78.5q198 0 324.5 -124t126.5 -325v-653h-215l-9 141
q-49 -86 -137 -129t-192 -43zM340 1389q0 90 65.5 151.5t155.5 61.5q121 0 193 -105q28 -51 28 -108q0 -90 -64.5 -151.5t-156.5 -61.5q-58 0 -109.5 28t-80.5 78q-31 48 -31 107zM313 315q0 -75 59 -116t138 -41q110 0 187 70t77 180v24q-60 24 -108 37q-58 12 -117 12
q-57 0 -107.5 -14.5t-89.5 -53.5t-39 -98zM561 1485q-40 0 -67 -28t-27 -68q0 -39 28 -68t66 -29q39 0 66.5 28.5t27.5 68.5q0 41 -26.5 68.5t-67.5 27.5z" />
    <glyph glyph-name="ae" unicode="&#xe6;" horiz-adv-x="1824" 
d="M76 307q0 85 36 152t97.5 107t136 60.5t156.5 20.5q68 0 133 -12q59 -14 119 -39v68q0 69 -25 127q-60 114 -186 114q-73 0 -128.5 -39.5t-82.5 -107.5l-217 49q38 137 160.5 216t271.5 79q106 0 194 -45t144 -133q71 86 167 132t208 46q113 0 206.5 -44.5t155 -120
t95.5 -176t34 -212.5v-70h-772q13 -132 87.5 -218.5t203.5 -86.5q164 0 252 150l207 -80q-57 -129 -182.5 -202t-272.5 -73q-128 0 -238 57t-180 162q-45 -107 -150.5 -163t-230.5 -56q-103 0 -192 37.5t-148 116t-59 184.5zM313 315q0 -74 56.5 -115.5t132.5 -41.5
q107 0 179.5 71t72.5 179v26q-44 18 -105 35q-55 12 -110 12q-57 0 -105.5 -15t-84.5 -54t-36 -97zM1251 911q-108 0 -177 -75.5t-91 -188.5h522q-13 110 -80 187t-174 77z" />
    <glyph glyph-name="ccedilla" unicode="&#xe7;" horiz-adv-x="1148" 
d="M532 -25q-135 18 -239 98t-158.5 199t-54.5 256q0 113 38.5 217.5t107 183.5t169.5 126t219 47q162 0 288 -85.5t169 -238.5l-223 -53q-33 76 -95 120t-143 44q-68 0 -124 -32t-91 -84t-54 -115t-19 -128q0 -89 30.5 -166.5t98 -129.5t159.5 -52q84 0 150 43t100 119
l221 -51q-36 -128 -147.5 -215t-249.5 -105l-20 -67q63 -14 105 -60t42 -108q0 -67 -41.5 -113t-99 -65t-123.5 -19q-83 0 -162 31l29 133q8 -2 21 -5.5t22.5 -6t17.5 -4.5q36 -4 49 -4q38 0 67.5 16t29.5 51q0 72 -138 72z" />
    <glyph glyph-name="egrave" unicode="&#xe8;" horiz-adv-x="1189" 
d="M625 -31q-158 0 -283 74t-193.5 203.5t-68.5 290.5q0 150 64.5 278.5t186 207.5t275.5 79q155 0 272 -73t177.5 -198t60.5 -282v-70h-792q13 -131 92.5 -218t208.5 -87q167 0 262 150l207 -80q-59 -133 -187 -204t-282 -71zM606 911q-110 0 -181.5 -74.5t-94.5 -189.5
h540q-19 115 -85.5 189.5t-178.5 74.5zM279 1524h266l237 -293h-225z" />
    <glyph glyph-name="eacute" unicode="&#xe9;" horiz-adv-x="1189" 
d="M80 537q0 150 64.5 278.5t186 207.5t275.5 79q155 0 272 -73t177.5 -198t60.5 -282v-70h-792q13 -131 92.5 -218t208.5 -87q167 0 262 150l207 -80q-59 -133 -187 -204t-282 -71q-158 0 -283 74t-193.5 203.5t-68.5 290.5zM330 647h540q-19 115 -85.5 189.5t-178.5 74.5
q-110 0 -181.5 -74.5t-94.5 -189.5zM655 1231h-225l238 293h266z" />
    <glyph glyph-name="ecircumflex" unicode="&#xea;" horiz-adv-x="1189" 
d="M625 -31q-158 0 -283 74t-193.5 203.5t-68.5 290.5q0 150 64.5 278.5t186 207.5t275.5 79q155 0 272 -73t177.5 -198t60.5 -282v-70h-792q13 -131 92.5 -218t208.5 -87q167 0 262 150l207 -80q-59 -133 -187 -204t-282 -71zM248 1231l264 293h190l265 -293h-215l-146 145
l-149 -145h-209zM330 647h540q-19 115 -85.5 189.5t-178.5 74.5q-110 0 -181.5 -74.5t-94.5 -189.5z" />
    <glyph glyph-name="edieresis" unicode="&#xeb;" horiz-adv-x="1189" 
d="M625 -31q-158 0 -283 74t-193.5 203.5t-68.5 290.5q0 150 64.5 278.5t186 207.5t275.5 79q155 0 272 -73t177.5 -198t60.5 -282v-70h-792q13 -131 92.5 -218t208.5 -87q167 0 262 150l207 -80q-59 -133 -187 -204t-282 -71zM606 911q-110 0 -181.5 -74.5t-94.5 -189.5
h540q-19 115 -85.5 189.5t-178.5 74.5zM680 1370q0 56 39 94.5t94 38.5q54 0 93.5 -39t39.5 -94q0 -54 -39.5 -93.5t-93.5 -39.5q-36 0 -68 18.5t-47 49.5q-18 27 -18 65zM399 1237q-54 0 -93.5 39.5t-39.5 93.5t39.5 93.5t93.5 39.5q72 0 117 -65q16 -32 16 -68
q0 -56 -39 -94.5t-94 -38.5z" />
    <glyph glyph-name="igrave" unicode="&#xec;" horiz-adv-x="489" 
d="M127 0v1071h235v-1071h-235zM193 1231l-279 293h266l238 -293h-225z" />
    <glyph glyph-name="iacute" unicode="&#xed;" horiz-adv-x="489" 
d="M127 0v1071h235v-1071h-235zM66 1231l237 293h266l-278 -293h-225z" />
    <glyph glyph-name="icircumflex" unicode="&#xee;" horiz-adv-x="489" 
d="M362 0h-235v1071h235v-1071zM-117 1231l264 293h191l264 -293h-215l-145 145l-150 -145h-209z" />
    <glyph glyph-name="idieresis" unicode="&#xef;" horiz-adv-x="489" 
d="M362 0h-235v1071h235v-1071zM-98 1370q0 54 39 93.5t94 39.5q72 0 117 -65q16 -32 16 -68q0 -56 -39 -94.5t-94 -38.5q-54 0 -93.5 39.5t-39.5 93.5zM334 1305q-19 29 -19 65q0 55 39 94t95 39q54 0 93.5 -39t39.5 -94q0 -54 -39.5 -93.5t-93.5 -39.5q-36 0 -68 18.5
t-47 49.5z" />
    <glyph glyph-name="eth" unicode="&#xf0;" horiz-adv-x="1275" 
d="M625 -31q-153 0 -277.5 71t-196 197t-71.5 281q0 107 37 207t102 176t161 122t206 46q188 0 303 -133q-74 164 -187 301l-196 -94l-68 141l154 74q-52 52 -150 127l240 63q64 -47 111 -92l182 88l67 -141l-139 -68q129 -162 203 -355t74 -388q0 -127 -35.5 -238.5
t-103 -198t-175 -136.5t-241.5 -50zM631 860q-139 0 -224 -97.5t-85 -240.5q0 -140 85 -240t224 -100q138 0 222.5 98.5t84.5 241.5t-82.5 240.5t-224.5 97.5z" />
    <glyph glyph-name="ntilde" unicode="&#xf1;" horiz-adv-x="1202" 
d="M127 1071h215l8 -147q48 86 136 132t192 46q97 0 174 -37t125 -101.5t73 -147.5t25 -179v-637h-235v610q0 77 -20.5 137.5t-72 101t-129.5 40.5q-113 0 -184.5 -75.5t-71.5 -190.5v-623h-235v1071zM422 1233h-164q5 50 18 95t37 86.5t64 66t92 24.5q77 0 143 -51
q71 -51 101 -51q27 0 45 24q19 22 22 68h164q-4 -48 -17.5 -93t-37.5 -87t-64.5 -67t-91.5 -25q-77 0 -141 51q-25 20 -53 37q-22 14 -50 14q-26 0 -45 -22q-19 -26 -22 -70z" />
    <glyph glyph-name="ograve" unicode="&#xf2;" horiz-adv-x="1257" 
d="M625 -31q-156 0 -281 75t-194.5 205t-69.5 288t68.5 286.5t195.5 203.5t289 75q157 0 282 -74t194 -203t69 -288q0 -158 -68.5 -287t-196 -205t-288.5 -76zM629 889q-140 0 -223.5 -103.5t-83.5 -248.5q0 -142 84 -248.5t223 -106.5q140 0 223.5 105.5t83.5 249.5
q0 145 -82.5 248.5t-224.5 103.5zM580 1231l-279 293h266l238 -293h-225z" />
    <glyph glyph-name="oacute" unicode="&#xf3;" horiz-adv-x="1257" 
d="M625 -31q-156 0 -281 75t-194.5 205t-69.5 288t68.5 286.5t195.5 203.5t289 75q157 0 282 -74t194 -203t69 -288q0 -158 -68.5 -287t-196 -205t-288.5 -76zM322 537q0 -142 84 -248.5t223 -106.5q140 0 223.5 105.5t83.5 249.5q0 145 -82.5 248.5t-224.5 103.5
q-140 0 -223.5 -103.5t-83.5 -248.5zM453 1231l237 293h266l-278 -293h-225z" />
    <glyph glyph-name="ocircumflex" unicode="&#xf4;" horiz-adv-x="1257" 
d="M625 -31q-156 0 -281 75t-194.5 205t-69.5 288t68.5 286.5t195.5 203.5t289 75q157 0 282 -74t194 -203t69 -288q0 -158 -68.5 -287t-196 -205t-288.5 -76zM629 889q-140 0 -223.5 -103.5t-83.5 -248.5q0 -142 84 -248.5t223 -106.5q140 0 223.5 105.5t83.5 249.5
q0 145 -82.5 248.5t-224.5 103.5zM479 1231h-209l265 293h190l264 -293h-215l-145 145z" />
    <glyph glyph-name="otilde" unicode="&#xf5;" horiz-adv-x="1257" 
d="M80 537q0 158 68.5 286.5t195.5 203.5t289 75q157 0 282 -74t194 -203t69 -288q0 -158 -68.5 -287t-196 -205t-288.5 -76q-156 0 -281 75t-194.5 205t-69.5 288zM629 889q-140 0 -223.5 -103.5t-83.5 -248.5q0 -142 84 -248.5t223 -106.5q140 0 223.5 105.5t83.5 249.5
q0 145 -82.5 248.5t-224.5 103.5zM451 1233h-164q5 50 18 95t37 86.5t64 66t92 24.5q77 0 143 -51q71 -51 100 -51q27 0 45 24q20 23 23 68h164q-4 -48 -17.5 -93t-37.5 -87t-64.5 -67t-91.5 -25q-77 0 -141 51q-21 17 -54 37q-22 14 -49 14q-26 0 -45 -22q-19 -26 -22 -70z
" />
    <glyph glyph-name="odieresis" unicode="&#xf6;" horiz-adv-x="1257" 
d="M80 537q0 158 68.5 286.5t195.5 203.5t289 75q157 0 282 -74t194 -203t69 -288q0 -158 -68.5 -287t-196 -205t-288.5 -76q-156 0 -281 75t-194.5 205t-69.5 288zM629 889q-140 0 -223.5 -103.5t-83.5 -248.5q0 -142 84 -248.5t223 -106.5q140 0 223.5 105.5t83.5 249.5
q0 145 -82.5 248.5t-224.5 103.5zM702 1370q0 55 39 94t95 39q54 0 93.5 -39t39.5 -94q0 -54 -39.5 -93.5t-93.5 -39.5q-36 0 -68 18.5t-47 49.5q-19 29 -19 65zM289 1370q0 54 39.5 93.5t93.5 39.5q72 0 117 -65q16 -32 16 -68q0 -56 -38.5 -94.5t-94.5 -38.5
q-54 0 -93.5 39.5t-39.5 93.5z" />
    <glyph glyph-name="divide" unicode="&#xf7;" horiz-adv-x="1216" 
d="M180 668h856v-207h-856v207zM545 797q-30 15 -47 44t-17 64q0 53 36.5 90t90.5 37q34 0 66 -16q61 -39 61 -111q0 -53 -36.5 -90t-90.5 -37q-34 0 -63 19zM481 223q0 53 36.5 90t90.5 37q34 0 66 -16q61 -39 61 -111q0 -53 -36.5 -90t-90.5 -37q-34 0 -63 19
q-30 15 -47 44t-17 64z" />
    <glyph glyph-name="oslash" unicode="&#xf8;" horiz-adv-x="1257" 
d="M231 139q-73 81 -112 184.5t-39 213.5q0 158 68.5 286.5t195.5 203.5t289 75q138 0 254 -64l61 84h215l-137 -188q73 -81 112.5 -184.5t39.5 -212.5q0 -158 -68.5 -287t-196 -205t-288.5 -76q-138 0 -254 64l-62 -84h-215zM887 741l-389 -532q64 -31 131 -31
q141 0 226 106.5t85 252.5q0 117 -53 204zM629 893q-94 0 -166.5 -51t-109 -131.5t-36.5 -173.5q0 -113 54 -207l389 532q-64 31 -131 31z" />
    <glyph glyph-name="ugrave" unicode="&#xf9;" horiz-adv-x="1200" 
d="M127 473v598h235v-602q0 -79 23.5 -141.5t79 -104t135.5 -41.5t135.5 41.5t79 104t23.5 141.5v602h235v-598q0 -222 -125.5 -363t-349.5 -141q-219 0 -345 139.5t-126 364.5zM549 1231l-279 293h267l237 -293h-225z" />
    <glyph glyph-name="uacute" unicode="&#xfa;" horiz-adv-x="1200" 
d="M598 -31q-219 0 -345 139.5t-126 364.5v598h235v-602q0 -79 23.5 -141.5t79 -104t135.5 -41.5t135.5 41.5t79 104t23.5 141.5v602h235v-598q0 -222 -125.5 -363t-349.5 -141zM422 1231l237 293h267l-279 -293h-225z" />
    <glyph glyph-name="ucircumflex" unicode="&#xfb;" horiz-adv-x="1200" 
d="M127 473v598h235v-602q0 -79 23.5 -141.5t79 -104t135.5 -41.5t135.5 41.5t79 104t23.5 141.5v602h235v-598q0 -222 -125.5 -363t-349.5 -141q-219 0 -345 139.5t-126 364.5zM240 1231l264 293h190l264 -293h-215l-145 145l-149 -145h-209z" />
    <glyph glyph-name="udieresis" unicode="&#xfc;" horiz-adv-x="1200" 
d="M127 1071h235v-602q0 -79 23.5 -141.5t79 -104t135.5 -41.5t135.5 41.5t79 104t23.5 141.5v602h235v-598q0 -222 -125.5 -363t-349.5 -141q-219 0 -345 139.5t-126 364.5v598zM690 1305q-18 27 -18 65q0 56 39 94.5t94 38.5q54 0 93.5 -39t39.5 -94q0 -54 -39.5 -93.5
t-93.5 -39.5q-36 0 -68 18.5t-47 49.5zM391 1237q-54 0 -93.5 39.5t-39.5 93.5t39.5 93.5t93.5 39.5q72 0 117 -65q16 -32 16 -68q0 -56 -39 -94.5t-94 -38.5z" />
    <glyph glyph-name="yacute" unicode="&#xfd;" horiz-adv-x="1116" 
d="M465 10l-436 1061h258l288 -801l263 801h249l-454 -1200q-55 -141 -140.5 -219t-222.5 -78q-101 0 -180 43l51 186q7 -3 52 -18q27 -6 55 -6q69 0 112 38t72 109zM606 1231h-225l237 293h267z" />
    <glyph glyph-name="thorn" unicode="&#xfe;" horiz-adv-x="1294" 
d="M127 1524h235v-609q59 90 152 138.5t201 48.5q147 0 263 -79.5t176 -206.5t60 -275q0 -110 -36 -213t-100.5 -183t-162.5 -128t-213 -48q-104 0 -192.5 44t-147.5 128v-547h-235v1930zM666 889q-140 0 -224 -103.5t-84 -248.5q0 -142 84.5 -248.5t223.5 -106.5
q140 0 223.5 105.5t83.5 249.5q0 145 -82.5 248.5t-224.5 103.5z" />
    <glyph glyph-name="ydieresis" unicode="&#xff;" horiz-adv-x="1116" 
d="M29 1071h258l288 -801l263 801h249l-454 -1200q-55 -141 -140.5 -219t-222.5 -78q-101 0 -180 43l51 186q7 -3 52 -18q27 -6 55 -6q69 0 112 38t72 109l33 84zM631 1370q0 56 38.5 94.5t94.5 38.5q54 0 93.5 -39t39.5 -94q0 -54 -39.5 -93.5t-93.5 -39.5q-36 0 -68 18.5
t-47 49.5q-18 27 -18 65zM217 1370q0 54 39.5 93.5t93.5 39.5q72 0 117 -65q16 -32 16 -68q0 -56 -38.5 -94.5t-94.5 -38.5q-54 0 -93.5 39.5t-39.5 93.5z" />
    <glyph glyph-name="Amacron" unicode="&#x100;" horiz-adv-x="1505" 
d="M39 0l579 1454h267l581 -1454h-258l-137 360h-647l-137 -360h-248zM506 573h483l-241 629zM1110 1620h-717v180h717v-180z" />
    <glyph glyph-name="amacron" unicode="&#x101;" horiz-adv-x="1134" 
d="M76 305q0 87 37.5 154.5t100.5 107t139 60t159 20.5q140 0 262 -51v68q0 106 -58 173.5t-163 67.5q-74 0 -133.5 -39.5t-87.5 -107.5l-217 49q38 138 164.5 216.5t277.5 78.5q198 0 324.5 -124t126.5 -325v-653h-215l-9 141q-49 -86 -137 -129t-192 -43
q-100 0 -185.5 38.5t-139.5 116.5t-54 181zM549 481q-57 0 -107.5 -14.5t-89.5 -53.5t-39 -98q0 -75 59 -116t138 -41q110 0 187 70t77 180v24q-60 24 -108 37q-58 12 -117 12zM248 1419h626v-170h-626v170z" />
    <glyph glyph-name="Abreve" unicode="&#x102;" horiz-adv-x="1505" 
d="M39 0l579 1454h267l581 -1454h-258l-137 360h-647l-137 -360h-248zM506 573h483l-241 629zM459 1733q-51 60 -66 149h195q15 -59 58.5 -92t105.5 -33q64 0 106 32t57 93h195q-23 -132 -121.5 -207.5t-236.5 -75.5q-88 0 -165 33.5t-128 100.5z" />
    <glyph glyph-name="abreve" unicode="&#x103;" horiz-adv-x="1134" 
d="M76 305q0 87 37.5 154.5t100.5 107t139 60t159 20.5q140 0 262 -51v68q0 106 -58 173.5t-163 67.5q-74 0 -133.5 -39.5t-87.5 -107.5l-217 49q38 138 164.5 216.5t277.5 78.5q198 0 324.5 -124t126.5 -325v-653h-215l-9 141q-49 -86 -137 -129t-192 -43
q-100 0 -185.5 38.5t-139.5 116.5t-54 181zM549 481q-57 0 -107.5 -14.5t-89.5 -53.5t-39 -98q0 -75 59 -116t138 -41q110 0 187 70t77 180v24q-60 24 -108 37q-58 12 -117 12zM227 1501h189q32 -117 145 -117q115 0 146 117h188q-23 -127 -113 -199.5t-221 -72.5
q-129 0 -220 72.5t-114 199.5z" />
    <glyph glyph-name="Aogonek" unicode="&#x104;" horiz-adv-x="1505" 
d="M39 0l579 1454h267l581 -1454q-184 -142 -184 -219q0 -32 23.5 -50t56.5 -18q55 0 100 19l27 -152q-110 -35 -178 -35q-92 0 -159 48t-67 137q0 74 50 139.5t129 130.5h-56l-137 360h-647l-137 -360h-248zM748 1202l-242 -629h483z" />
    <glyph glyph-name="aogonek" unicode="&#x105;" horiz-adv-x="1134" 
d="M76 305q0 87 37.5 154.5t100.5 107t139 60t159 20.5q140 0 262 -51v68q0 106 -58 173.5t-163 67.5q-74 0 -133.5 -39.5t-87.5 -107.5l-217 49q38 138 164.5 216.5t277.5 78.5q198 0 324.5 -124t126.5 -325v-653q-185 -143 -185 -219q0 -32 23.5 -50t56.5 -18q64 0 101 19
l26 -146q-90 -35 -174 -35q-90 0 -156.5 46.5t-66.5 134.5q0 123 180 268h-20l-9 141q-49 -86 -137 -129t-192 -43q-100 0 -185.5 38.5t-139.5 116.5t-54 181zM549 481q-57 0 -107.5 -14.5t-89.5 -53.5t-39 -98q0 -75 59 -116t138 -41q110 0 187 70t77 180v24
q-60 24 -108 37q-58 12 -117 12z" />
    <glyph glyph-name="Cacute" unicode="&#x106;" horiz-adv-x="1501" 
d="M805 -41q-156 0 -289.5 59.5t-225.5 161.5t-144 241.5t-52 295.5q0 152 51 292.5t141 248.5t225.5 172.5t293.5 64.5q209 0 373 -107t235 -301l-239 -67q-53 117 -149 181.5t-222 64.5q-85 0 -158.5 -31t-126.5 -84.5t-91 -123.5t-56.5 -148.5t-18.5 -159.5
q0 -102 30 -196.5t85.5 -169.5t143.5 -120t196 -45q128 0 225.5 64t155.5 182l239 -67q-70 -193 -239.5 -300.5t-382.5 -107.5zM844 1610h-250l280 262h304z" />
    <glyph glyph-name="cacute" unicode="&#x107;" horiz-adv-x="1148" 
d="M610 -31q-152 0 -274 75t-189 202.5t-67 281.5q0 113 38.5 217.5t107 183.5t169.5 126t219 47q162 0 288 -85.5t169 -238.5l-223 -53q-33 76 -95 120t-143 44q-68 0 -124 -32t-91 -84t-54 -115t-19 -128q0 -89 30.5 -166.5t98 -129.5t159.5 -52q84 0 150 43t100 119
l221 -51q-28 -99 -101.5 -174t-169.5 -112.5t-200 -37.5zM664 1231h-226l238 293h266z" />
    <glyph glyph-name="Cdotaccent" unicode="&#x10a;" horiz-adv-x="1501" 
d="M805 -41q-156 0 -289.5 59.5t-225.5 161.5t-144 241.5t-52 295.5q0 152 51 292.5t141 248.5t225.5 172.5t293.5 64.5q209 0 373 -107t235 -301l-239 -67q-53 117 -149 181.5t-222 64.5q-85 0 -158.5 -31t-126.5 -84.5t-91 -123.5t-56.5 -148.5t-18.5 -159.5
q0 -102 30 -196.5t85.5 -169.5t143.5 -120t196 -45q128 0 225.5 64t155.5 182l239 -67q-70 -193 -239.5 -300.5t-382.5 -107.5zM676 1669q-21 35 -21 74t21 74q16 30 53 53q35 18 74 18q41 0 76 -18q33 -20 53 -53q18 -35 18 -74t-18 -74q-23 -37 -53 -53q-35 -21 -76 -21
q-39 0 -74 21q-35 18 -53 53z" />
    <glyph glyph-name="cdotaccent" unicode="&#x10b;" horiz-adv-x="1148" 
d="M610 -31q-152 0 -274 75t-189 202.5t-67 281.5q0 113 38.5 217.5t107 183.5t169.5 126t219 47q162 0 288 -85.5t169 -238.5l-223 -53q-33 76 -95 120t-143 44q-68 0 -124 -32t-91 -84t-54 -115t-19 -128q0 -89 30.5 -166.5t98 -129.5t159.5 -52q84 0 150 43t100 119
l221 -51q-28 -99 -101.5 -174t-169.5 -112.5t-200 -37.5zM492 1298q-21 34 -21 72t21 72q38 71 122 71q40 0 74 -18q33 -23 51 -53q19 -36 19 -72t-19 -72q-46 -71 -125 -71q-42 0 -71 20q-34 17 -51 51z" />
    <glyph glyph-name="Ccaron" unicode="&#x10c;" horiz-adv-x="1501" 
d="M805 -41q-156 0 -289.5 59.5t-225.5 161.5t-144 241.5t-52 295.5q0 152 51 292.5t141 248.5t225.5 172.5t293.5 64.5q209 0 373 -107t235 -301l-239 -67q-53 117 -149 181.5t-222 64.5q-85 0 -158.5 -31t-126.5 -84.5t-91 -123.5t-56.5 -148.5t-18.5 -159.5
q0 -102 30 -196.5t85.5 -169.5t143.5 -120t196 -45q128 0 225.5 64t155.5 182l239 -67q-70 -193 -239.5 -300.5t-382.5 -107.5zM391 1872h250l164 -127l166 127h243l-296 -262h-230z" />
    <glyph glyph-name="ccaron" unicode="&#x10d;" horiz-adv-x="1148" 
d="M80 528q0 113 38.5 217.5t107 183.5t169.5 126t219 47q162 0 288 -85.5t169 -238.5l-223 -53q-33 76 -95 120t-143 44q-68 0 -124 -32t-91 -84t-54 -115t-19 -128q0 -89 30.5 -166.5t98 -129.5t159.5 -52q84 0 150 43t100 119l221 -51q-28 -99 -101.5 -174t-169.5 -112.5
t-200 -37.5q-152 0 -274 75t-189 202.5t-67 281.5zM520 1231l-264 293h215l145 -146l150 146h209l-264 -293h-191z" />
    <glyph glyph-name="Dcaron" unicode="&#x10e;" horiz-adv-x="1538" 
d="M674 0h-531v1454h531q163 0 303.5 -48.5t244.5 -139t163 -229t59 -308.5q0 -219 -99 -385.5t-273 -255t-398 -88.5zM393 1231v-1008h269q236 0 380 133t144 371q0 235 -141.5 369.5t-382.5 134.5h-269zM600 1610l-297 262h250l164 -127l166 127h243l-297 -262h-229z" />
    <glyph glyph-name="dcaron" unicode="&#x10f;" horiz-adv-x="1294" 
d="M580 -31q-110 0 -205 46.5t-159 124.5t-100 179.5t-36 210.5q0 148 61 277.5t180 212t271 82.5q104 0 192.5 -44t147.5 -128v594h235v-1524h-215l-10 172q-58 -97 -153 -150t-209 -53zM322 535q0 -91 35 -170.5t106.5 -131t165.5 -51.5q93 0 164.5 50.5t107 130
t35.5 172.5q0 146 -82 250t-225 104q-140 0 -223.5 -104.5t-83.5 -249.5zM1462 1163h-151l35 361h208z" />
    <glyph glyph-name="Dcroat" unicode="&#x110;" horiz-adv-x="1558" 
d="M164 649h-168v203h168v602h530q163 0 303.5 -48.5t244.5 -139t163 -229t59 -308.5q0 -219 -99 -385.5t-273 -255t-398 -88.5h-530v649zM682 1231h-268v-379h315v-203h-315v-426h268q236 0 380 133t144 371q0 235 -141.5 369.5t-382.5 134.5z" />
    <glyph glyph-name="dcroat" unicode="&#x111;" horiz-adv-x="1294" 
d="M580 -31q-110 0 -205 46.5t-159 124.5t-100 179.5t-36 210.5q0 148 61 277.5t180 212t271 82.5q104 0 192.5 -44t147.5 -128v280h-299v166h299v148h235v-148h152v-166h-152v-1210h-215l-10 172q-58 -97 -153 -150t-209 -53zM629 889q-140 0 -223.5 -104.5t-83.5 -249.5
q0 -91 35 -170.5t106.5 -131t165.5 -51.5q93 0 164.5 50.5t107 130t35.5 172.5q0 146 -82 250t-225 104z" />
    <glyph glyph-name="Emacron" unicode="&#x112;" horiz-adv-x="1163" 
d="M143 0v1454h881v-215h-635v-381h574v-215h-574v-428h655v-215h-901zM942 1620h-717v180h717v-180z" />
    <glyph glyph-name="emacron" unicode="&#x113;" horiz-adv-x="1189" 
d="M625 -31q-158 0 -283 74t-193.5 203.5t-68.5 290.5q0 150 64.5 278.5t186 207.5t275.5 79q155 0 272 -73t177.5 -198t60.5 -282v-70h-792q13 -131 92.5 -218t208.5 -87q167 0 262 150l207 -80q-59 -133 -187 -204t-282 -71zM606 911q-110 0 -181.5 -74.5t-94.5 -189.5
h540q-19 115 -85.5 189.5t-178.5 74.5zM293 1419h627v-170h-627v170z" />
    <glyph glyph-name="Edotaccent" unicode="&#x116;" horiz-adv-x="1163" 
d="M143 1454h881v-215h-635v-381h574v-215h-574v-428h655v-215h-901v1454zM457 1669q-21 35 -21 74t21 74q16 30 53 53q34 18 74 18t75 -18q35 -21 54 -53q18 -35 18 -74t-18 -74q-22 -36 -54 -53q-35 -21 -75 -21t-74 21q-35 18 -53 53z" />
    <glyph glyph-name="edotaccent" unicode="&#x117;" horiz-adv-x="1189" 
d="M80 537q0 150 64.5 278.5t186 207.5t275.5 79q155 0 272 -73t177.5 -198t60.5 -282v-70h-792q13 -131 92.5 -218t208.5 -87q167 0 262 150l207 -80q-59 -133 -187 -204t-282 -71q-158 0 -283 74t-193.5 203.5t-68.5 290.5zM606 911q-110 0 -181.5 -74.5t-94.5 -189.5h540
q-19 115 -85.5 189.5t-178.5 74.5zM463 1370q0 39 20 72q38 71 123 71q40 0 74 -18q33 -23 51 -53q19 -36 19 -72t-19 -72q-46 -71 -125 -71q-42 0 -71 20q-35 18 -52 51q-20 33 -20 72z" />
    <glyph glyph-name="Eogonek" unicode="&#x118;" horiz-adv-x="1163" 
d="M143 0v1454h881v-215h-635v-381h574v-215h-574v-428h655v-215h3q-185 -143 -185 -219q0 -32 23.5 -50t56.5 -18q55 0 100 19l27 -152q-110 -35 -178 -35q-92 0 -158.5 48t-66.5 137q0 52 30 106t64.5 88.5t83.5 75.5h-701z" />
    <glyph glyph-name="eogonek" unicode="&#x119;" horiz-adv-x="1189" 
d="M80 537q0 150 64.5 278.5t186 207.5t275.5 79q155 0 272 -73t177.5 -198t60.5 -282v-70h-792q13 -131 92.5 -218t208.5 -87q167 0 262 150l207 -80q-54 -120 -156 -183q-162 -167 -162 -266q0 -82 92 -82q54 0 88 19l27 -146q-84 -35 -164 -35q-97 0 -165 48t-68 141
q0 114 119 233q-50 -4 -80 -4q-158 0 -283 74t-193.5 203.5t-68.5 290.5zM330 647h540q-19 115 -85.5 189.5t-178.5 74.5q-110 0 -181.5 -74.5t-94.5 -189.5z" />
    <glyph glyph-name="Ecaron" unicode="&#x11a;" horiz-adv-x="1163" 
d="M143 1454h881v-215h-635v-381h574v-215h-574v-428h655v-215h-901v1454zM172 1872h250l164 -127l166 127h243l-297 -262h-229z" />
    <glyph glyph-name="ecaron" unicode="&#x11b;" horiz-adv-x="1189" 
d="M625 -31q-158 0 -283 74t-193.5 203.5t-68.5 290.5q0 150 64.5 278.5t186 207.5t275.5 79q155 0 272 -73t177.5 -198t60.5 -282v-70h-792q13 -131 92.5 -218t208.5 -87q167 0 262 150l207 -80q-59 -133 -187 -204t-282 -71zM512 1231l-264 293h215l145 -146l150 146h209
l-265 -293h-190zM330 647h540q-19 115 -85.5 189.5t-178.5 74.5q-110 0 -181.5 -74.5t-94.5 -189.5z" />
    <glyph glyph-name="Gbreve" unicode="&#x11e;" horiz-adv-x="1609" 
d="M94 723q0 157 54 298t149 246t234 166.5t300 61.5q201 0 367.5 -97.5t247.5 -275.5l-238 -80q-58 108 -156 166t-221 58q-107 0 -198 -44.5t-152 -119.5t-95 -172.5t-34 -202.5q0 -107 33.5 -204t94.5 -171.5t154 -119t204 -44.5q177 0 294 102.5t132 280.5h-398v209h654
v-137q0 -300 -193.5 -492t-499.5 -192q-158 0 -295 59t-232.5 161t-150.5 243.5t-55 300.5zM551 1733q-51 60 -66 149h195q15 -59 58.5 -92t105.5 -33q64 0 106.5 32t57.5 93h194q-23 -132 -121.5 -207.5t-236.5 -75.5q-88 0 -165 33.5t-128 100.5z" />
    <glyph glyph-name="gbreve" unicode="&#x11f;" horiz-adv-x="1284" 
d="M80 557q0 144 62 268t179 200.5t265 76.5q109 0 199.5 -46.5t148.5 -135.5l8 151h215v-958q0 -245 -147 -397t-396 -152q-157 0 -281.5 71t-197.5 207l223 78q93 -149 265 -149q140 0 219.5 89.5t79.5 233.5v103q-61 -85 -152.5 -131t-196.5 -46q-108 0 -201 43.5
t-156.5 117t-99.5 171.5t-36 205zM322 561q0 -134 84.5 -231t216.5 -97q133 0 218 95.5t85 232.5t-84 232.5t-219 95.5q-132 0 -216.5 -96t-84.5 -232zM287 1501h188q32 -117 146 -117t145 117h188q-23 -127 -112.5 -199.5t-220.5 -72.5q-129 0 -220 72.5t-114 199.5z" />
    <glyph glyph-name="Gdotaccent" unicode="&#x120;" horiz-adv-x="1609" 
d="M94 723q0 157 54 298t149 246t234 166.5t300 61.5q201 0 367.5 -97.5t247.5 -275.5l-238 -80q-58 108 -156 166t-221 58q-107 0 -198 -44.5t-152 -119.5t-95 -172.5t-34 -202.5q0 -107 33.5 -204t94.5 -171.5t154 -119t204 -44.5q177 0 294 102.5t132 280.5h-398v209h654
v-137q0 -300 -193.5 -492t-499.5 -192q-158 0 -295 59t-232.5 161t-150.5 243.5t-55 300.5zM696 1743q0 39 21 74q16 30 53 53q34 18 74 18q42 0 76 -18q33 -20 53 -53q18 -35 18 -74t-18 -74q-23 -37 -53 -53q-34 -21 -76 -21q-40 0 -74 21q-35 18 -53 53q-21 35 -21 74z
" />
    <glyph glyph-name="gdotaccent" unicode="&#x121;" horiz-adv-x="1284" 
d="M80 557q0 144 62 268t179 200.5t265 76.5q109 0 199.5 -46.5t148.5 -135.5l8 151h215v-958q0 -245 -147 -397t-396 -152q-157 0 -281.5 71t-197.5 207l223 78q93 -149 265 -149q140 0 219.5 89.5t79.5 233.5v103q-61 -85 -152.5 -131t-196.5 -46q-108 0 -201 43.5
t-156.5 117t-99.5 171.5t-36 205zM322 561q0 -134 84.5 -231t216.5 -97q133 0 218 95.5t85 232.5t-84 232.5t-219 95.5q-132 0 -216.5 -96t-84.5 -232zM498 1298q-21 34 -21 72t21 72q38 71 123 71q39 0 73 -18q33 -23 51 -53q19 -36 19 -72t-19 -72q-46 -71 -124 -71
q-43 0 -72 20q-34 17 -51 51z" />
    <glyph glyph-name="uni0122" unicode="&#x122;" horiz-adv-x="1609" 
d="M827 -41q-158 0 -295 59t-232.5 161t-150.5 243.5t-55 300.5q0 157 54 298t149 246t234 166.5t300 61.5q201 0 367.5 -97.5t247.5 -275.5l-238 -80q-58 108 -156 166t-221 58q-107 0 -198 -44.5t-152 -119.5t-95 -172.5t-34 -202.5q0 -107 33.5 -204t94.5 -171.5
t154 -119t204 -44.5q177 0 294 102.5t132 280.5h-398v209h654v-137q0 -300 -193.5 -492t-499.5 -192zM700 -244q0 51 36.5 81t88.5 30q84 0 131 -80q19 -40 19 -84q0 -90 -57 -154.5t-148 -97.5l-45 105q47 21 78 49q30 30 35 61q-17 -10 -39 -10q-41 0 -70 29
q-29 32 -29 71z" />
    <glyph glyph-name="uni0123" unicode="&#x123;" horiz-adv-x="1284" 
d="M80 557q0 144 62 268t179 200.5t265 76.5q109 0 199.5 -46.5t148.5 -135.5l8 151h215v-958q0 -245 -147 -397t-396 -152q-157 0 -281.5 71t-197.5 207l223 78q93 -149 265 -149q140 0 219.5 89.5t79.5 233.5v103q-61 -85 -152.5 -131t-196.5 -46q-108 0 -201 43.5
t-156.5 117t-99.5 171.5t-36 205zM322 561q0 -134 84.5 -231t216.5 -97q133 0 218 95.5t85 232.5t-84 232.5t-219 95.5q-132 0 -216.5 -96t-84.5 -232zM508 1270q-21 38 -21 84q0 89 55 152t144 96l45 -105q-93 -45 -110 -111q18 11 38 11q41 0 69 -30.5t28 -70.5
q0 -47 -36.5 -76.5t-84.5 -29.5q-41 0 -74.5 21.5t-52.5 58.5z" />
    <glyph glyph-name="Hbar" unicode="&#x126;" horiz-adv-x="1538" 
d="M-4 1083v185h168v186h250v-186h710v186h250v-186h168v-185h-168v-1083h-250v627h-710v-627h-250v1083h-168zM414 850h710v233h-710v-233z" />
    <glyph glyph-name="hbar" unicode="&#x127;" horiz-adv-x="1202" 
d="M127 1210h-152v166h152v148h235v-148h300v-166h-300v-268q53 78 136 119t180 41t174 -37t125 -101.5t73 -147.5t25 -179v-637h-235v610q0 77 -20.5 137.5t-72 101t-129.5 40.5q-113 0 -184.5 -75.5t-71.5 -190.5v-623h-235v1210z" />
    <glyph glyph-name="Itilde" unicode="&#x128;" horiz-adv-x="536" 
d="M393 0h-250v1454h250v-1454zM49 1616h-168q9 79 41 145q74 125 199 125q80 0 162 -53q71 -53 116 -53q36 0 60 24q21 24 30 70h168q-12 -112 -72 -191t-167 -79q-88 0 -160 53q-59 36 -61 37q-29 16 -58 16q-37 0 -59 -27t-31 -67z" />
    <glyph glyph-name="itilde" unicode="&#x129;" horiz-adv-x="489" 
d="M127 0v1071h235v-1071h-235zM-100 1233q5 50 18 95t37 86.5t64 66t92 24.5q77 0 143 -51q71 -51 100 -51q27 0 45 24q20 23 23 68h164q-4 -48 -17.5 -93t-37.5 -87t-64.5 -67t-91.5 -25q-78 0 -142 51q-25 20 -53 37q-22 14 -49 14q-26 0 -45 -22q-20 -27 -23 -70h-163z
" />
    <glyph glyph-name="Imacron" unicode="&#x12a;" horiz-adv-x="536" 
d="M143 0v1454h250v-1454h-250zM-90 1620v180h717v-180h-717z" />
    <glyph glyph-name="imacron" unicode="&#x12b;" horiz-adv-x="489" 
d="M127 0v1071h235v-1071h-235zM-72 1249v170h627v-170h-627z" />
    <glyph glyph-name="Iogonek" unicode="&#x12e;" horiz-adv-x="536" 
d="M238 -455q-92 0 -159 48t-67 137q0 52 30 106t64.5 88.5t83.5 75.5h-47v1454h250v-1454q-184 -142 -184 -219q0 -32 23.5 -50t56.5 -18q55 0 100 19l27 -152q-110 -35 -178 -35z" />
    <glyph glyph-name="iogonek" unicode="&#x12f;" horiz-adv-x="489" 
d="M211 -449q-90 0 -156.5 46.5t-66.5 134.5q0 123 180 268h-41v1071h235v-1071q-184 -142 -184 -219q0 -32 23.5 -50t56.5 -18q63 0 100 19l27 -146q-90 -35 -174 -35zM100 1370q0 38 21 72q17 32 51 53q34 18 72 18q36 0 71 -18q35 -21 54 -53q18 -34 18 -72t-18 -72
q-20 -33 -54 -51q-33 -20 -71 -20q-39 0 -72 20q-34 17 -51 51q-21 34 -21 72z" />
    <glyph glyph-name="Idotaccent" unicode="&#x130;" horiz-adv-x="536" 
d="M143 1454h250v-1454h-250v1454zM121 1743q0 41 20 74q15 29 54 53q34 18 73 18q42 0 76 -18q33 -20 53 -53q19 -36 19 -74t-19 -74q-23 -37 -53 -53q-35 -21 -76 -21q-38 0 -73 21q-36 19 -54 53q-20 33 -20 74z" />
    <glyph glyph-name="dotlessi" unicode="&#x131;" horiz-adv-x="489" 
d="M127 0v1071h235v-1071h-235z" />
    <glyph glyph-name="IJ" unicode="&#x132;" horiz-adv-x="1415" 
d="M133 360l240 62q44 -110 125 -172t196 -62q166 0 255 112.5t89 285.5v868h250v-870q0 -177 -66 -317t-200 -224t-317 -84q-206 0 -358 103.5t-214 297.5zM127 1454h250v-840h-250v840z" />
    <glyph glyph-name="ij" unicode="&#x133;" horiz-adv-x="1202" 
d="M127 1071h235v-559q0 -55 12.5 -103.5t37.5 -88.5t69.5 -63.5t102.5 -23.5q113 0 184.5 76t71.5 191v571h235v-991q0 -150 -56.5 -265.5t-169.5 -183t-267 -67.5q-147 0 -265.5 67t-179.5 195l217 78q37 -61 98 -97t130 -36q125 0 191.5 80t66.5 210v119
q-53 -78 -136 -119t-180 -41t-174 37t-125 102t-73 148t-25 178v586zM121 1298q-21 34 -21 72t21 72q17 32 51 53q34 18 72 18q36 0 71 -18q35 -21 54 -53q18 -34 18 -72t-18 -72q-20 -33 -54 -51q-33 -20 -71 -20q-39 0 -72 20q-34 17 -51 51zM813 1370q0 38 21 72
q17 32 51 53q34 18 71 18q38 0 72 -18q33 -20 53 -53q19 -36 19 -72t-19 -72q-21 -34 -53 -51q-33 -20 -72 -20q-38 0 -71 20q-34 17 -51 51q-21 34 -21 72z" />
    <glyph glyph-name="uni0136" unicode="&#x136;" horiz-adv-x="1384" 
d="M143 0v1454h250v-649l596 649h299l-635 -682l709 -772h-332l-637 711v-711h-250zM586 -315q-29 32 -29 71q0 51 36.5 81t88.5 30q84 0 131 -80q18 -37 18 -84q0 -90 -56.5 -154.5t-147.5 -97.5l-45 105q45 20 77 49q30 30 35 61q-17 -10 -39 -10q-40 0 -69 29z" />
    <glyph glyph-name="uni0137" unicode="&#x137;" horiz-adv-x="1148" 
d="M127 0v1524h235v-895l439 442h286l-481 -475l531 -596h-310l-465 541v-541h-235zM551 -319q-41 0 -68.5 29.5t-27.5 70.5q0 47 36 76.5t84 29.5q67 0 107.5 -47.5t40.5 -115.5q0 -89 -55 -152t-144 -96l-45 104q94 46 111 111q-17 -10 -39 -10z" />
    <glyph glyph-name="kgreenlandic" unicode="&#x138;" horiz-adv-x="1148" 
d="M127 1071h235v-463l439 463h286l-481 -493l531 -578h-310l-465 520v-520h-235v1071z" />
    <glyph glyph-name="Lacute" unicode="&#x139;" horiz-adv-x="1097" 
d="M143 0v1454h250v-1231h617v-223h-867zM59 1610l281 262h303l-334 -262h-250z" />
    <glyph glyph-name="lacute" unicode="&#x13a;" horiz-adv-x="489" 
d="M127 0v1524h235v-1524h-235zM66 1645l237 292h266l-278 -292h-225z" />
    <glyph glyph-name="uni013B" unicode="&#x13b;" horiz-adv-x="1097" 
d="M143 0v1454h250v-1231h617v-223h-867zM467 -315q-29 32 -29 71q0 51 36.5 81t88.5 30q84 0 131 -80q19 -40 19 -84q0 -90 -57 -154.5t-148 -97.5l-45 105q47 21 78 49q28 28 34 61q-17 -10 -38 -10q-41 0 -70 29z" />
    <glyph glyph-name="uni013C" unicode="&#x13c;" horiz-adv-x="489" 
d="M362 0h-235v1524h235v-1524zM109 -219q0 47 36 76.5t84 29.5q67 0 107.5 -47.5t40.5 -115.5q0 -89 -55 -152t-144 -96l-45 104q94 46 111 111q-17 -10 -39 -10q-41 0 -68.5 29.5t-27.5 70.5z" />
    <glyph glyph-name="Lcaron" unicode="&#x13d;" horiz-adv-x="1097" 
d="M143 0v1454h250v-1231h617v-223h-867zM537 1163l34 361h209l-92 -361h-151z" />
    <glyph glyph-name="lcaron" unicode="&#x13e;" horiz-adv-x="489" 
d="M127 1524h235v-1524h-235v1524zM657 1163h-151l35 361h209z" />
    <glyph glyph-name="Lslash" unicode="&#x141;" horiz-adv-x="1118" 
d="M-4 342v236l168 122v754h250v-569l264 194v-235l-264 -195v-426h616v-223h-866v465z" />
    <glyph glyph-name="lslash" unicode="&#x142;" horiz-adv-x="559" 
d="M8 449v215l154 114v746h235v-570l154 115v-215l-154 -115v-739h-235v563z" />
    <glyph glyph-name="Nacute" unicode="&#x143;" horiz-adv-x="1476" 
d="M143 0v1454h222l725 -1040v1040h243v-1454h-221l-725 1044v-1044h-244zM780 1610h-250l281 262h303z" />
    <glyph glyph-name="nacute" unicode="&#x144;" horiz-adv-x="1202" 
d="M362 0h-235v1071h215l8 -147q48 86 136 132t192 46q97 0 174 -37t125 -101.5t73 -147.5t25 -179v-637h-235v610q0 77 -20.5 137.5t-72 101t-129.5 40.5q-113 0 -184.5 -75.5t-71.5 -190.5v-623zM649 1231h-225l238 293h266z" />
    <glyph glyph-name="uni0145" unicode="&#x145;" horiz-adv-x="1476" 
d="M387 0h-244v1454h222l725 -1040v1040h243v-1454h-221l-725 1044v-1044zM602 -244q0 51 36.5 81t88.5 30q84 0 131 -80q19 -40 19 -84q0 -90 -57 -154.5t-148 -97.5l-45 105q47 21 78 49q28 28 34 61q-17 -10 -39 -10q-40 0 -69 29q-29 32 -29 71z" />
    <glyph glyph-name="uni0146" unicode="&#x146;" horiz-adv-x="1202" 
d="M127 1071h215l8 -147q48 86 136 132t192 46q97 0 174 -37t125 -101.5t73 -147.5t25 -179v-637h-235v610q0 77 -20.5 137.5t-72 101t-129.5 40.5q-113 0 -184.5 -75.5t-71.5 -190.5v-623h-235v1071zM563 -319q-41 0 -68.5 29.5t-27.5 70.5q0 47 36.5 76.5t84.5 29.5
q67 0 107 -47t40 -116q0 -89 -54.5 -152t-143.5 -96l-45 104q93 45 110 111q-17 -10 -39 -10z" />
    <glyph glyph-name="Ncaron" unicode="&#x147;" horiz-adv-x="1476" 
d="M143 1454h222l725 -1040v1040h243v-1454h-221l-725 1044v-1044h-244v1454zM328 1872h250l163 -127l166 127h244l-297 -262h-229z" />
    <glyph glyph-name="ncaron" unicode="&#x148;" horiz-adv-x="1202" 
d="M127 1071h215l8 -147q48 86 136 132t192 46q97 0 174 -37t125 -101.5t73 -147.5t25 -179v-637h-235v610q0 77 -20.5 137.5t-72 101t-129.5 40.5q-113 0 -184.5 -75.5t-71.5 -190.5v-623h-235v1071zM506 1231l-264 293h215l145 -146l150 146h209l-265 -293h-190z" />
    <glyph glyph-name="Eng" unicode="&#x14a;" horiz-adv-x="1476" 
d="M387 0h-244v1454h222l725 -1040v1040h243v-1472q0 -180 -106 -299t-287 -119q-138 0 -248 78l70 182q72 -45 160 -45q85 0 126.5 57t41.5 146v51l-703 1011v-1044z" />
    <glyph glyph-name="eng" unicode="&#x14b;" horiz-adv-x="1202" 
d="M127 1071h215l8 -147q48 86 136 132t192 46q97 0 174 -37t125 -101.5t73 -147.5t25 -179v-717q0 -154 -89.5 -255t-244.5 -101q-97 0 -188 49l53 184q61 -26 101 -26q68 0 100.5 46t32.5 117v676q0 77 -20.5 137.5t-72 101t-129.5 40.5q-113 0 -184.5 -75.5t-71.5 -190.5
v-623h-235v1071z" />
    <glyph glyph-name="Ohungarumlaut" unicode="&#x150;" horiz-adv-x="1658" 
d="M94 725q0 211 91 386t261 279.5t385 104.5q160 0 297.5 -59t233 -161t149.5 -243.5t54 -302.5q0 -157 -53.5 -298t-148 -245.5t-233.5 -165.5t-301 -61q-158 0 -295.5 59t-233.5 161.5t-151 244t-55 301.5zM829 1266q-145 0 -255 -75t-166 -196.5t-56 -267.5
q0 -105 32.5 -202t92 -172t151 -120t201.5 -45q145 0 255.5 75.5t166.5 197t56 266.5q0 106 -32 202.5t-91 172t-151 120t-204 44.5zM1094 1610h-236l285 262h284zM664 1610h-236l285 262h284z" />
    <glyph glyph-name="ohungarumlaut" unicode="&#x151;" horiz-adv-x="1257" 
d="M625 -31q-156 0 -281 75t-194.5 205t-69.5 288t68.5 286.5t195.5 203.5t289 75q157 0 282 -74t194 -203t69 -288q0 -158 -68.5 -287t-196 -205t-288.5 -76zM322 537q0 -142 84 -248.5t223 -106.5q140 0 223.5 105.5t83.5 249.5q0 145 -82.5 248.5t-224.5 103.5
q-140 0 -223.5 -103.5t-83.5 -248.5zM879 1231h-199l201 293h241zM319 1231l201 293h242l-244 -293h-199z" />
    <glyph glyph-name="OE" unicode="&#x152;" horiz-adv-x="2113" 
d="M94 725q0 221 98.5 387t272.5 254t399 88h1110v-215h-614v-381h553v-215h-553v-428h635v-215h-1131q-162 0 -302 49.5t-244 140.5t-164 229t-60 306zM877 1231q-234 0 -379.5 -134t-145.5 -370q0 -231 144 -367.5t381 -136.5h237v1008h-237z" />
    <glyph glyph-name="oe" unicode="&#x153;" horiz-adv-x="2004" 
d="M610 -31q-151 0 -273.5 78t-189.5 207t-67 281t66 281t189.5 207.5t278.5 78.5q129 0 236 -55.5t178 -161.5q153 217 408 217q151 0 265 -75.5t172 -200t58 -277.5v-70h-772q13 -132 87.5 -218.5t203.5 -86.5q164 0 252 150l207 -80q-39 -88 -110.5 -151t-159.5 -93.5
t-187 -30.5q-130 0 -241.5 57.5t-184.5 163.5q-72 -107 -179.5 -164t-236.5 -57zM618 889q-92 0 -161 -51.5t-102 -130t-33 -170.5q0 -66 19.5 -129t55.5 -113.5t93.5 -81.5t127.5 -31q135 0 216 107t81 248q0 142 -79.5 247t-217.5 105zM1432 911q-108 0 -177.5 -75.5
t-91.5 -188.5h523q-13 110 -80 187t-174 77z" />
    <glyph glyph-name="Racute" unicode="&#x154;" horiz-adv-x="1265" 
d="M143 1454h439q112 0 209.5 -25.5t178 -78t127 -143t46.5 -210.5q0 -132 -69.5 -238t-192.5 -165l338 -594h-277l-280 528q-14 -2 -50 -2q-18 -2 -57 -2q-71 0 -166 15v-539h-246v1454zM578 1237h-189v-481q71 -15 180 -15q50 0 95.5 8t87 26.5t71.5 46.5t48 71t18 96
q0 66 -25.5 115t-70 77.5t-98.5 42t-117 13.5zM362 1610l281 262h303l-334 -262h-250z" />
    <glyph glyph-name="racute" unicode="&#x155;" horiz-adv-x="794" 
d="M127 1071h215l10 -176q40 90 114 140t171 50q66 0 111 -18l-27 -229q-36 14 -96 14q-131 0 -197 -87t-66 -222v-543h-235v1071zM262 1231l238 293h266l-279 -293h-225z" />
    <glyph glyph-name="Rcaron" unicode="&#x158;" horiz-adv-x="1265" 
d="M143 1454h439q112 0 209.5 -25.5t178 -78t127 -143t46.5 -210.5q0 -132 -69.5 -238t-192.5 -165l338 -594h-277l-280 528q-14 -2 -50 -2q-18 -2 -57 -2q-71 0 -166 15v-539h-246v1454zM389 756q71 -15 180 -15q50 0 95.5 8t87 26.5t71.5 46.5t48 71t18 96q0 66 -25.5 115
t-70 77.5t-98.5 42t-117 13.5h-189v-481zM160 1872h250l163 -127l166 127h244l-297 -262h-229z" />
    <glyph glyph-name="rcaron" unicode="&#x159;" horiz-adv-x="794" 
d="M362 0h-235v1071h215l10 -176q40 90 114 140t171 50q66 0 111 -18l-27 -229q-36 14 -96 14q-131 0 -197 -87t-66 -222v-543zM80 1524h215l145 -146l150 146h209l-264 -293h-191z" />
    <glyph glyph-name="Sacute" unicode="&#x15a;" horiz-adv-x="1155" 
d="M571 -31q-179 0 -322.5 95.5t-189.5 263.5l236 57q34 -95 105.5 -146t172.5 -51q103 0 179.5 59.5t76.5 160.5q0 49 -19.5 86t-56 60t-72 36.5t-85.5 25.5l-76 17q-88 19 -161 51t-134 81.5t-95 123t-34 164.5q0 129 67.5 229t177 151.5t239.5 51.5q172 0 305.5 -94
t175.5 -258l-234 -58q-33 91 -97 141t-157 50q-90 0 -157.5 -53t-67.5 -142q0 -38 15.5 -69.5t38 -52t57 -37.5t64 -26t67.5 -18l76 -16q417 -94 417 -424q0 -138 -71 -244t-186.5 -160.5t-254.5 -54.5zM618 1610h-249l280 262h303z" />
    <glyph glyph-name="sacute" unicode="&#x15b;" horiz-adv-x="980" 
d="M494 -31q-150 0 -271 75t-164 212l213 55q27 -71 86.5 -109t137.5 -38q71 0 126.5 34.5t55.5 100.5q0 110 -174 137l-68 13q-55 10 -103 25.5t-93.5 41t-78 59.5t-52 82.5t-19.5 106.5q0 106 57.5 184.5t146.5 116t195 37.5q145 0 257.5 -74t150.5 -209l-211 -51
q-55 141 -199 141q-64 0 -114.5 -33t-50.5 -94q0 -95 184 -127l67 -12q69 -11 127.5 -35t107.5 -62t77 -95.5t28 -128.5q0 -110 -60.5 -192t-154.5 -121.5t-204 -39.5zM537 1231h-226l238 293h266z" />
    <glyph glyph-name="Scedilla" unicode="&#x15e;" horiz-adv-x="1155" 
d="M496 -27q-156 18 -276.5 113t-160.5 242l236 57q34 -95 105.5 -146t172.5 -51q103 0 179.5 59.5t76.5 160.5q0 49 -19.5 86t-56 60t-72 36.5t-85.5 25.5l-76 17q-88 19 -161 51t-134 81.5t-95 123t-34 164.5q0 129 67.5 229t177 151.5t239.5 51.5q172 0 305.5 -94
t175.5 -258l-234 -58q-33 91 -97 141t-157 50q-90 0 -157.5 -53t-67.5 -142q0 -38 15.5 -69.5t38 -52t57 -37.5t64 -26t67.5 -18l76 -16q417 -94 417 -424q0 -184 -119 -305t-309 -150l-24 -77q63 -18 105 -65t42 -110q0 -118 -127 -176q-61 -24 -141 -24q-90 0 -172 30
l31 140q10 -3 30.5 -9t30.5 -8q36 -4 53 -4q43 0 72 19q25 19 25 49q0 72 -138 72z" />
    <glyph glyph-name="scedilla" unicode="&#x15f;" horiz-adv-x="980" 
d="M59 256l213 55q27 -71 86.5 -109t137.5 -38q71 0 126.5 34.5t55.5 100.5q0 110 -174 137l-68 13q-55 10 -103 25.5t-93.5 41t-78 59.5t-52 82.5t-19.5 106.5q0 106 57.5 184.5t146.5 116t195 37.5q145 0 257.5 -74t150.5 -209l-211 -51q-55 141 -199 141
q-64 0 -114.5 -33t-50.5 -94q0 -95 184 -127l67 -12q69 -11 127.5 -35t107.5 -62t77 -95.5t28 -128.5q0 -144 -100.5 -237.5t-249.5 -111.5l-20 -67q63 -14 105 -60t42 -108q0 -67 -41.5 -113t-99 -65t-123.5 -19q-83 0 -162 31l29 133q8 -2 21 -5.5t22.5 -6t17.5 -4.5
q36 -4 49 -4q38 0 67.5 16t29.5 51q0 72 -138 72l50 151q-127 20 -221.5 91.5t-131.5 189.5z" />
    <glyph glyph-name="Scaron" unicode="&#x160;" horiz-adv-x="1155" 
d="M59 328l236 57q34 -95 105.5 -146t172.5 -51q103 0 179.5 59.5t76.5 160.5q0 49 -19.5 86t-56 60t-72 36.5t-85.5 25.5l-76 17q-88 19 -161 51t-134 81.5t-95 123t-34 164.5q0 129 67.5 229t177 151.5t239.5 51.5q172 0 305.5 -94t175.5 -258l-234 -58q-33 91 -97 141
t-157 50q-90 0 -157.5 -53t-67.5 -142q0 -38 15.5 -69.5t38 -52t57 -37.5t64 -26t67.5 -18l76 -16q417 -94 417 -424q0 -138 -71 -244t-186.5 -160.5t-254.5 -54.5q-179 0 -322.5 95.5t-189.5 263.5zM463 1610l-297 262h250l164 -127l165 127h244l-297 -262h-229z" />
    <glyph glyph-name="scaron" unicode="&#x161;" horiz-adv-x="980" 
d="M59 256l213 55q27 -71 86.5 -109t137.5 -38q71 0 126.5 34.5t55.5 100.5q0 110 -174 137l-68 13q-55 10 -103 25.5t-93.5 41t-78 59.5t-52 82.5t-19.5 106.5q0 106 57.5 184.5t146.5 116t195 37.5q145 0 257.5 -74t150.5 -209l-211 -51q-55 141 -199 141
q-64 0 -114.5 -33t-50.5 -94q0 -95 184 -127l67 -12q69 -11 127.5 -35t107.5 -62t77 -95.5t28 -128.5q0 -110 -60.5 -192t-154.5 -121.5t-204 -39.5q-150 0 -271 75t-164 212zM129 1524h215l145 -146l150 146h209l-264 -293h-191z" />
    <glyph glyph-name="Tcaron" unicode="&#x164;" horiz-adv-x="1277" 
d="M90 1231v223h1098v-223h-424v-1231h-250v1231h-424zM227 1872h250l164 -127l166 127h244l-297 -262h-230z" />
    <glyph glyph-name="tcaron" unicode="&#x165;" horiz-adv-x="872" 
d="M35 881v190h188v363h236v-363h311v-190h-311v-527q0 -77 34 -127.5t107 -50.5q36 0 80 12q39 8 80 31l53 -178q-40 -30 -108 -53q-68 -19 -136 -19q-166 0 -256 96.5t-90 264.5v551h-188zM774 1210h-156l29 314h209z" />
    <glyph glyph-name="Tbar" unicode="&#x166;" horiz-adv-x="1277" 
d="M90 1231v223h1098v-223h-424v-443h258v-202h-258v-586h-250v586h-258v202h258v443h-424z" />
    <glyph glyph-name="tbar" unicode="&#x167;" horiz-adv-x="872" 
d="M35 881v190h188v363h236v-363h311v-190h-311v-230h291v-174h-291v-123q0 -77 34 -127.5t107 -50.5q36 0 80 12q39 8 80 31l53 -178q-40 -30 -108 -53q-68 -19 -136 -19q-166 0 -256 96.5t-90 264.5v147h-168v174h168v230h-188z" />
    <glyph glyph-name="Utilde" unicode="&#x168;" horiz-adv-x="1466" 
d="M127 578v876h250v-866q0 -111 38.5 -200t120.5 -144.5t197 -55.5q169 0 263 112.5t94 287.5v866h249v-876q0 -276 -165 -447.5t-445 -171.5q-275 0 -438.5 168t-163.5 451zM346 1616q7 71 33.5 129.5t80.5 99.5t126 41q80 0 162 -53q71 -53 116 -53q36 0 60 24
q21 24 30 70h168q-12 -112 -72 -191t-167 -79q-88 0 -160 53q-59 36 -61 37q-29 16 -58 16q-37 0 -59 -27t-31 -67h-168z" />
    <glyph glyph-name="utilde" unicode="&#x169;" horiz-adv-x="1200" 
d="M127 473v598h235v-602q0 -79 23.5 -141.5t79 -104t135.5 -41.5t135.5 41.5t79 104t23.5 141.5v602h235v-598q0 -222 -125.5 -363t-349.5 -141q-219 0 -345 139.5t-126 364.5zM256 1233q5 50 18 95t37 86.5t64 66t92 24.5q77 0 143 -51q71 -51 101 -51q27 0 45 24
q19 22 22 68h164q-4 -48 -17.5 -93t-37.5 -87t-64.5 -67t-91.5 -25q-77 0 -141 51q-25 20 -53 37q-22 14 -50 14q-26 0 -45 -22q-19 -26 -22 -70h-164z" />
    <glyph glyph-name="Umacron" unicode="&#x16a;" horiz-adv-x="1466" 
d="M127 1454h250v-866q0 -111 38.5 -200t120.5 -144.5t197 -55.5q169 0 263 112.5t94 287.5v866h249v-876q0 -276 -165 -447.5t-445 -171.5q-275 0 -438.5 168t-163.5 451v876zM1092 1620h-717v180h717v-180z" />
    <glyph glyph-name="umacron" unicode="&#x16b;" horiz-adv-x="1200" 
d="M127 473v598h235v-602q0 -79 23.5 -141.5t79 -104t135.5 -41.5t135.5 41.5t79 104t23.5 141.5v602h235v-598q0 -222 -125.5 -363t-349.5 -141q-219 0 -345 139.5t-126 364.5zM285 1249v170h626v-170h-626z" />
    <glyph glyph-name="Uring" unicode="&#x16e;" horiz-adv-x="1466" 
d="M127 1454h250v-866q0 -111 38.5 -200t120.5 -144.5t197 -55.5q169 0 263 112.5t94 287.5v866h249v-876q0 -276 -165 -447.5t-445 -171.5q-275 0 -438.5 168t-163.5 451v876zM539 1647q-31 51 -31 108q0 93 65 155t160 62q61 0 113 -27.5t84 -78.5q28 -54 28 -111
q0 -93 -65 -155t-160 -62q-62 0 -114.5 28.5t-79.5 80.5zM641 1755q0 -36 28 -65t64 -29q38 0 65 28t27 66q0 40 -26 67t-66 27q-38 0 -65 -28t-27 -66z" />
    <glyph glyph-name="uring" unicode="&#x16f;" horiz-adv-x="1200" 
d="M127 1071h235v-602q0 -79 23.5 -141.5t79 -104t135.5 -41.5t135.5 41.5t79 104t23.5 141.5v602h235v-598q0 -222 -125.5 -363t-349.5 -141q-219 0 -345 139.5t-126 364.5v598zM408 1282q-31 48 -31 107q0 90 65.5 151.5t155.5 61.5q121 0 193 -105q28 -51 28 -108
q0 -90 -64.5 -151.5t-156.5 -61.5q-58 0 -109.5 28t-80.5 78zM598 1485q-40 0 -67 -28t-27 -68q0 -39 28 -68t66 -29q39 0 66.5 28.5t27.5 68.5q0 41 -26.5 68.5t-67.5 27.5z" />
    <glyph glyph-name="Uhungarumlaut" unicode="&#x170;" horiz-adv-x="1466" 
d="M729 -41q-275 0 -438.5 168t-163.5 451v876h250v-866q0 -111 38.5 -200t120.5 -144.5t197 -55.5q169 0 263 112.5t94 287.5v866h249v-876q0 -276 -165 -447.5t-445 -171.5zM997 1610h-235l285 262h284zM332 1610l284 262h285l-334 -262h-235z" />
    <glyph glyph-name="uhungarumlaut" unicode="&#x171;" horiz-adv-x="1200" 
d="M127 473v598h235v-602q0 -79 23.5 -141.5t79 -104t135.5 -41.5t135.5 41.5t79 104t23.5 141.5v602h235v-598q0 -222 -125.5 -363t-349.5 -141q-219 0 -345 139.5t-126 364.5zM848 1231h-199l201 293h242zM487 1231h-198l200 293h242z" />
    <glyph glyph-name="Uogonek" unicode="&#x172;" horiz-adv-x="1466" 
d="M729 -41q-275 0 -438.5 168t-163.5 451v876h250v-866q0 -111 38.5 -200t120.5 -144.5t197 -55.5q169 0 263 112.5t94 287.5v866h249v-876q0 -154 -51 -274.5t-164 -219.5q-86 -89 -125 -154q-51 -74 -51 -135q0 -39 21.5 -60.5t60.5 -21.5q56 0 98 19l27 -152
q-90 -35 -174 -35q-97 0 -163 51t-66 144q0 110 110 229q-72 -10 -133 -10z" />
    <glyph glyph-name="uogonek" unicode="&#x173;" horiz-adv-x="1200" 
d="M127 473v598h235v-602q0 -79 23.5 -141.5t79 -104t135.5 -41.5t135.5 41.5t79 104t23.5 141.5v602h235v-598q0 -278 -184 -416q-160 -160 -160 -262q0 -82 92 -82q54 0 88 19l27 -146q-84 -35 -164 -35q-97 0 -165 48t-68 141q0 62 30.5 116t85.5 115q-18 -2 -57 -2
q-219 0 -345 139.5t-126 364.5z" />
    <glyph glyph-name="Wcircumflex" unicode="&#x174;" horiz-adv-x="2107" 
d="M63 1454h267l299 -1122l307 1122h242l309 -1122l297 1122h260l-430 -1454h-254l-305 1106l-305 -1106h-256zM885 1610h-244l297 262h229l297 -262h-250l-163 127z" />
    <glyph glyph-name="wcircumflex" unicode="&#x175;" horiz-adv-x="1687" 
d="M385 0l-356 1071h245l228 -782l239 782h211l238 -782l231 782h238l-359 -1071h-221l-235 778l-238 -778h-221zM692 1231h-209l265 293h190l264 -293h-215l-145 145z" />
    <glyph glyph-name="Ycircumflex" unicode="&#x176;" horiz-adv-x="1327" 
d="M29 1454h282l357 -651l354 651h276l-510 -881v-573h-249v573zM494 1610h-244l297 262h229l297 -262h-250l-164 127z" />
    <glyph glyph-name="ycircumflex" unicode="&#x177;" horiz-adv-x="1116" 
d="M29 1071h258l288 -801l263 801h249l-454 -1200q-55 -141 -140.5 -219t-222.5 -78q-101 0 -180 43l51 186q7 -3 52 -18q27 -6 55 -6q69 0 112 38t72 109l33 84zM199 1231l264 293h190l265 -293h-216l-145 145l-149 -145h-209z" />
    <glyph glyph-name="Ydieresis" unicode="&#x178;" horiz-adv-x="1327" 
d="M539 573l-510 881h282l357 -651l354 651h276l-510 -881v-573h-249v573zM424 1595q-59 0 -100 40t-41 100t40.5 99.5t100.5 39.5q61 0 101 -39t40 -100q0 -60 -40.5 -100t-100.5 -40zM760 1735q0 60 40.5 99.5t100.5 39.5q59 0 100 -40t41 -99t-40.5 -99.5t-100.5 -40.5
q-59 0 -100 40t-41 100z" />
    <glyph glyph-name="Zacute" unicode="&#x179;" horiz-adv-x="1290" 
d="M84 0v180l772 1061h-741v213h1050v-180l-772 -1061h817v-213h-1126zM430 1610l281 262h303l-334 -262h-250z" />
    <glyph glyph-name="zacute" unicode="&#x17a;" horiz-adv-x="1050" 
d="M84 0v156l557 725h-543v190h834v-156l-557 -725h592v-190h-883zM338 1231l237 293h267l-279 -293h-225z" />
    <glyph glyph-name="Zdotaccent" unicode="&#x17b;" horiz-adv-x="1290" 
d="M84 180l772 1061h-741v213h1050v-180l-772 -1061h817v-213h-1126v180zM512 1669q-20 33 -20 74t20 74q16 30 53 53q35 18 74 18q41 0 76 -18q33 -20 53 -53q18 -35 18 -74t-18 -74q-23 -37 -53 -53q-34 -21 -76 -21q-39 0 -74 21q-35 18 -53 53z" />
    <glyph glyph-name="zdotaccent" unicode="&#x17c;" horiz-adv-x="1050" 
d="M967 0h-883v156l557 725h-543v190h834v-156l-557 -725h592v-190zM371 1370q0 39 20 72q38 71 123 71q40 0 74 -18q33 -23 51 -53q18 -34 18 -72t-18 -72q-46 -71 -125 -71q-43 0 -72 20q-34 17 -51 51q-20 33 -20 72z" />
    <glyph glyph-name="Zcaron" unicode="&#x17d;" horiz-adv-x="1290" 
d="M84 0v180l772 1061h-741v213h1050v-180l-772 -1061h817v-213h-1126zM227 1872h250l164 -127l166 127h244l-297 -262h-230z" />
    <glyph glyph-name="zcaron" unicode="&#x17e;" horiz-adv-x="1050" 
d="M84 0v156l557 725h-543v190h834v-156l-557 -725h592v-190h-883zM156 1524h215l145 -146l150 146h208l-264 -293h-190z" />
    <glyph glyph-name="uni0218" unicode="&#x218;" horiz-adv-x="1155" 
d="M571 -31q-179 0 -322.5 95.5t-189.5 263.5l236 57q34 -95 105.5 -146t172.5 -51q103 0 179.5 59.5t76.5 160.5q0 49 -19.5 86t-56 60t-72 36.5t-85.5 25.5l-76 17q-88 19 -161 51t-134 81.5t-95 123t-34 164.5q0 129 67.5 229t177 151.5t239.5 51.5q172 0 305.5 -94
t175.5 -258l-234 -58q-33 91 -97 141t-157 50q-90 0 -157.5 -53t-67.5 -142q0 -38 15.5 -69.5t38 -52t57 -37.5t64 -26t67.5 -18l76 -16q417 -94 417 -424q0 -138 -71 -244t-186.5 -160.5t-254.5 -54.5zM434 -244q0 51 36.5 81t88.5 30q84 0 131 -80q19 -40 19 -84
q0 -90 -57 -154.5t-148 -97.5l-45 105q47 21 78 49q28 28 34 61q-17 -10 -39 -10q-40 0 -69 29q-29 32 -29 71z" />
    <glyph glyph-name="uni0219" unicode="&#x219;" horiz-adv-x="980" 
d="M494 -31q-150 0 -271 75t-164 212l213 55q27 -71 86.5 -109t137.5 -38q71 0 126.5 34.5t55.5 100.5q0 110 -174 137l-68 13q-55 10 -103 25.5t-93.5 41t-78 59.5t-52 82.5t-19.5 106.5q0 106 57.5 184.5t146.5 116t195 37.5q145 0 257.5 -74t150.5 -209l-211 -51
q-55 141 -199 141q-64 0 -114.5 -33t-50.5 -94q0 -95 184 -127l67 -12q69 -11 127.5 -35t107.5 -62t77 -95.5t28 -128.5q0 -110 -60.5 -192t-154.5 -121.5t-204 -39.5zM358 -219q0 47 36.5 76.5t84.5 29.5q67 0 107.5 -47.5t40.5 -115.5q0 -89 -55 -152t-144 -96l-45 104
q94 46 111 111q-17 -10 -39 -10q-41 0 -69 30t-28 70z" />
    <glyph glyph-name="uni021A" unicode="&#x21a;" horiz-adv-x="1277" 
d="M514 1231h-424v223h1098v-223h-424v-1231h-250v1231zM530 -315q-28 31 -28 71q0 51 36.5 81t88.5 30q84 0 131 -80q18 -37 18 -84q0 -90 -57 -154.5t-148 -97.5l-45 105q47 21 78 49q30 30 35 61q-17 -10 -39 -10q-41 0 -70 29z" />
    <glyph glyph-name="uni021B" unicode="&#x21b;" horiz-adv-x="872" 
d="M35 881v190h188v363h236v-363h311v-190h-311v-527q0 -77 34 -127.5t107 -50.5q36 0 80 12q39 8 80 31l53 -178q-40 -30 -108 -53q-68 -19 -136 -19q-166 0 -256 96.5t-90 264.5v551h-188zM467 -319q-41 0 -68.5 29.5t-27.5 70.5q0 47 36.5 76.5t84.5 29.5q67 0 107 -47
t40 -116q0 -89 -55 -152t-144 -96l-45 104q94 46 111 111q-17 -10 -39 -10z" />
    <glyph glyph-name="uni0237" unicode="&#x237;" horiz-adv-x="499" 
d="M-63 -414q-51 16 -89 39l56 182q45 -26 98 -26q69 0 102 46t33 118v1126h236v-1141q0 -155 -90 -255.5t-246 -100.5q-53 0 -100 12z" />
    <glyph glyph-name="circumflex" unicode="&#x2c6;" horiz-adv-x="1202" 
d="M242 1231l264 293h190l265 -293h-216l-145 145l-149 -145h-209z" />
    <glyph glyph-name="caron" unicode="&#x2c7;" horiz-adv-x="1202" 
d="M242 1524h215l145 -146l150 146h209l-265 -293h-190z" />
    <glyph glyph-name="uni02C9" unicode="&#x2c9;" horiz-adv-x="1202" 
d="M287 1249v170h626v-170h-626z" />
    <glyph glyph-name="uni02CB" unicode="&#x2cb;" horiz-adv-x="1202" 
d="M627 1231l-279 293h266l238 -293h-225z" />
    <glyph glyph-name="breve" unicode="&#x2d8;" horiz-adv-x="1202" 
d="M600 1229q-129 0 -220 72.5t-114 199.5h189q32 -117 145 -117q114 0 145 117h189q-23 -127 -113 -199.5t-221 -72.5z" />
    <glyph glyph-name="dotaccent" unicode="&#x2d9;" horiz-adv-x="1202" 
d="M457 1370q0 39 20 72q38 71 123 71q40 0 74 -18q33 -23 51 -53q18 -34 18 -72t-18 -72q-46 -71 -125 -71q-43 0 -72 20q-34 17 -51 51q-20 33 -20 72z" />
    <glyph glyph-name="ring" unicode="&#x2da;" horiz-adv-x="1202" 
d="M379 1389q0 90 65.5 151.5t155.5 61.5q121 0 193 -105q28 -51 28 -108q0 -90 -64.5 -151.5t-156.5 -61.5q-58 0 -109.5 28t-80.5 78q-31 48 -31 107zM506 1389q0 -39 28 -68t66 -29q39 0 66.5 28.5t27.5 68.5q0 41 -26.5 68.5t-67.5 27.5q-40 0 -67 -28t-27 -68z" />
    <glyph glyph-name="ogonek" unicode="&#x2db;" horiz-adv-x="1202" 
d="M401 -268q0 143 246 317l129 -49q-184 -142 -184 -219q0 -32 23.5 -50t56.5 -18q63 0 100 19l27 -146q-90 -35 -174 -35q-90 0 -157 46.5t-67 134.5z" />
    <glyph glyph-name="tilde" unicode="&#x2dc;" horiz-adv-x="1202" 
d="M258 1233q5 50 18 95t37 86.5t64 66t92 24.5q77 0 143 -51q71 -51 101 -51q27 0 45 24q19 22 22 68h164q-4 -48 -17.5 -93t-37.5 -87t-64.5 -67t-91.5 -25q-77 0 -141 51q-25 20 -53 37q-22 14 -50 14q-26 0 -45 -22q-19 -26 -22 -70h-164z" />
    <glyph glyph-name="hungarumlaut" unicode="&#x2dd;" horiz-adv-x="1202" 
d="M559 1231l201 293h241l-243 -293h-199zM397 1231h-198l200 293h242z" />
    <glyph glyph-name="gravecomb" unicode="&#x300;" 
d="M-49 1231l-279 293h267l237 -293h-225z" />
    <glyph glyph-name="acutecomb" unicode="&#x301;" 
d="M-176 1231l237 293h267l-279 -293h-225z" />
    <glyph glyph-name="uni0302" unicode="&#x302;" 
d="M-358 1231l264 293h190l264 -293h-215l-145 145l-150 -145h-208z" />
    <glyph glyph-name="tildecomb" unicode="&#x303;" 
d="M-342 1233q5 50 18 95t37 86.5t64 66t92 24.5q41 0 71.5 -12t71.5 -39q71 -51 101 -51q27 0 45 24q19 22 22 68h164q-4 -48 -17.5 -93t-37.5 -87t-64.5 -67t-91.5 -25q-67 0 -143 51q-34 26 -51 37q-22 14 -50 14q-26 0 -45 -22q-19 -26 -22 -70h-164z" />
    <glyph glyph-name="uni0304" unicode="&#x304;" 
d="M-313 1249v170h626v-170h-626z" />
    <glyph glyph-name="uni0306" unicode="&#x306;" 
d="M0 1229q-129 0 -219.5 72t-114.5 200h189q31 -117 145 -117t145 117h189q-23 -127 -113 -199.5t-221 -72.5z" />
    <glyph glyph-name="uni0307" unicode="&#x307;" 
d="M-143 1370q0 38 18 72q18 30 51 53q34 18 74 18t74 -18q33 -23 51 -53q18 -34 18 -72t-18 -72q-46 -71 -125 -71t-125 71q-18 34 -18 72z" />
    <glyph glyph-name="uni0308" unicode="&#x308;" 
d="M92 1305q-18 27 -18 65q0 56 39 94.5t94 38.5q54 0 93.5 -39t39.5 -94q0 -54 -39.5 -93.5t-93.5 -39.5q-36 0 -68 18.5t-47 49.5zM-207 1237q-54 0 -93.5 39.5t-39.5 93.5t39 93.5t94 39.5t94 -38.5t39 -94.5q0 -38 -18 -65q-15 -31 -47 -49.5t-68 -18.5z" />
    <glyph glyph-name="uni030A" unicode="&#x30a;" 
d="M-221 1389q0 57 28 108q72 105 193 105t193 -105q28 -51 28 -108q0 -90 -64.5 -151.5t-156.5 -61.5q-91 0 -156 61t-65 152zM-94 1389q0 -40 27.5 -68.5t66.5 -28.5t66.5 28.5t27.5 68.5q0 41 -26.5 68.5t-67.5 27.5t-67.5 -27.5t-26.5 -68.5z" />
    <glyph glyph-name="uni030B" unicode="&#x30b;" 
d="M51 1231l201 293h242l-244 -293h-199zM-111 1231h-198l200 293h242z" />
    <glyph glyph-name="uni030C" unicode="&#x30c;" 
d="M-358 1524h215l145 -146l150 146h208l-264 -293h-190z" />
    <glyph glyph-name="uni0312" unicode="&#x312;" 
d="M-133 1354q0 89 55 152t144 96l45 -105q-94 -46 -111 -111q18 11 39 11q40 0 68 -30t28 -71q0 -47 -36.5 -76.5t-84.5 -29.5q-80 0 -129 80q-18 38 -18 84z" />
    <glyph glyph-name="uni0315" unicode="&#x315;" 
d="M143 1163l35 361h209l-92 -361h-152z" />
    <glyph glyph-name="dotbelowcomb" unicode="&#x323;" 
d="M-143 -303q0 60 41.5 101.5t101.5 41.5t101.5 -41.5t41.5 -101.5q0 -39 -18 -74q-21 -30 -51 -51q-34 -18 -74 -18t-74 18q-30 21 -51 51q-18 35 -18 74z" />
    <glyph glyph-name="uni0326" unicode="&#x326;" 
d="M-133 -219q0 50 35.5 78t85.5 28q67 0 107 -47t40 -116q0 -89 -54.5 -152t-143.5 -96l-46 104q94 46 111 111q-17 -10 -39 -10q-42 0 -69 28.5t-27 71.5z" />
    <glyph glyph-name="uni0327" unicode="&#x327;" 
d="M-66 -459q-82 0 -161 31l28 133q7 -2 28.5 -8t31.5 -8q36 -4 51 -4q38 0 67 16t29 51q0 72 -137 72l63 199h152l-35 -117q63 -14 105.5 -60t42.5 -108q0 -51 -23.5 -90t-63 -61.5t-85 -34t-93.5 -11.5z" />
    <glyph glyph-name="uni0328" unicode="&#x328;" 
d="M-375 -268q0 47 23 94t65 90t76.5 71t81.5 62l129 -49q-92 -71 -141 -127q-43 -52 -43 -92q0 -33 22.5 -50.5t57.5 -17.5q58 0 100 19l27 -146q-90 -35 -175 -35q-92 0 -157.5 46t-65.5 135z" />
    <glyph glyph-name="uni0E3F" unicode="&#xe3f;" horiz-adv-x="1216" 
d="M147 0v1413h381v256h138v-258q84 -6 154.5 -29t129 -65t92 -110t33.5 -156q0 -100 -44.5 -177t-131.5 -122q116 -41 177 -133.5t61 -219.5q0 -97 -38.5 -172.5t-106 -122t-149.5 -72.5t-177 -32v-287h-138v287h-381zM666 639v-440q106 8 170.5 62.5t64.5 156.5
q0 104 -63.5 158.5t-171.5 62.5zM528 639h-155v-440h155v440zM528 1214h-155v-389h155v389zM666 1210v-381q83 9 129.5 59t46.5 132q0 164 -176 190z" />
    <glyph glyph-name="uni1E24" unicode="&#x1e24;" horiz-adv-x="1497" 
d="M143 1454h250v-590h711v590h250v-1454h-250v641h-711v-641h-250v1454zM602 -315q0 39 21 73q17 33 53 52q33 20 74 20q42 0 75 -20q33 -17 54 -52q18 -34 18 -73q0 -41 -18 -76q-19 -32 -54 -53q-36 -19 -75 -19q-38 0 -74 19q-37 23 -53 53q-21 35 -21 76z" />
    <glyph glyph-name="uni1E25" unicode="&#x1e25;" horiz-adv-x="1202" 
d="M127 0v1524h235v-582q53 78 136 119t180 41t174 -37t125 -101.5t73 -147.5t25 -179v-637h-235v610q0 77 -20.5 137.5t-72 101t-129.5 40.5q-113 0 -184.5 -75.5t-71.5 -190.5v-623h-235zM457 -303q0 43 20 72q17 34 51 51q29 20 72 20q60 0 101.5 -41.5t41.5 -101.5
q0 -39 -18 -74q-21 -30 -51 -51q-34 -18 -74 -18q-60 0 -101.5 41.5t-41.5 101.5z" />
    <glyph glyph-name="uni1E36" unicode="&#x1e36;" horiz-adv-x="1097" 
d="M143 0v1454h250v-1231h617v-223h-867zM428 -315q0 39 21 73q17 33 53 52q33 20 73 20q43 0 76 -20q33 -17 54 -52q18 -34 18 -73q0 -41 -18 -76q-19 -32 -54 -53q-36 -19 -76 -19q-37 0 -73 19q-37 23 -53 53q-21 35 -21 76z" />
    <glyph glyph-name="uni1E37" unicode="&#x1e37;" horiz-adv-x="489" 
d="M362 0h-235v1524h235v-1524zM242 -446q-60 0 -102 41.5t-42 101.5q0 42 21 72q17 34 51 51q29 20 72 20q60 0 101.5 -41.5t41.5 -101.5q0 -39 -18 -74q-20 -29 -52 -51q-35 -18 -73 -18z" />
    <glyph glyph-name="Wgrave" unicode="&#x1e80;" horiz-adv-x="2107" 
d="M494 0l-431 1454h267l299 -1122l307 1122h242l309 -1122l297 1122h260l-430 -1454h-254l-305 1106l-305 -1106h-256zM678 1872h303l281 -262h-250z" />
    <glyph glyph-name="wgrave" unicode="&#x1e81;" horiz-adv-x="1687" 
d="M29 1071h245l228 -782l239 782h211l238 -782l231 782h238l-359 -1071h-221l-235 778l-238 -778h-221zM514 1524h266l238 -293h-225z" />
    <glyph glyph-name="Wacute" unicode="&#x1e82;" horiz-adv-x="2107" 
d="M63 1454h267l299 -1122l307 1122h242l309 -1122l297 1122h260l-430 -1454h-254l-305 1106l-305 -1106h-256zM1094 1610h-250l280 262h303z" />
    <glyph glyph-name="wacute" unicode="&#x1e83;" horiz-adv-x="1687" 
d="M385 0l-356 1071h245l228 -782l239 782h211l238 -782l231 782h238l-359 -1071h-221l-235 778l-238 -778h-221zM891 1231h-225l237 293h266z" />
    <glyph glyph-name="Wdieresis" unicode="&#x1e84;" horiz-adv-x="2107" 
d="M63 1454h267l299 -1122l307 1122h242l309 -1122l297 1122h260l-430 -1454h-254l-305 1106l-305 -1106h-256zM815 1595q-59 0 -100 40t-41 100t40.5 99.5t100.5 39.5q61 0 101 -39t40 -100q0 -60 -40.5 -100t-100.5 -40zM1151 1735q0 60 40.5 99.5t100.5 39.5
q59 0 100.5 -40t41.5 -99t-41 -99.5t-101 -40.5q-59 0 -100 40t-41 100z" />
    <glyph glyph-name="wdieresis" unicode="&#x1e85;" horiz-adv-x="1687" 
d="M385 0l-356 1071h245l228 -782l239 782h211l238 -782l231 782h238l-359 -1071h-221l-235 778l-238 -778h-221zM934 1305q-19 29 -19 65q0 55 39 94t95 39q54 0 93.5 -39t39.5 -94q0 -54 -39.5 -93.5t-93.5 -39.5q-36 0 -68 18.5t-47 49.5zM635 1237q-54 0 -93.5 39.5
t-39.5 93.5t39.5 93.5t93.5 39.5q72 0 117 -65q16 -32 16 -68q0 -56 -39 -94.5t-94 -38.5z" />
    <glyph glyph-name="Germandbls" unicode="&#x1e9e;" horiz-adv-x="1323" 
d="M127 0v877q0 128 37 238t107 192.5t177.5 130t241.5 47.5q162 0 303.5 -71.5t229.5 -203.5l-269 -352q143 -43 226.5 -156t83.5 -264q0 -137 -68 -245t-182 -166t-252 -58q-135 0 -254 64l55 203q88 -48 191 -48q110 0 182 69.5t72 180.5q0 119 -85 186.5t-210 67.5
l-23 150l248 323q-108 97 -242 97q-103 0 -177 -53t-108 -137t-34 -189v-883h-250z" />
    <glyph glyph-name="Ygrave" unicode="&#x1ef2;" horiz-adv-x="1327" 
d="M539 573l-510 881h282l357 -651l354 651h276l-510 -881v-573h-249v573zM621 1610l-334 262h303l280 -262h-249z" />
    <glyph glyph-name="ygrave" unicode="&#x1ef3;" horiz-adv-x="1116" 
d="M29 1071h258l288 -801l263 801h249l-454 -1200q-55 -141 -140.5 -219t-222.5 -78q-101 0 -180 43l51 186q7 -3 52 -18q27 -6 55 -6q69 0 112 38t72 109l33 84zM229 1524h267l237 -293h-225z" />
    <glyph glyph-name="uni2000" unicode="&#x2000;" horiz-adv-x="1024" 
 />
    <glyph glyph-name="uni2001" unicode="&#x2001;" horiz-adv-x="2048" 
 />
    <glyph glyph-name="uni2002" unicode="&#x2002;" horiz-adv-x="1024" 
 />
    <glyph glyph-name="uni2003" unicode="&#x2003;" horiz-adv-x="2048" 
 />
    <glyph glyph-name="uni2004" unicode="&#x2004;" horiz-adv-x="681" 
 />
    <glyph glyph-name="uni2005" unicode="&#x2005;" horiz-adv-x="512" 
 />
    <glyph glyph-name="uni2006" unicode="&#x2006;" horiz-adv-x="339" 
 />
    <glyph glyph-name="uni2007" unicode="&#x2007;" horiz-adv-x="1216" 
 />
    <glyph glyph-name="uni2008" unicode="&#x2008;" horiz-adv-x="520" 
 />
    <glyph glyph-name="uni2009" unicode="&#x2009;" horiz-adv-x="409" 
 />
    <glyph glyph-name="uni200A" unicode="&#x200a;" horiz-adv-x="129" 
 />
    <glyph glyph-name="uni200B" unicode="&#x200b;" 
 />
    <glyph glyph-name="endash" unicode="&#x2013;" horiz-adv-x="1024" 
d="M0 473v180h1024v-180h-1024z" />
    <glyph glyph-name="emdash" unicode="&#x2014;" horiz-adv-x="2048" 
d="M0 473v180h2048v-180h-2048z" />
    <glyph glyph-name="quoteleft" unicode="&#x2018;" horiz-adv-x="491" 
d="M76 1128q0 123 76.5 217.5t197.5 133.5l47 -127q-70 -26 -120 -79t-50 -120q0 -19 4 -43q22 16 52 16q51 0 83.5 -33.5t32.5 -84.5q0 -53 -40.5 -88t-94.5 -35q-58 0 -102.5 39.5t-65 93.5t-20.5 110z" />
    <glyph glyph-name="quoteright" unicode="&#x2019;" horiz-adv-x="491" 
d="M209 1221q-47 0 -82 35.5t-35 82.5q0 53 40.5 88t94.5 35q86 0 137.5 -76t51.5 -167q0 -124 -75.5 -217t-199.5 -134l-47 127q70 26 120 79t50 120q0 19 -4 43q-22 -16 -51 -16z" />
    <glyph glyph-name="quotesinglbase" unicode="&#x201a;" horiz-adv-x="483" 
d="M219 43q-47 0 -82 36t-35 83q0 53 41 88t95 35q86 0 137 -76.5t51 -167.5q0 -124 -75 -216.5t-199 -133.5l-48 127q71 26 120.5 77.5t49.5 120.5q0 19 -4 43q-22 -16 -51 -16z" />
    <glyph glyph-name="quotedblleft" unicode="&#x201c;" horiz-adv-x="905" 
d="M678 885q-58 0 -102.5 39.5t-65.5 93.5t-21 110q0 123 77 217t198 134l47 -127q-70 -26 -120 -79t-50 -120q0 -19 4 -43q22 16 51 16q51 0 84 -33.5t33 -84.5q0 -53 -40.5 -88t-94.5 -35zM264 885q-58 0 -102.5 39.5t-65 93.5t-20.5 110q0 123 76.5 217.5t197.5 133.5
l47 -127q-70 -26 -120 -79t-50 -120q0 -19 4 -43q22 16 52 16q51 0 83.5 -33.5t32.5 -84.5q0 -53 -40.5 -88t-94.5 -35z" />
    <glyph glyph-name="quotedblright" unicode="&#x201d;" horiz-adv-x="905" 
d="M92 1339q0 53 40.5 88t94.5 35q86 0 137.5 -76t51.5 -167q0 -124 -75.5 -217t-199.5 -134l-47 127q70 26 120 79t50 120q0 19 -4 43q-22 -16 -51 -16q-47 0 -82 35.5t-35 82.5zM623 1221q-47 0 -82 35.5t-35 82.5q0 53 40.5 88t94.5 35q86 0 137 -76t51 -167
q0 -124 -75 -217t-199 -134l-47 127q70 26 120 79t50 120q0 19 -4 43q-22 -16 -51 -16z" />
    <glyph glyph-name="quotedblbase" unicode="&#x201e;" horiz-adv-x="899" 
d="M102 162q0 53 41 88t95 35q86 0 137 -76.5t51 -167.5q0 -124 -75 -216.5t-199 -133.5l-48 127q71 26 120.5 77.5t49.5 120.5q0 19 -4 43q-22 -16 -51 -16q-47 0 -82 36t-35 83zM635 43q-47 0 -82 36t-35 83q0 53 40.5 88t94.5 35q86 0 137.5 -76.5t51.5 -167.5
q0 -124 -75.5 -216.5t-199.5 -133.5l-47 127q71 26 120.5 77.5t49.5 120.5q0 19 -4 43q-22 -16 -51 -16z" />
    <glyph glyph-name="dagger" unicode="&#x2020;" horiz-adv-x="964" 
d="M375 905h-314v189h314v360h215v-360h313v-189h-313v-1073h-215v1073z" />
    <glyph glyph-name="daggerdbl" unicode="&#x2021;" horiz-adv-x="1060" 
d="M109 905v189h313v360h215v-360h313v-189h-313v-514h313v-188h-313v-371h-215v371h-313v188h313v514h-313z" />
    <glyph glyph-name="bullet" unicode="&#x2022;" horiz-adv-x="585" 
d="M88 565q0 85 59.5 145t145.5 60q87 0 146 -59t59 -146q0 -85 -60 -145t-145 -60q-83 0 -144 61t-61 144z" />
    <glyph glyph-name="ellipsis" unicode="&#x2026;" horiz-adv-x="1560" 
d="M1300 -8q-63 0 -109 45.5t-46 109.5q0 65 45.5 110.5t109.5 45.5q65 0 110.5 -45t45.5 -111q0 -65 -45 -110t-111 -45zM625 147q0 65 45.5 110.5t109.5 45.5q65 0 110.5 -45t45.5 -111q0 -65 -45 -110t-111 -45q-63 0 -109 45.5t-46 109.5zM260 -8q-63 0 -109.5 45.5
t-46.5 109.5q0 65 46 110.5t110 45.5q65 0 110.5 -45t45.5 -111q0 -65 -45 -110t-111 -45z" />
    <glyph glyph-name="perthousand" unicode="&#x2030;" horiz-adv-x="2260" 
d="M1126 -18q-136 0 -227.5 90t-91.5 227q0 139 91.5 230.5t231.5 91.5q137 0 228.5 -90.5t91.5 -229.5q0 -138 -92 -228.5t-232 -90.5zM1546 299q0 139 92 230.5t232 91.5q137 0 228 -90.5t91 -229.5q0 -138 -91.5 -228.5t-231.5 -90.5q-136 0 -228 89.5t-92 227.5z
M391 793q-136 0 -227.5 89.5t-91.5 227.5q0 139 91.5 230.5t231.5 91.5q137 0 228.5 -90.5t91.5 -229.5q0 -138 -92 -228.5t-232 -90.5zM418 0h-197l883 1413h196zM393 1272q-63 0 -101 -47t-38 -113q0 -65 37.5 -112.5t101.5 -47.5q63 0 101 47t38 113q0 65 -37.5 112.5
t-101.5 47.5zM1868 461q-63 0 -101 -47t-38 -113q0 -65 37.5 -112.5t101.5 -47.5q63 0 101 47t38 113q0 65 -37.5 112.5t-101.5 47.5zM1128 461q-63 0 -101 -47.5t-38 -112.5q0 -64 38 -112t101 -48t101.5 47.5t38.5 112.5t-38 112.5t-102 47.5z" />
    <glyph glyph-name="guilsinglleft" unicode="&#x2039;" horiz-adv-x="606" 
d="M319 195l-278 389l278 389h216l-271 -389l271 -389h-216z" />
    <glyph glyph-name="guilsinglright" unicode="&#x203a;" horiz-adv-x="606" 
d="M72 195l270 389l-270 389h215l278 -389l-278 -389h-215z" />
    <glyph glyph-name="fraction" unicode="&#x2044;" horiz-adv-x="190" 
d="M-444 0l893 1413h186l-893 -1413h-186z" />
    <glyph glyph-name="uni2080" unicode="&#x2080;" horiz-adv-x="731" 
d="M57 389q0 61 9.5 117.5t32.5 110t57.5 93t88 63.5t120.5 24q82 0 144 -35t96 -94.5t50.5 -129t16.5 -149.5q0 -60 -9.5 -116.5t-32.5 -110t-57.5 -93t-88 -63.5t-119.5 -24q-81 0 -142.5 35t-96.5 94.5t-52 129.5t-17 148zM231 389q0 -30 2.5 -59.5t11 -66t22.5 -63
t39.5 -45t58.5 -18.5q41 0 69.5 26t41 69t17.5 80t5 77t-4.5 77t-17 80t-41 69t-70.5 26t-70.5 -26t-41.5 -69t-17.5 -80t-4.5 -77z" />
    <glyph glyph-name="uni2081" unicode="&#x2081;" horiz-adv-x="731" 
d="M340 0v598l-170 -90l-53 141l245 129h148v-778h-170z" />
    <glyph glyph-name="uni2082" unicode="&#x2082;" horiz-adv-x="731" 
d="M82 569q18 102 99.5 165t187.5 63q112 0 190 -69t78 -181q0 -52 -20.5 -103t-58 -96t-73.5 -78.5t-84 -70.5q-9 -7 -59 -47h309v-152h-561v125q48 35 92 74q18 16 47 40t37 31q27 25 56 49q141 122 141 224q0 44 -29.5 73t-73.5 29q-38 0 -73 -24q-33 -26 -45 -78z" />
    <glyph glyph-name="uni2083" unicode="&#x2083;" horiz-adv-x="731" 
d="M356 -18q-108 0 -188.5 56t-106.5 157l158 26q13 -43 49 -66.5t82 -23.5q49 0 87 26t38 74q0 46 -36.5 70.5t-84.5 24.5h-84v147h72q50 0 84 27q33 23 33 63q0 37 -31 62q-31 22 -76 22q-43 0 -75 -21t-44 -61l-157 27q24 98 102.5 151.5t183.5 53.5q107 0 187 -57
t80 -160q0 -116 -115 -172q133 -52 133 -189q0 -110 -87.5 -173.5t-203.5 -63.5z" />
    <glyph glyph-name="uni2084" unicode="&#x2084;" horiz-adv-x="731" 
d="M45 156v137l336 485h192v-481h84v-141h-84v-156h-165v156h-363zM207 297h201v289z" />
    <glyph glyph-name="colonmonetary" unicode="&#x20a1;" horiz-adv-x="1216" 
d="M342 72q-89 66 -146.5 176t-78.5 220t-21 230q0 98 14 191t49 186.5t87.5 165.5t135.5 122.5t187 63.5l41 242h117l-39 -237q54 -3 111 -19l43 256h116l-51 -305q159 -99 217 -309l-211 -43q-16 52 -49 100l-153 -917q77 15 130 70.5t74 135.5l218 -43
q-41 -163 -164 -265t-293 -111l-45 -269h-117l45 273q-61 6 -110 26l-50 -299h-116zM653 1227l-166 -994q45 -33 107 -43l170 1010q-52 27 -111 27zM532 1202q-61 -29 -103.5 -87.5t-62.5 -133.5t-28 -142t-8 -139q0 -216 61 -344z" />
    <glyph glyph-name="uni20A8" unicode="&#x20a8;" horiz-adv-x="2156" 
d="M377 0h-238v1413h412q108 0 200.5 -25.5t167.5 -77t117.5 -138.5t42.5 -201q0 -127 -65 -231.5t-180 -159.5l321 -580h-270l-267 514q-70 -4 -92 -4q-66 0 -149 12v-522zM1647 -31q-98 0 -184 30.5t-154.5 97t-96.5 159.5l213 55q27 -69 88 -108t136 -39q71 0 126.5 34.5
t55.5 100.5q0 110 -174 137l-68 13q-55 10 -103 25.5t-93.5 41t-78 59.5t-52 82.5t-19.5 106.5q0 106 57.5 184.5t146.5 116t195 37.5q145 0 257.5 -73.5t150.5 -209.5l-211 -51q-55 141 -199 141q-64 0 -114.5 -33t-50.5 -94q0 -32 17.5 -55.5t49.5 -37.5t57.5 -21
t59.5 -13l67 -12q69 -11 127.5 -35t107.5 -62t77 -95.5t28 -128.5q0 -110 -60.5 -192t-154.5 -121.5t-204 -39.5zM551 1202h-174v-467q60 -14 162 -14q62 0 114 13t95 40.5t67.5 76t24.5 112.5q0 122 -81 180.5t-208 58.5z" />
    <glyph glyph-name="uni20A9" unicode="&#x20a9;" horiz-adv-x="1935" 
d="M70 543v141h229l-45 168h-184v141h147l-108 420h247l90 -420h326l96 420h207l99 -420h325l90 420h238l-109 -420h148v-141h-185l-45 -168h230v-141h-267l-141 -543h-244l-124 543h-242l-125 -543h-246l-141 543h-266zM477 852l37 -168h186l39 168h-262zM1206 852l39 -168
h187l36 168h-262zM969 1061l-88 -377h176zM1401 543h-123l63 -275zM668 543h-123l59 -275z" />
    <glyph glyph-name="uni20AA" unicode="&#x20aa;" horiz-adv-x="1882" 
d="M170 0v1413h606q228 0 362 -135t134 -367v-481h-217v473q0 136 -75 207.5t-212 71.5h-381v-1182h-217zM1219 0h-607v979h217v-748h381q135 0 211 72t76 207v903h217v-911q0 -229 -131.5 -365.5t-363.5 -136.5z" />
    <glyph glyph-name="dong" unicode="&#x20ab;" horiz-adv-x="1216" 
d="M502 -31q-102 0 -189.5 44.5t-146 117.5t-91 167t-32.5 194q0 137 55.5 256t165 195.5t250.5 76.5q192 0 307 -158v250h-268v164h268v137h238v-137h135v-164h-135v-1112h-217l-8 154q-54 -89 -141 -137t-191 -48zM283 496q0 -129 72 -223.5t198 -94.5q125 0 198.5 94
t73.5 224q0 82 -30.5 153t-94 117.5t-147.5 46.5q-125 0 -197.5 -93.5t-72.5 -223.5zM53 -313v163h1067v-163h-1067z" />
    <glyph glyph-name="Euro" unicode="&#x20ac;" horiz-adv-x="1216" 
d="M147 780h-155l37 154h137q21 107 61.5 196t103.5 161t155 112.5t204 40.5q173 0 300.5 -99t168.5 -268l-223 -45q-27 91 -91.5 143t-156.5 52q-62 0 -111.5 -24t-82.5 -67t-54 -92.5t-34 -109.5h440l-37 -154h-424q-2 -27 -2 -82q0 -50 2 -75h393l-35 -154h-337
q26 -126 94.5 -204.5t185.5 -78.5q95 0 162.5 52t95.5 143l223 -45q-41 -170 -173.5 -268.5t-311.5 -98.5q-109 0 -199.5 38t-154 106.5t-104.5 158t-60 197.5h-172l37 154h118q-2 23 -2 71q0 59 2 86z" />
    <glyph glyph-name="uni20AD" unicode="&#x20ad;" horiz-adv-x="1216" 
d="M174 647h-149v189h149v577h238v-622l456 622h277l-455 -577h369v-189h-357l517 -647h-308l-499 684v-684h-238v647z" />
    <glyph glyph-name="uni20B1" unicode="&#x20b1;" horiz-adv-x="1216" 
d="M31 725v117h155v139h-153v117h153v315h371q172 0 299 -78.5t182 -236.5h152v-117h-125q4 -54 4 -80q0 -41 -2 -59h123v-117h-148q-54 -161 -185.5 -247.5t-307.5 -86.5q-51 0 -129 10v-401h-234v725h-155zM831 981h-411v-139h416q4 36 4 61q0 41 -9 78zM793 725h-373
v-119q68 -10 110 -10q82 0 151 32t112 97zM551 1208h-131v-110h364q-85 110 -233 110z" />
    <glyph glyph-name="uni20B9" unicode="&#x20b9;" horiz-adv-x="1216" 
d="M154 1233v180h960l-45 -180h-225q80 -77 106 -182h164l-45 -179h-111q-24 -160 -141 -255t-287 -113l582 -504h-348l-608 535h-2v165q114 -24 235 -24q57 0 106.5 9t96.5 30t79.5 61t45.5 96h-563v179h561q-29 95 -107.5 138.5t-187.5 43.5h-266z" />
    <glyph glyph-name="uni20BA" unicode="&#x20ba;" horiz-adv-x="1216" 
d="M102 344v168l148 70v168l-146 -70v168l146 70v495h237v-381l289 137v-168l-289 -137v-168l289 138v-168l-289 -138v-301h5q345 0 415 381l226 -20q-92 -588 -666 -588h-217v414z" />
    <glyph glyph-name="trademark" unicode="&#x2122;" horiz-adv-x="1617" 
d="M754 735v719h172l200 -399l201 399h168v-719h-166v453l-149 -303h-111l-149 303v-453h-166zM258 1303h-203v151h578v-151h-203v-568h-172v568z" />
    <glyph glyph-name="minus" unicode="&#x2212;" horiz-adv-x="1216" 
d="M188 461v207h840v-207h-840z" />
    <glyph glyph-name="uniFEFF" unicode="&#xfeff;" 
 />
    <glyph glyph-name="uniFFFD" unicode="&#xfffd;" horiz-adv-x="1654" 
d="M827 -70l-796 797l796 797l797 -797zM827 1159q-110 0 -195 -58t-110 -163l137 -35q15 59 58 93t104 34q65 0 107.5 -40t42.5 -105q0 -141 -226 -197v-196h140v124q106 31 172.5 103.5t66.5 177.5q0 117 -88 189.5t-209 72.5zM815 403q-40 0 -66 -27t-26 -67t26 -66
t66 -26t67 26t27 66q0 41 -26.5 67.5t-67.5 26.5z" />
    <glyph glyph-name="glyph1" 
 />
    <glyph glyph-name="zero.aalt" horiz-adv-x="1216" 
d="M74 700q0 107 16.5 208t56.5 200t100.5 172.5t155.5 118.5t213 45q115 0 207 -43.5t150.5 -115t98 -168t55.5 -196.5t16 -208q0 -89 -11.5 -173.5t-36 -170t-67.5 -156.5t-100.5 -126.5t-140.5 -86.5t-183 -31q-115 0 -207 43.5t-151.5 114.5t-99 167.5t-56 197
t-16.5 208.5zM317 707q0 -64 6 -126t25.5 -135.5t50 -128t84.5 -91t125 -36.5q61 0 109 24.5t78.5 68t52 94.5t32 113t15 113t4.5 104t-4 104t-14.5 113t-32 112.5t-52 94t-79 68t-109.5 24.5q-52 0 -95 -19t-72.5 -50.5t-52 -75.5t-36 -89.5t-21.5 -98t-11 -96t-3 -87.5z
" />
    <glyph glyph-name="one.aalt" horiz-adv-x="1216" 
d="M584 0v1153l-308 -172l-83 199l428 233h200v-1413h-237z" />
    <glyph glyph-name="two.aalt" horiz-adv-x="1216" 
d="M117 1055q42 177 172 283t313 106q197 0 329 -124.5t132 -322.5q0 -93 -33 -172q-26 -64 -76.5 -136.5t-102 -130t-127 -129t-123 -112.5t-120.5 -102h606v-215h-962v180q131 108 212 177t188.5 174t187.5 202q52 69 80 129t28 129q0 66 -26.5 121.5t-79.5 87.5
q-56 29 -119 29q-98 0 -162 -59.5t-92 -159.5z" />
    <glyph glyph-name="three.aalt" horiz-adv-x="1216" 
d="M600 -31q-185 0 -324 98t-184 275l221 43q34 -99 106.5 -152t176.5 -53q109 0 185.5 59.5t76.5 166.5q0 109 -77.5 164t-192.5 55h-152v209h142q104 0 176.5 52.5t72.5 153.5q0 91 -65 142t-160 51t-165.5 -54t-96.5 -145l-221 43q37 170 175 268.5t318 98.5
q88 0 168.5 -24.5t145 -71t103 -121.5t38.5 -168q0 -108 -55 -190.5t-154 -127.5q114 -40 178 -130.5t64 -211.5q0 -98 -42.5 -180.5t-112.5 -136t-159.5 -83.5t-185.5 -30z" />
    <glyph glyph-name="four.aalt" horiz-adv-x="1216" 
d="M72 309v191l633 913h260v-901h168v-203h-168v-309h-234v309h-659zM307 512h424v608z" />
    <glyph glyph-name="five.aalt" horiz-adv-x="1216" 
d="M612 -31q-177 0 -316 99t-181 268l225 39q34 -92 105 -143.5t167 -51.5q114 0 189.5 73t75.5 187q0 113 -74 183.5t-189 70.5q-64 0 -124.5 -24t-104.5 -68l-192 21v790h821v-219h-596v-367q96 78 241 78q196 0 327.5 -131t131.5 -330q0 -136 -69 -245.5t-184.5 -169.5
t-252.5 -60z" />
    <glyph glyph-name="six.aalt" horiz-adv-x="1216" 
d="M84 659q0 118 25 230.5t78 213t128 176.5t183 120.5t235 44.5q184 0 326 -94l-72 -197q-112 72 -250 72q-82 0 -149 -28t-112.5 -74.5t-78 -112t-50 -134.5t-25.5 -149q112 180 348 180q128 0 235.5 -57.5t171.5 -162.5t64 -236q0 -137 -68 -248t-184 -172.5t-254 -61.5
q-137 0 -245 59t-173.5 158t-99 219.5t-33.5 253.5zM635 707q-112 0 -188 -72t-76 -186q0 -112 75 -191.5t187 -79.5q113 0 189.5 77t76.5 191t-74.5 187.5t-189.5 73.5z" />
    <glyph glyph-name="seven.aalt" horiz-adv-x="1216" 
d="M303 0l518 1194h-706v219h970v-184l-516 -1229h-266z" />
    <glyph glyph-name="eight.aalt" horiz-adv-x="1216" 
d="M606 -31q-77 0 -150.5 16t-140.5 49.5t-117.5 82t-80 119t-29.5 153.5q0 121 65 214t179 136q-93 45 -146 126.5t-53 183.5q0 93 41 169.5t108.5 124.5t152 74.5t175.5 26.5q89 0 171.5 -25t150 -72.5t108.5 -123.5t41 -170q0 -103 -50.5 -183.5t-143.5 -128.5
q115 -39 178 -130.5t63 -213.5q0 -84 -29 -154.5t-78.5 -120.5t-116.5 -85t-142.5 -51.5t-155.5 -16.5zM608 631q-113 0 -195.5 -58.5t-82.5 -169.5q0 -109 81.5 -168t196.5 -59q73 0 134.5 23t103 76t41.5 128q0 110 -82 169t-197 59zM608 1237q-96 0 -167.5 -54.5
t-71.5 -148.5t70.5 -148.5t168.5 -54.5q97 0 168.5 54t71.5 149q0 94 -71 148.5t-169 54.5z" />
    <glyph glyph-name="nine.aalt" horiz-adv-x="1216" 
d="M84 963q0 137 67.5 247.5t183 172t253.5 61.5q114 0 207.5 -40t155.5 -107.5t104.5 -159t61 -191.5t18.5 -209q0 -186 -45 -325q-67 -207 -223 -325t-373 -118q-197 0 -340 94l71 197q49 -32 119 -51q64 -21 143 -21q378 0 412 498q-112 -180 -348 -180
q-196 0 -331.5 130t-135.5 327zM588 1235q-112 0 -187 -77.5t-75 -190.5q0 -110 74 -185t186 -75t187 72.5t75 185.5t-73.5 191.5t-186.5 78.5z" />
    <glyph glyph-name="hyphen.aalt" horiz-adv-x="761" 
d="M94 647v209h574v-209h-574z" />
    <glyph glyph-name="endash.aalt" horiz-adv-x="1024" 
d="M0 662v180h1024v-180h-1024z" />
    <glyph glyph-name="emdash.aalt" horiz-adv-x="2048" 
d="M0 662v180h2048v-180h-2048z" />
    <glyph glyph-name="parenleft.aalt" horiz-adv-x="700" 
d="M436 -225q-342 417 -342 952t342 952h232q-357 -439 -357 -952q0 -259 93 -500.5t264 -451.5h-232z" />
    <glyph glyph-name="parenright.aalt" horiz-adv-x="700" 
d="M264 -225h-231q170 210 263 451.5t93 500.5q0 515 -356 952h231q342 -417 342 -952t-342 -952z" />
    <glyph glyph-name="slash.case" horiz-adv-x="929" 
d="M20 -164l672 1782h217l-671 -1782h-218z" />
    <glyph glyph-name="backslash.aalt" horiz-adv-x="929" 
d="M692 -164l-672 1782h218l671 -1782h-217z" />
    <glyph glyph-name="bracketleft.aalt" horiz-adv-x="733" 
d="M164 1679h487v-182h-278v-1540h278v-182h-487v1904z" />
    <glyph glyph-name="bracketright.aalt" horiz-adv-x="733" 
d="M360 1497h-278v182h487v-1904h-487v182h278v1540z" />
    <glyph glyph-name="braceleft.aalt" horiz-adv-x="751" 
d="M92 641h-31v172h31q71 0 108.5 41t37.5 111q0 43 -9 104q-22 135 -22 262q0 170 104 259t281 89h78v-182h-64q-184 0 -184 -192q0 -59 8 -111q23 -142 23 -221t-36 -149.5t-104 -96.5q76 -29 121 -133q19 -55 19 -113q0 -81 -23 -219q-8 -52 -8 -112q0 -93 46 -143
t138 -50h64v-182h-78q-175 0 -280 87t-105 261q0 106 22 264q9 59 9 102q0 70 -37.5 111t-108.5 41z" />
    <glyph glyph-name="braceright.aalt" horiz-adv-x="751" 
d="M160 -225h-78v182h63q92 0 138.5 50t46.5 143q0 81 -23 227q-8 52 -8 104q0 78 36 148t103 98q-41 18 -72 54.5t-47 80.5q-20 47 -20 111q0 52 8 104q23 146 23 228q0 95 -47 145q-50 47 -138 47h-63v182h78q175 0 280 -87t105 -261q0 -73 -8 -133q-9 -70 -15 -129
q-8 -55 -8 -104q0 -70 38 -111t107 -41h31v-172h-31q-69 0 -107 -41t-38 -111q0 -50 8 -102q6 -61 15 -129q8 -63 8 -135q0 -170 -104 -259t-281 -89z" />
    <glyph glyph-name="bullet.aalt" horiz-adv-x="585" 
d="M88 748q0 85 59.5 144.5t145.5 59.5q87 0 146 -58.5t59 -145.5q0 -85 -60 -145t-145 -60q-83 0 -144 61t-61 144z" />
    <glyph glyph-name="guilsinglleft.aalt" horiz-adv-x="606" 
d="M319 338l-278 389l278 389h216l-271 -389l271 -389h-216z" />
    <glyph glyph-name="guilsinglright.aalt" horiz-adv-x="606" 
d="M72 338l270 389l-270 389h215l278 -389l-278 -389h-215z" />
    <glyph glyph-name="guillemotleft.aalt" horiz-adv-x="1038" 
d="M752 338l-279 389l279 389h215l-271 -389l271 -389h-215zM41 727l278 389h216l-271 -389l271 -389h-216z" />
    <glyph glyph-name="guillemotright.aalt" horiz-adv-x="1038" 
d="M774 727l-270 389h215l278 -389l-278 -389h-215zM72 338l270 389l-270 389h215l278 -389l-278 -389h-215z" />
    <glyph glyph-name="at.aalt" horiz-adv-x="2070" 
d="M94 717q0 199 75 374t204 298.5t307.5 194.5t380.5 71q189 0 355.5 -60.5t291 -170t196.5 -273.5t72 -360q0 -76 -13 -149.5t-43 -144t-74 -123.5t-112.5 -85.5t-152.5 -32.5q-100 0 -175 47.5t-106 138.5q-47 -92 -126.5 -140t-184.5 -48q-125 0 -224 67t-150.5 174
t-51.5 232q0 90 30 175.5t83 153t134 108t175 40.5q92 0 169 -41.5t124 -118.5l6 136h203v-602q0 -62 31 -101q26 -39 77 -39q41 0 73 27t50.5 66.5t30.5 89.5t16 91t4 76q0 201 -90.5 356t-250.5 238.5t-365 83.5q-211 0 -383.5 -95t-272.5 -267t-100 -387
q0 -151 56 -286.5t152 -233.5t232 -155.5t289 -57.5q246 0 447 112l82 -168q-233 -133 -531 -133q-192 0 -365 69.5t-299.5 190t-201 293t-74.5 369.5zM786 731q0 -112 65 -193t177 -81q110 0 176 80.5t66 193.5q0 157 -117 240q-56 35 -125 35q-111 0 -176.5 -80.5
t-65.5 -194.5z" />
    <glyph glyph-name="periodcentered.case" horiz-adv-x="520" 
d="M104 727q0 65 46 110.5t110 45.5q65 0 110.5 -45t45.5 -111q0 -65 -45 -110.5t-111 -45.5q-63 0 -109.5 46t-46.5 110z" />
    <glyph glyph-name="exclamdown.aalt" horiz-adv-x="512" 
d="M383 0h-254l12 1028h230zM104 1311q0 63 44 107t108 44q63 0 107.5 -43.5t44.5 -107.5q0 -63 -44.5 -107.5t-107.5 -44.5q-62 0 -107 44.5t-45 107.5z" />
    <glyph glyph-name="questiondown.aalt" horiz-adv-x="1075" 
d="M551 -31q-91 0 -176.5 29.5t-152.5 82.5t-107.5 134t-40.5 176q0 163 104.5 277.5t272.5 167.5v192h229v-317q-66 -16 -122.5 -38.5t-113 -59t-89.5 -91t-33 -121.5q0 -97 66 -157t165 -60q92 0 162 52.5t98 140.5l221 -53q-44 -165 -175.5 -260t-307.5 -95zM565 1159
q-62 0 -106.5 44.5t-44.5 107.5t43.5 107t107.5 44q63 0 107.5 -44t44.5 -107q0 -62 -44.5 -107t-107.5 -45z" />
    <glyph glyph-name="a.ss01" horiz-adv-x="1294" 
d="M580 -31q-110 0 -205 46.5t-159 124.5t-100 179.5t-36 210.5q0 148 61 277.5t180 212t271 82.5q110 0 201 -48.5t149 -140.5l10 158h215v-1071h-215l-10 172q-58 -97 -153 -150t-209 -53zM322 535q0 -91 35 -170.5t106.5 -131t165.5 -51.5q93 0 164.5 50.5t107 130
t35.5 172.5q0 146 -82 250t-225 104q-140 0 -223.5 -104.5t-83.5 -249.5z" />
    <glyph glyph-name="ordfeminine.ss01" horiz-adv-x="927" 
d="M55 1034q0 77 25.5 149t71.5 128t115 89.5t149 33.5q150 0 233 -121l6 102h187v-758h-187l-8 111q-90 -129 -239 -129q-103 0 -185 56t-125 146t-43 193zM451 1253q-88 0 -140.5 -63.5t-52.5 -153.5q0 -89 52.5 -153t140.5 -64q87 0 139.5 63.5t52.5 153.5t-52 153.5
t-140 63.5z" />
    <glyph glyph-name="glyph199" horiz-adv-x="212" 
d="M-27 772q0 55 39 95t94 40t94.5 -39.5t39.5 -95.5t-39.5 -95.5t-94.5 -39.5q-54 0 -93.5 40.5t-39.5 94.5z" />
    <glyph glyph-name="glyph200" 
d="M-434 803q0 39 18 74q22 32 54 51q35 18 73 18t72 -18q74 -48 74 -125q0 -42 -21 -72q-17 -32 -53 -51q-34 -21 -72 -21q-39 0 -73 21q-72 38 -72 123z" />
    <glyph glyph-name="glyph205" horiz-adv-x="1202" 
d="M127 1071h235v-559q0 -55 12.5 -103.5t37.5 -88.5t69.5 -63.5t102.5 -23.5q113 0 184.5 76t71.5 191v571h235v-991q0 -150 -56.5 -265.5t-169.5 -183t-267 -67.5q-147 0 -265.5 67t-179.5 195l217 78q37 -61 98 -97t130 -36q125 0 191.5 80t66.5 210v119
q-53 -78 -136 -119t-180 -41t-174 37t-125 102t-73 148t-25 178v586z" />
    <glyph glyph-name="ae.ss01" horiz-adv-x="1988" 
d="M80 530q0 87 21.5 170.5t64.5 156t102.5 127.5t140 86.5t171.5 31.5q113 0 200.5 -52.5t139.5 -152.5l8 174h182l6 -129q60 78 144.5 119t183.5 41q110 0 201 -46t149 -123t89.5 -176t31.5 -208v-70h-772q13 -132 87.5 -218.5t203.5 -86.5q164 0 252 150l206 -80
q-56 -126 -179.5 -200.5t-264.5 -74.5q-98 0 -185.5 41t-146.5 117l-6 -127h-182l-8 186q-52 -99 -146 -158t-205 -59q-109 0 -202.5 47t-155.5 125.5t-96.5 179.5t-34.5 209zM618 889q-137 0 -216.5 -105.5t-79.5 -248.5q0 -66 19.5 -128t55.5 -112.5t93.5 -81.5t127.5 -31
q91 0 160.5 52t103 131.5t33.5 169.5q0 91 -32 170t-101.5 131.5t-163.5 52.5zM1147 647h522q-13 110 -80 187t-174 77q-108 0 -177 -75.5t-91 -188.5z" />
    <glyph glyph-name="glyph234" 
d="M-61 -479q-89 0 -172 30l30 140q9 -2 30.5 -8.5t31.5 -8.5q36 -4 53 -4q45 0 70 19q26 17 26 49q0 72 -137 72l68 206h157l-37 -120q63 -18 105.5 -65t42.5 -110q0 -118 -127 -176q-62 -24 -141 -24z" />
    <glyph glyph-name="glyph237" 
d="M-137 -244q0 52 36.5 81.5t88.5 29.5q84 0 131 -80q18 -37 18 -84q0 -90 -57 -154.5t-148 -97.5l-45 105q49 22 76 49q31 28 37 61q-17 -10 -39 -10q-41 0 -70 29q-28 31 -28 71z" />
    <glyph glyph-name="glyph240" 
d="M-274 -432q-107 54 -107 162q0 39 16.5 79t40 71.5t60 65.5t64 55.5t63.5 47.5l137 -49q-92 -71 -141 -127q-43 -52 -43 -92q0 -33 22.5 -50.5t57.5 -17.5q58 0 100 19l27 -152q-100 -35 -179 -35q-60 0 -118 23z" />
    <glyph glyph-name="glyph241" 
d="M-375 -260q0 158 250 346l148 18q-207 -201 -207 -309q0 -82 92 -82q54 0 88 19l27 -146q-84 -35 -164 -35q-97 0 -165.5 47.5t-68.5 141.5z" />
    <glyph glyph-name="glyph242" 
d="M-152 -455q-99 0 -164 50t-65 145q0 165 252 358l152 19q-207 -207 -207 -322q0 -82 82 -82q59 0 98 19l27 -152q-90 -35 -175 -35z" />
    <glyph glyph-name="aogonek.ss01" horiz-adv-x="1294" 
d="M580 -31q-110 0 -205 46.5t-159 124.5t-100 179.5t-36 210.5q0 148 61 277.5t180 212t271 82.5q110 0 201 -48.5t149 -140.5l10 158h215v-1071q-184 -142 -184 -219q0 -32 23.5 -50t56.5 -18q63 0 100 19l27 -146q-90 -35 -174 -35q-90 0 -156.5 46.5t-66.5 134.5
q0 123 180 268h-21l-10 172q-58 -97 -153 -150t-209 -53zM322 535q0 -91 35 -170.5t106.5 -131t165.5 -51.5q93 0 164.5 50.5t107 130t35.5 172.5q0 146 -82 250t-225 104q-140 0 -223.5 -104.5t-83.5 -249.5z" />
    <glyph glyph-name="glyph270" 
d="M-209 1610l281 262h303l-334 -262h-250z" />
    <glyph glyph-name="glyph273" 
d="M29 1610l284 262h285l-334 -262h-235zM-166 1610h-235l284 262h285z" />
    <glyph glyph-name="Iacute_J_acutecomb.locl" horiz-adv-x="1415" 
d="M705 -41q-206 0 -358 103.5t-214 297.5l240 62q44 -110 125 -172t196 -62q166 0 255 112.5t89 285.5v868h250v-870q0 -177 -66 -317t-200 -224t-317 -84zM127 614v840h250v-840h-250zM1204 1610h-250l281 262h303zM43 1610l281 262h303l-334 -262h-250z" />
    <glyph glyph-name="iacute_j_acutecomb.locl" horiz-adv-x="1202" 
d="M127 1071h235v-559q0 -55 12.5 -103.5t37.5 -88.5t69.5 -63.5t102.5 -23.5q113 0 184.5 76t71.5 191v571h235v-991q0 -150 -56.5 -265.5t-169.5 -183t-267 -67.5q-147 0 -265.5 67t-179.5 195l217 78q37 -61 98 -97t130 -36q125 0 191.5 80t66.5 210v119
q-53 -78 -136 -119t-180 -41t-174 37t-125 102t-73 148t-25 178v586zM1006 1231h-226l238 293h266zM293 1231h-225l237 293h266z" />
    <glyph glyph-name="aacute.ss01" horiz-adv-x="1294" 
d="M80 530q0 148 61 277.5t180 212t271 82.5q110 0 201 -48.5t149 -140.5l10 158h215v-1071h-215l-10 172q-58 -97 -153 -150t-209 -53q-110 0 -205 46.5t-159 124.5t-100 179.5t-36 210.5zM322 535q0 -91 35 -170.5t106.5 -131t165.5 -51.5q93 0 164.5 50.5t107 130
t35.5 172.5q0 146 -82 250t-225 104q-140 0 -223.5 -104.5t-83.5 -249.5zM688 1231h-225l237 293h267z" />
    <glyph glyph-name="glyph309" 
d="M-41 1610l-334 262h303l281 -262h-250z" />
    <glyph glyph-name="agrave.ss01" horiz-adv-x="1294" 
d="M580 -31q-110 0 -205 46.5t-159 124.5t-100 179.5t-36 210.5q0 148 61 277.5t180 212t271 82.5q110 0 201 -48.5t149 -140.5l10 158h215v-1071h-215l-10 172q-58 -97 -153 -150t-209 -53zM629 889q-140 0 -223.5 -104.5t-83.5 -249.5q0 -91 35 -170.5t106.5 -131
t165.5 -51.5q93 0 164.5 50.5t107 130t35.5 172.5q0 146 -82 250t-225 104zM590 1231l-279 293h267l237 -293h-225z" />
    <glyph glyph-name="glyph328" 
d="M-412 1610l297 262h230l297 -262h-250l-164 127l-166 -127h-244z" />
    <glyph glyph-name="glyph331" 
d="M-219 1616h-168q9 79 41 145q72 125 199 125q77 0 161 -53q71 -53 117 -53q35 0 59 24q22 26 31 70h168q-12 -112 -72 -191t-167 -79q-78 0 -162 53q-71 53 -117 53q-37 0 -59 -27t-31 -67z" />
    <glyph glyph-name="acircumflex.ss01" horiz-adv-x="1294" 
d="M80 530q0 148 61 277.5t180 212t271 82.5q110 0 201 -48.5t149 -140.5l10 158h215v-1071h-215l-10 172q-58 -97 -153 -150t-209 -53q-110 0 -205 46.5t-159 124.5t-100 179.5t-36 210.5zM629 889q-140 0 -223.5 -104.5t-83.5 -249.5q0 -91 35 -170.5t106.5 -131
t165.5 -51.5q93 0 164.5 50.5t107 130t35.5 172.5q0 146 -82 250t-225 104zM281 1231l264 293h190l264 -293h-215l-145 145l-150 -145h-208z" />
    <glyph glyph-name="atilde.ss01" horiz-adv-x="1294" 
d="M580 -31q-110 0 -205 46.5t-159 124.5t-100 179.5t-36 210.5q0 148 61 277.5t180 212t271 82.5q110 0 201 -48.5t149 -140.5l10 158h215v-1071h-215l-10 172q-58 -97 -153 -150t-209 -53zM322 535q0 -91 35 -170.5t106.5 -131t165.5 -51.5q93 0 164.5 50.5t107 130
t35.5 172.5q0 146 -82 250t-225 104q-140 0 -223.5 -104.5t-83.5 -249.5zM461 1233h-164q5 50 18 95t37 86.5t64 66t92 24.5q77 0 143 -51q71 -51 101 -51q27 0 45 24q19 22 22 68h164q-4 -48 -17.5 -93t-37.5 -87t-64.5 -67t-91.5 -25q-77 0 -141 51q-25 20 -53 37
q-22 14 -50 14q-26 0 -45 -22q-19 -26 -22 -70z" />
    <glyph glyph-name="glyph360" 
d="M-412 1872h250l164 -127l166 127h244l-297 -262h-230z" />
    <glyph glyph-name="glyph363" 
d="M139 1210l29 314h209l-82 -314h-156z" />
    <glyph glyph-name="glyph365" 
d="M-358 1620v180h716v-180h-716z" />
    <glyph glyph-name="amacron.ss01" horiz-adv-x="1294" 
d="M80 530q0 148 61 277.5t180 212t271 82.5q110 0 201 -48.5t149 -140.5l10 158h215v-1071h-215l-10 172q-58 -97 -153 -150t-209 -53q-110 0 -205 46.5t-159 124.5t-100 179.5t-36 210.5zM322 535q0 -91 35 -170.5t106.5 -131t165.5 -51.5q93 0 164.5 50.5t107 130
t35.5 172.5q0 146 -82 250t-225 104q-140 0 -223.5 -104.5t-83.5 -249.5zM326 1249v170h626v-170h-626z" />
    <glyph glyph-name="glyph396" 
d="M-238 1595q-60 0 -100.5 39.5t-40.5 100.5q0 60 40 99.5t101 39.5t101.5 -39t40.5 -100q0 -60 -41 -100t-101 -40zM240 1595q-59 0 -100.5 40.5t-41.5 99.5q0 60 41 99.5t101 39.5q59 0 100 -40t41 -99t-40.5 -99.5t-100.5 -40.5z" />
    <glyph glyph-name="glyph399" 
d="M0 1599q-136 0 -235.5 75t-122.5 208h194q15 -59 58.5 -92t105.5 -33q64 0 106.5 32t57.5 93h194q-23 -132 -121.5 -207.5t-236.5 -75.5z" />
    <glyph glyph-name="adieresis.ss01" horiz-adv-x="1294" 
d="M80 530q0 148 61 277.5t180 212t271 82.5q110 0 201 -48.5t149 -140.5l10 158h215v-1071h-215l-10 172q-58 -97 -153 -150t-209 -53q-110 0 -205 46.5t-159 124.5t-100 179.5t-36 210.5zM322 535q0 -91 35 -170.5t106.5 -131t165.5 -51.5q93 0 164.5 50.5t107 130
t35.5 172.5q0 146 -82 250t-225 104q-140 0 -223.5 -104.5t-83.5 -249.5zM713 1370q0 56 38.5 94.5t94.5 38.5q54 0 93.5 -39t39.5 -94q0 -54 -39.5 -93.5t-93.5 -39.5q-36 0 -68 18.5t-47 49.5q-18 27 -18 65zM299 1370q0 54 39.5 93.5t93.5 39.5q72 0 117 -65
q16 -32 16 -68q0 -56 -38.5 -94.5t-94.5 -38.5q-54 0 -93.5 39.5t-39.5 93.5z" />
    <glyph glyph-name="abreve.ss01" horiz-adv-x="1294" 
d="M580 -31q-110 0 -205 46.5t-159 124.5t-100 179.5t-36 210.5q0 148 61 277.5t180 212t271 82.5q110 0 201 -48.5t149 -140.5l10 158h215v-1071h-215l-10 172q-58 -97 -153 -150t-209 -53zM322 535q0 -91 35 -170.5t106.5 -131t165.5 -51.5q93 0 164.5 50.5t107 130
t35.5 172.5q0 146 -82 250t-225 104q-140 0 -223.5 -104.5t-83.5 -249.5zM305 1501h189q32 -117 145 -117q114 0 145 117h189q-23 -127 -113 -199.5t-221 -72.5q-129 0 -220 72.5t-114 199.5z" />
    <glyph glyph-name="glyph422" 
d="M-147 1743q0 39 18 74q20 33 53 53q34 18 76 18t76 -18q33 -20 53 -53q18 -35 18 -74t-18 -74q-23 -37 -53 -53q-34 -21 -76 -21q-41 0 -76 21q-30 16 -53 53q-18 35 -18 74z" />
    <glyph glyph-name="glyph425" 
d="M-147 -315q0 39 18 73q22 36 53 52q33 20 76 20t76 -20q31 -16 53 -52q18 -34 18 -73q0 -41 -18 -76q-20 -33 -53 -53q-36 -19 -76 -19t-76 19q-33 20 -53 53q-18 35 -18 76z" />
    <glyph glyph-name="glyph440" 
d="M-225 1755q0 57 28 111q32 51 84 78.5t113 27.5t113 -27.5t84 -78.5q28 -54 28 -111q0 -93 -65 -155t-160 -62q-94 0 -159.5 61.5t-65.5 155.5zM-92 1755q0 -38 27 -66t65 -28t65 28t27 66q0 40 -26 67t-66 27t-66 -27t-26 -67z" />
    <glyph glyph-name="aring.ss01" horiz-adv-x="1294" 
d="M580 -31q-110 0 -205 46.5t-159 124.5t-100 179.5t-36 210.5q0 148 61 277.5t180 212t271 82.5q110 0 201 -48.5t149 -140.5l10 158h215v-1071h-215l-10 172q-58 -97 -153 -150t-209 -53zM322 535q0 -91 35 -170.5t106.5 -131t165.5 -51.5q93 0 164.5 50.5t107 130
t35.5 172.5q0 146 -82 250t-225 104q-140 0 -223.5 -104.5t-83.5 -249.5zM418 1389q0 90 65.5 151.5t155.5 61.5q120 0 192 -105q29 -53 29 -108q0 -90 -64.5 -151.5t-156.5 -61.5q-58 0 -109.5 28t-80.5 78q-31 48 -31 107zM639 1485q-40 0 -67 -28t-27 -68q0 -39 28 -68
t66 -29q39 0 66.5 28.5t27.5 68.5q0 41 -26.5 68.5t-67.5 27.5z" />
    <glyph glyph-name="colon_B_e_l_o_colon.dlig" horiz-adv-x="1599" 
d="M424 -20q-131 0 -227.5 91.5t-96.5 223.5q0 41 15 88q9 35 43 115q17 42 55 120q11 22 34.5 71.5t37.5 76.5q12 25 37.5 78.5t39.5 81.5q24 48 72.5 145.5t73.5 145.5l30 57.5t21 40.5q89 160 240 160q83 0 139 -40.5t100 -119.5q6 -11 23.5 -43.5t28.5 -54.5
q46 -94 69 -136q25 -50 78 -155q5 -11 33.5 -70.5t44.5 -89.5q7 -15 31.5 -68.5t37.5 -79.5q71 -145 101 -235q12 -47 12 -88q0 -132 -94.5 -223.5t-228.5 -91.5q-185 0 -375 208q-190 -208 -375 -208zM207 362q-10 -38 -10 -67q0 -90 67 -155.5t158 -65.5q146 0 313 188
q-192 235 -192 410q0 110 72.5 184t183.5 74t183.5 -72.5t72.5 -185.5q0 -174 -193 -410q167 -188 314 -188q90 0 157.5 65.5t67.5 155.5q0 29 -10 67q-3 10 -39 97q-2 3 -21 44.5t-31 69.5q-11 22 -34 71.5t-37 76.5q-15 29 -41 85t-37 79q-13 27 -39 79.5t-39 77.5
q-32 58 -67 134q-9 17 -18.5 34t-18 32t-11.5 20q-23 40 -40.5 62t-48 39t-70.5 17q-58 0 -92 -29t-68 -89q-68 -123 -190 -377q-7 -14 -35.5 -73.5t-44.5 -90.5q-33 -65 -70 -148q-20 -40 -53 -114q-36 -87 -39 -97zM799 834q-71 0 -115.5 -44t-44.5 -114q0 -76 48.5 -169
t111.5 -171q63 78 111 170.5t48 169.5q0 70 -44 114t-115 44z" />
    </font>
</defs>
</svg>
